<?xml version="1.0" standalone="no"?>
<!DOCTYPE svg PUBLIC "-//W3C//DTD SVG 1.1//EN" "http://www.w3.org/Graphics/SVG/1.1/DTD/svg11.dtd" >
<svg xmlns="http://www.w3.org/2000/svg">
<metadata></metadata>
<defs>
<font id="itc_franklin_gothic_stddemi" horiz-adv-x="1105" >
<font-face units-per-em="2048" ascent="1638" descent="-410" />
<missing-glyph horiz-adv-x="614" />
<glyph horiz-adv-x="0" />
<glyph horiz-adv-x="682" />
<glyph unicode=" "  horiz-adv-x="614" />
<glyph unicode="&#x09;" horiz-adv-x="614" />
<glyph unicode="&#xa0;" horiz-adv-x="614" />
<glyph unicode="!" horiz-adv-x="655" d="M168 0v317h321v-317h-321zM131 1405h395l-102 -985h-191z" />
<glyph unicode="&#x22;" horiz-adv-x="942" d="M371 1405v-266l-86 -265h-111l-86 265v266h283zM854 1405v-266l-86 -265h-111l-86 265v266h283z" />
<glyph unicode="#" horiz-adv-x="1228" d="M672 1425l-80 -399h207l80 399h215l-80 -399h164v-221h-201l-49 -244h192v-221h-241l-68 -340h-217l68 340h-207l-68 -340h-217l68 340h-187v221h232l49 244h-197v221h240l80 399h217zM500 561h209l53 244h-213z" />
<glyph unicode="$" horiz-adv-x="1228" d="M698 -154h-168v195h-2q-375 39 -448 358l282 64q49 -182 271 -182q205 0 205 139q0 70 -84 106q-37 16 -144 39q-221 47 -319 113q-143 98 -144 291q0 164 111 276q104 109 268 131h4v164h168v-162q322 -25 414 -303l-258 -86q-53 154 -225 154q-180 0 -180 -121 q0 -92 188 -133q248 -51 330 -101q182 -117 182 -317q0 -184 -135 -305q-129 -115 -316 -125v-195z" />
<glyph unicode="%" horiz-adv-x="1433" d="M244 1044q0 -231 100 -231q104 0 105 223q0 111 -15 168q-20 74 -90 74q-100 -1 -100 -234zM1030 1405h158l-780 -1405h-162zM995 362q0 -231 101 -231q104 0 104 223q0 111 -14 168q-20 74 -90 74q-101 -1 -101 -234zM123 797q-68 98 -68 247q0 150 68 248 q80 113 221 113q143 0 223 -111q70 -98 70 -250t-70 -249q-78 -113 -223 -113q-141 0 -221 115zM874 115q-68 98 -67 247q0 150 67 248q80 113 222 113q143 0 223 -111q70 -98 70 -250t-70 -249q-78 -113 -223 -113q-142 0 -222 115z" />
<glyph unicode="&#x26;" horiz-adv-x="1474" d="M688 913q150 57 150 162q0 63 -45 103q-43 37 -111 36q-53 0 -88 -26q-41 -31 -41 -82q0 -58 135 -193zM371 819q-129 170 -129 277q0 166 137 254q119 76 295 75q180 0 293 -86q125 -94 125 -264q0 -225 -263 -330l197 -215q80 86 125 275l291 -39q-49 -231 -230 -442 q66 -66 144 -66q53 0 86 6v-246q-68 -18 -137 -18q-193 0 -308 131q-193 -152 -438 -151q-227 0 -360 96q-174 129 -174 348q0 278 346 395zM541 635q-166 -55 -166 -199q0 -88 67 -145q63 -53 156 -53q125 0 229 81z" />
<glyph unicode="'" horiz-adv-x="614" d="M449 1405v-266l-87 -265h-110l-86 265v266h283z" />
<glyph unicode="(" horiz-adv-x="778" d="M602 1405q-242 -387 -242 -889q0 -473 236 -866h-223q-295 403 -295 872q0 500 299 883h225z" />
<glyph unicode=")" horiz-adv-x="778" d="M313 1405q299 -383 299 -883q0 -469 -295 -872h-223q236 393 236 866q0 502 -242 889h225z" />
<glyph unicode="*" horiz-adv-x="1228" d="M532 1405h164l-10 -309l291 106l51 -158l-297 -86l191 -243l-134 -97l-174 256l-172 -258l-133 99l191 243l-299 86l51 156l291 -104z" />
<glyph unicode="+" horiz-adv-x="1228" d="M737 1085v-372h373v-246h-373v-373h-245v373h-373v246h373v372h245z" />
<glyph unicode="," horiz-adv-x="614" d="M467 31l-207 -359h-115l160 328h-160v319h322v-288z" />
<glyph unicode="-" horiz-adv-x="491" d="M479 639v-225h-479v225h479z" />
<glyph unicode="." horiz-adv-x="614" d="M147 0v317h322v-317h-322z" />
<glyph unicode="/" horiz-adv-x="1228" d="M-31 -350l1004 1755h207l-1002 -1755h-209z" />
<glyph unicode="0" horiz-adv-x="1228" d="M188 215q-123 199 -122 490q0 291 122 487q145 233 420 233q279 0 428 -229q127 -197 127 -491q0 -297 -125 -494q-150 -231 -430 -231q-273 -1 -420 235zM428 1004q-20 -86 -20 -297q0 -199 24 -306q39 -180 178 -180q147 0 189 187q25 117 24 282q0 201 -26 328 q-35 172 -187 172q-139 0 -182 -186z" />
<glyph unicode="1" horiz-adv-x="1228" d="M111 1124q360 109 475 281h237v-1151h389v-254h-1136v254h426v793l-391 -209v286z" />
<glyph unicode="2" horiz-adv-x="1228" d="M1135 0h-1055v272l522 398q201 178 201 313q0 80 -55 133q-55 51 -136 51q-215 0 -241 -270l-291 66q92 463 549 462q215 0 348 -106q162 -127 162 -330q0 -225 -211 -407q-125 -106 -398 -275l-45 -26h674z" />
<glyph unicode="3" horiz-adv-x="1228" d="M539 848q125 0 170 31q72 51 71 137q0 70 -57 123q-49 47 -137 47q-170 0 -211 -182l-291 47q41 178 188 280q137 94 328 94q203 0 340 -88q162 -104 162 -295q0 -236 -242 -305v-4q283 -59 283 -332q0 -205 -166 -319q-141 -102 -377 -102q-229 0 -369 108 q-160 123 -190 320l299 43q37 -219 252 -220q90 0 151 48q66 51 66 139q0 131 -107 170q-41 14 -223 14h-65v246h125z" />
<glyph unicode="4" horiz-adv-x="1228" d="M678 561v592l-385 -592h385zM1184 561v-239h-197v-322h-328v322h-614v239l567 844h375v-844h197z" />
<glyph unicode="5" horiz-adv-x="1228" d="M395 805q113 121 303 121q184 0 320 -125q131 -129 131 -330q0 -213 -141 -352q-145 -139 -404 -139q-211 0 -354 96q-154 104 -199 303l307 45q37 -184 236 -184q96 0 160 57q66 59 65 154q0 94 -65 157q-63 63 -160 64q-139 0 -199 -109l-268 45l55 797h885l-35 -289 h-614z" />
<glyph unicode="6" horiz-adv-x="1228" d="M854 975q-37 215 -203 215q-254 0 -254 -422v-47h4q80 162 308 162q188 0 317 -121q131 -123 131 -311q0 -193 -143 -336q-141 -135 -367 -135q-295 0 -446 219q-131 188 -131 497q0 297 125 490q156 240 456 239q186 0 316 -96q133 -100 170 -278zM780 281q53 63 54 163 q0 90 -60 150q-59 61 -149 61q-88 0 -152 -65q-61 -63 -61 -152q0 -98 57 -159q59 -66 156 -66q98 0 155 68z" />
<glyph unicode="7" horiz-adv-x="1228" d="M1141 1155q-158 -178 -281 -465q-117 -268 -117 -586l5 -104h-377q-6 289 131 600q147 330 344 514h-713l25 291h983v-250z" />
<glyph unicode="8" horiz-adv-x="1228" d="M838 1026q0 188 -228 188q-190 0 -190 -151q0 -88 100 -143q-2 2 176 -70q142 41 142 176zM530 586q-176 -51 -176 -195q0 -188 260 -188q90 0 156 30q86 39 86 119q0 92 -111 154q-37 18 -190 72zM1174 416q0 -215 -177 -336q-150 -100 -403 -100q-217 0 -346 75 q-190 113 -191 324q0 221 252 313q-203 106 -203 316q0 201 164 319q131 98 351 98q201 0 337 -84q166 -102 166 -290q0 -205 -211 -293q261 -109 261 -342z" />
<glyph unicode="9" horiz-adv-x="1228" d="M401 375q39 -147 187 -148q125 0 186 111q53 94 53 338q-117 -145 -315 -146q-190 0 -311 121q-121 119 -121 310q0 221 151 346q141 119 367 118q287 0 430 -215q123 -184 123 -485q0 -297 -125 -502q-150 -244 -451 -243q-377 0 -462 339zM453 1130q-61 -63 -62 -151 q0 -92 60 -152q59 -59 149 -59q88 0 150 63q61 61 61 148q0 90 -61 151q-61 63 -150 64q-86 -1 -147 -64z" />
<glyph unicode=":" horiz-adv-x="614" d="M154 0v317h321v-317h-321zM154 723v317h321v-317h-321z" />
<glyph unicode=";" horiz-adv-x="614" d="M467 31l-207 -359h-115l160 328h-160v319h322v-288zM145 723v317h322v-317h-322z" />
<glyph unicode="&#x3c;" horiz-adv-x="1228" d="M113 713l1001 372v-266l-643 -229l643 -230v-266l-1001 373v246z" />
<glyph unicode="=" horiz-adv-x="1228" d="M1110 958v-245h-991v245h991zM1110 467v-246h-991v246h991z" />
<glyph unicode="&#x3e;" horiz-adv-x="1228" d="M1114 713v-246l-1001 -373v266l643 230l-643 229v266z" />
<glyph unicode="?" d="M412 436q0 168 24 223q29 59 160 156q117 86 117 191q0 76 -47 120q-45 45 -123 45q-182 0 -201 -258l-283 41q25 213 158 340q137 131 350 131q199 0 334 -108q145 -119 146 -311q0 -219 -228 -369q-94 -61 -114 -92q-31 -45 -29 -148h-264v39zM383 0v317h322v-317h-322 z" />
<glyph unicode="@" horiz-adv-x="1638" d="M686 543q41 -51 109 -51q84 0 139 65q53 63 53 150q0 70 -41 114q-41 47 -110 47q-78 0 -134 -65q-53 -63 -53 -144q0 -71 37 -116zM1346 180q-197 -201 -482 -200q-311 0 -522 204q-217 209 -217 521q0 305 211 514q211 207 516 206q264 0 448 -159q213 -178 213 -424 q0 -274 -178 -432q-139 -125 -297 -125q-117 0 -110 96q-82 -88 -187 -88q-127 0 -223 98q-98 100 -98 238q0 178 106 305q113 135 283 135q156 0 233 -113l21 99h180l-92 -559q-8 -43 -6 -47q0 -20 24 -21q43 0 111 102q78 119 78 248q0 225 -146 355q-139 123 -364 122 q-238 0 -387 -157q-145 -154 -146 -393q0 -252 160 -404q156 -150 404 -149q201 0 364 127z" />
<glyph unicode="A" horiz-adv-x="1310" d="M1284 0h-354l-86 289h-455l-88 -289h-289l451 1405h381zM768 547l-150 493l-149 -493h299z" />
<glyph unicode="B" horiz-adv-x="1351" d="M762 1405q225 0 321 -62q172 -109 172 -307q0 -240 -254 -303v-4q133 -27 211 -119q82 -96 82 -231q0 -178 -172 -303q-102 -76 -360 -76h-629v1405h629zM461 848h223q131 0 174 33q59 43 60 127q0 86 -70 127q-37 20 -189 20h-198v-307zM461 260h227q141 0 186 31 q74 47 74 145q0 90 -80 135q-47 27 -166 27h-241v-338z" />
<glyph unicode="C" horiz-adv-x="1351" d="M920 860q-4 301 -236 301q-254 0 -254 -473q0 -193 43 -293q61 -147 227 -147q207 0 244 264l320 -20q-27 -240 -183 -377q-154 -135 -397 -135q-299 0 -467 217q-154 199 -154 505q0 309 158 508q170 215 473 215q510 0 570 -542z" />
<glyph unicode="D" horiz-adv-x="1351" d="M530 1405q365 0 531 -158q217 -205 217 -540q0 -305 -182 -512q-176 -195 -510 -195h-463v1405h407zM451 264h110q209 0 301 150q78 127 78 303q0 186 -100 317q-86 113 -277 113h-112v-883z" />
<glyph unicode="E" horiz-adv-x="1187" d="M455 1133v-285h532v-264h-532v-312h675v-272h-1003v1405h1003v-272h-675z" />
<glyph unicode="F" d="M453 1133v-320h534v-264h-534v-549h-328v1405h999v-272h-671z" />
<glyph unicode="G" horiz-adv-x="1351" d="M645 489v263h578v-752h-150l-47 162q-150 -182 -383 -182q-291 0 -444 217q-137 190 -138 493q0 311 146 510q166 225 465 225q225 0 372 -129q145 -129 179 -352l-312 -43q-27 260 -247 260q-266 0 -267 -475q0 -174 56 -289q72 -152 225 -151q109 0 174 67 q66 70 59 176h-266z" />
<glyph unicode="H" horiz-adv-x="1351" d="M1212 0h-327v580h-434v-580h-328v1405h328v-549h434v549h327v-1405z" />
<glyph unicode="I" horiz-adv-x="614" d="M461 0h-328v1405h328v-1405z" />
<glyph unicode="J" horiz-adv-x="819" d="M692 430q0 -238 -100 -344q-104 -106 -340 -106l-221 22v272q106 -16 159 -16q100 0 146 57q29 37 29 156v934h327v-975z" />
<glyph unicode="K" horiz-adv-x="1310" d="M453 743l440 662h315l-338 -502l422 -903h-362l-279 608l-198 -284v-324h-320v1405h320v-662z" />
<glyph unicode="L" horiz-adv-x="1024" d="M1012 279v-279h-893v1405h327v-1126h566z" />
<glyph unicode="M" horiz-adv-x="1802" d="M977 0h-225l-342 1145h-4v-1145h-277v1405h514l246 -842l258 842h514v-1405h-328v1145h-8z" />
<glyph unicode="N" horiz-adv-x="1351" d="M1208 0h-280l-539 944h-8v-944h-254v1405h354l469 -825h4v825h254v-1405z" />
<glyph unicode="O" horiz-adv-x="1351" d="M215 201q-147 209 -147 504q0 303 145 499q162 221 457 221q289 0 446 -215q152 -207 152 -505q0 -291 -133 -488q-162 -238 -465 -237q-297 0 -455 221zM457 997q-45 -115 -45 -292q0 -457 258 -457q154 0 211 160q43 113 43 294q0 201 -52 318q-59 137 -202 137 q-152 0 -213 -160z" />
<glyph unicode="P" horiz-adv-x="1269" d="M455 0h-328v1405h528q262 0 379 -80q182 -129 183 -350q0 -229 -152 -357q-119 -98 -399 -98h-211v-520zM639 776q143 0 201 62q45 51 45 125q0 96 -68 147q-51 39 -180 39h-182v-373h184z" />
<glyph unicode="Q" horiz-adv-x="1351" d="M670 248q154 0 211 160q43 113 43 294q0 201 -52 318q-59 137 -202 137q-152 0 -213 -160q-45 -115 -45 -292q0 -457 258 -457zM213 1204q162 221 457 221q289 0 446 -215q152 -207 152 -505q0 -467 -293 -639q-6 -109 125 -109q53 0 123 12v-250q-63 -14 -115 -14 q-162 0 -234 62q-76 63 -94 223q-18 -4 -55 -8q-18 -2 -55 -2q-297 0 -455 221q-147 209 -147 504q0 302 145 499z" />
<glyph unicode="R" horiz-adv-x="1351" d="M461 0h-328v1405h592q248 0 360 -72q178 -117 179 -350q0 -121 -66 -221t-178 -141l260 -621h-365l-215 555h-239v-555zM461 797h180q152 0 201 28q82 51 82 160q0 94 -80 143q-43 27 -211 27h-172v-358z" />
<glyph unicode="S" horiz-adv-x="1228" d="M838 1004q-57 166 -242 165q-195 0 -195 -131q0 -104 203 -141q279 -59 367 -119q184 -121 184 -332q0 -217 -174 -352q-147 -115 -408 -114q-213 0 -358 92q-164 100 -209 297l303 69q55 -199 293 -198q86 0 146 32q74 39 73 119q0 76 -90 117q-39 16 -156 41 q-238 49 -342 121q-154 104 -153 311q0 203 151 330q137 115 353 114q416 0 532 -329z" />
<glyph unicode="T" d="M1063 1126h-352v-1126h-328v1126h-356v279h1036v-279z" />
<glyph unicode="U" horiz-adv-x="1351" d="M1229 555q0 -315 -115 -428q-147 -147 -432 -147q-291 0 -430 120q-145 127 -146 455v850h357v-850q0 -164 31 -217q55 -94 211 -94q147 0 202 75q39 55 39 236v850h283v-850z" />
<glyph unicode="V" horiz-adv-x="1228" d="M791 0h-355l-422 1405h351l282 -1004l291 1004h276z" />
<glyph unicode="W" horiz-adv-x="1843" d="M1466 0h-323l-230 930h-4l-221 -930h-319l-363 1405h336l215 -946h4l227 946h304l235 -946h4l12 61l205 885h271z" />
<glyph unicode="X" horiz-adv-x="1310" d="M844 752l434 -752h-381l-281 510l-282 -510h-314l435 748l-385 657h383l227 -428l240 428h307z" />
<glyph unicode="Y" horiz-adv-x="1228" d="M780 592v-592h-327v592l-445 813h381l270 -535l267 535h295z" />
<glyph unicode="Z" horiz-adv-x="1351" d="M543 268h733v-268h-1135v240l709 899h-660v266h1063v-242z" />
<glyph unicode="[" horiz-adv-x="778" d="M610 -350h-442v1755h442v-131h-204v-1497h204v-127z" />
<glyph unicode="\" horiz-adv-x="1228" d="M1051 -350l-1002 1755h207l1004 -1755h-209z" />
<glyph unicode="]" horiz-adv-x="778" d="M168 -223h205v1497h-205v131h442v-1755h-442v127z" />
<glyph unicode="^" horiz-adv-x="1228" d="M483 1405h254l348 -870h-231l-242 612l-239 -612h-232z" />
<glyph unicode="_" horiz-adv-x="1024" d="M1024 -154v-102h-1024v102h1024z" />
<glyph unicode="`" horiz-adv-x="778" d="M645 1266l-49 -121l-463 162l62 178z" />
<glyph unicode="a" d="M735 0q-18 76 -14 162q-127 -182 -332 -182q-145 0 -233 73q-94 80 -95 221q0 221 234 310q90 35 412 65v25q0 104 -27 137q-37 49 -123 49q-78 0 -127 -37q-53 -41 -53 -114l-285 26q20 174 178 258q125 68 318 68q217 0 330 -94q70 -57 88 -148q8 -43 8 -178v-485 q0 -92 20 -156h-299zM707 498q-326 -35 -326 -191q0 -137 133 -137q96 0 152 86q41 61 41 201v41z" />
<glyph unicode="b" d="M420 436q0 -119 35 -174q45 -72 127 -72q170 0 170 330q0 141 -21 211q-37 123 -145 123q-166 0 -166 -268v-150zM115 1405h301v-496h8q76 152 254 152q203 0 305 -178q82 -143 82 -363q0 -229 -94 -373q-109 -168 -328 -167q-188 0 -297 180q-25 -29 -67 -160h-164v1405 z" />
<glyph unicode="c" d="M745 645q0 78 -38 129q-43 57 -119 57q-186 0 -187 -296q0 -139 23 -201q39 -106 151 -107q152 0 170 181l287 -17q-18 -190 -149 -303q-129 -109 -324 -108q-231 0 -369 149q-133 145 -133 381q0 244 138 395q141 156 383 156q184 0 311 -109q129 -111 143 -290z" />
<glyph unicode="d" d="M717 0v162h-4q-94 -182 -277 -182q-201 0 -297 174q-78 137 -78 354q0 225 78 369q96 184 303 184q170 0 260 -131v475h302v-1405h-287zM702 578q0 272 -145 272q-178 0 -178 -350q0 -303 166 -303q88 0 131 84q27 51 26 153v144z" />
<glyph unicode="e" d="M377 469l-2 -51q0 -96 51 -158q55 -66 149 -65q72 0 127 45q57 49 58 118l278 -20q0 -82 -104 -199q-143 -160 -369 -159q-231 0 -372 147q-141 145 -142 379q0 240 131 393q139 162 375 162q248 0 381 -184q111 -152 106 -408h-667zM743 647q-12 217 -174 217 q-176 0 -194 -217h368z" />
<glyph unicode="f" horiz-adv-x="614" d="M442 0h-301v780h-121v234h121q0 205 47 276q92 137 293 137q98 0 172 -14v-231q-45 6 -114 6q-66 0 -84 -43q-12 -27 -13 -109v-22h185v-234h-185v-780z" />
<glyph unicode="g" horiz-adv-x="1146" d="M244 993q129 68 315 68q143 0 277 -45q14 117 67 160q49 43 168 43q45 0 84 -9v-194q-66 10 -80 10q-109 0 -121 -90q82 -90 82 -203q0 -166 -157 -250q-123 -68 -306 -67q-80 0 -174 14q-51 -29 -51 -76q0 -61 60 -80q55 -14 223 -20l131 -6q174 -10 262 -58 q125 -66 125 -219q0 -193 -219 -282q-133 -55 -383 -56q-537 0 -537 242q0 150 180 188q-133 66 -133 187q0 145 209 231q-184 70 -184 254q0 170 162 258zM436 854q-47 -43 -47 -115q0 -158 166 -157q78 0 127 41q53 43 53 118q0 74 -55 117q-49 37 -125 37q-74 0 -119 -41 zM752 -10q-31 2 -179 6q-156 4 -229 10q-66 -25 -65 -84q0 -61 75 -84q74 -20 226 -20q283 0 282 100q1 62 -110 72z" />
<glyph unicode="h" d="M999 0h-301v561q0 121 -10 164q-27 96 -110 96q-106 0 -144 -78q-27 -55 -26 -182v-561h-302v1405h302v-508h4q29 76 108 121q74 43 162 43q174 0 260 -113q57 -74 57 -286v-662z" />
<glyph unicode="i" horiz-adv-x="532" d="M414 0h-301v1040h301v-1040zM414 1135h-301v290h301v-290z" />
<glyph unicode="j" horiz-adv-x="532" d="M412 90q0 -250 -29 -305q-74 -152 -303 -152q-41 0 -166 19v242q37 -6 72 -7q82 0 108 68q16 41 17 135v950h301v-950zM412 1135h-301v290h301v-290z" />
<glyph unicode="k" horiz-adv-x="1146" d="M1141 0h-338l-219 471l-168 -205v-266h-301v1405h301v-842l98 137l289 340h297l-297 -354z" />
<glyph unicode="l" horiz-adv-x="532" d="M113 1405h301v-1405h-301v1405z" />
<glyph unicode="m" horiz-adv-x="1679" d="M387 1040v-159h4q78 180 289 180q195 0 285 -180q78 180 303 180q166 0 254 -107q55 -66 55 -305v-649h-301v551q0 160 -6 182q-20 84 -129 84q-94 0 -131 -80q-20 -45 -21 -186v-551h-301v551q0 141 -8 174q-27 94 -127 94q-102 0 -135 -92q-16 -49 -17 -176v-551h-301 v1040h287z" />
<glyph unicode="n" d="M102 1040h285v-176h4q90 197 299 197q172 0 256 -115q57 -78 58 -303v-643h-302v559q0 131 -12 172q-27 90 -125 90q-86 0 -127 -78q-35 -68 -35 -184v-559h-301v1040z" />
<glyph unicode="o" d="M922 901q129 -150 129 -389q0 -227 -136 -377q-141 -156 -366 -155q-231 0 -367 157q-127 150 -127 385q0 236 127 383q135 156 367 156q236 0 373 -160zM379 553q0 -154 20 -231q39 -141 150 -142q178 0 178 330q0 170 -33 258q-35 94 -143 94q-172 0 -172 -309z" />
<glyph unicode="p" d="M420 481q0 -164 29 -211q49 -78 135 -77q162 0 161 333q0 322 -159 322q-92 0 -135 -84q-31 -55 -31 -180v-103zM401 1040v-153h5q84 174 270 174q201 0 307 -180q78 -131 78 -363q0 -223 -84 -364q-104 -174 -313 -174q-176 0 -240 135h-4v-465h-301v1390h282z" />
<glyph unicode="q" d="M713 610q0 244 -164 244q-170 0 -170 -332q0 -172 29 -235q39 -94 135 -94q78 0 127 79q43 66 43 183v155zM707 109q-88 -129 -238 -129q-217 0 -322 170q-88 141 -88 372q0 225 97 371q111 168 325 168q201 0 299 -166q53 72 78 145h164q-14 -100 -14 -206v-1184h-301 v459z" />
<glyph unicode="r" horiz-adv-x="696" d="M401 1040v-194h5q63 227 223 215l51 -4v-301q-156 8 -215 -105q-43 -82 -43 -254v-397h-301v1040h280z" />
<glyph unicode="s" horiz-adv-x="1024" d="M692 729q-37 139 -203 139q-156 0 -155 -92q0 -61 98 -86q31 -6 100 -16q82 -10 115 -17q311 -55 311 -323q0 -168 -139 -268q-123 -86 -323 -86q-401 0 -476 307l261 37q27 -139 229 -140q61 0 113 21q70 27 69 78q0 76 -117 88q-195 23 -309 61q-205 72 -205 281 q0 178 140 270q119 78 305 78q309 0 409 -273z" />
<glyph unicode="t" horiz-adv-x="778" d="M705 803h-224v-414q0 -106 21 -135q25 -33 119 -33q31 0 100 8v-227q-94 -23 -189 -22q-186 0 -268 67q-84 70 -84 297v459h-170v239h183l26 306l262 20v-326h224v-239z" />
<glyph unicode="u" d="M715 0v178h-4q-74 -199 -297 -198q-180 0 -254 116q-51 80 -51 289v655h301v-655q0 -80 18 -113q25 -51 96 -51q109 0 152 101q16 37 16 159v559h301v-1040h-278z" />
<glyph unicode="v" horiz-adv-x="983" d="M612 0h-239l-357 1040h320l201 -659l202 659h228z" />
<glyph unicode="w" horiz-adv-x="1515" d="M1188 0h-270l-162 668h-4l-162 -668h-258l-322 1040h322l166 -637h4l157 637h277l149 -639h5l174 639h237z" />
<glyph unicode="x" d="M715 559l350 -559h-350l-215 358l-213 -358h-262l344 559l-297 481h350l166 -282l166 282h260z" />
<glyph unicode="y" horiz-adv-x="983" d="M647 66q-80 -240 -125 -304q-92 -125 -289 -124q-74 0 -147 12v235q94 -14 152 -14q76 0 110 29q35 27 55 100l-378 1040h325l199 -618l190 618h226z" />
<glyph unicode="z" horiz-adv-x="860" d="M817 848l-463 -625h484v-223h-820v223l459 608h-420v209h760v-192z" />
<glyph unicode="{" horiz-adv-x="778" d="M270 1149q0 123 88 194q78 61 183 62h135v-182h-76q-63 0 -82 -31q-12 -20 -12 -70v-401q-4 -164 -197 -182v-4q193 -12 197 -199v-404q0 -49 12 -67q18 -33 82 -33h76v-182h-141q-100 0 -177 61q-88 74 -88 197v430q0 123 -168 115v174q168 -8 168 90v432z" />
<glyph unicode="|" horiz-adv-x="614" d="M430 1536v-2048h-246v2048h246z" />
<glyph unicode="}" horiz-adv-x="778" d="M508 -92q0 -125 -88 -197q-78 -61 -184 -61h-134v182h76q63 0 82 33q12 18 12 67v404q4 186 197 199v4q-193 18 -197 182v401q0 49 -12 70q-18 31 -82 31h-76v182h138q102 0 178 -62q90 -72 90 -194v-432q0 -98 168 -90v-174q-168 8 -168 -115v-430z" />
<glyph unicode="~" horiz-adv-x="1228" d="M90 471q0 166 88 274q47 57 137 70q98 12 195 -43l231 -135q203 -121 203 115h193q0 -166 -88 -275q-47 -57 -138 -69q-98 -12 -194 43l-258 137q-115 61 -152 4q-18 -31 -18 -121h-199z" />
<glyph unicode="&#xa1;" horiz-adv-x="655" d="M168 743v318h321v-318h-321zM424 627l98 -971h-389l100 971h191z" />
<glyph unicode="&#xa2;" horiz-adv-x="1228" d="M715 -55h-166v266q-190 25 -301 172q-102 137 -103 336q0 201 101 338q111 150 303 166v219h166v-219q317 -37 368 -373l-272 -16q-25 182 -170 182q-188 0 -188 -314q0 -274 188 -274q156 0 170 178l266 -20q-39 -319 -362 -375v-266z" />
<glyph unicode="&#xa3;" horiz-adv-x="1228" d="M287 858q-14 111 -15 143q0 205 125 318q119 106 326 106q315 0 401 -266l-262 -104q-33 135 -143 135q-55 0 -92 -41q-37 -39 -37 -127q0 -33 16 -148l2 -16h232v-217h-207q12 -240 -160 -377h184q207 0 265 195l284 -86q-49 -184 -180 -281q-121 -92 -356 -92h-645v264 h38q106 0 134 8q137 45 137 228q0 31 -15 141h-194v217h162z" />
<glyph unicode="&#xa5;" horiz-adv-x="1228" d="M1141 899v-182h-330l-68 -125v-17h398v-182h-398v-393h-272v393h-397v182h397v17l-68 125h-329v182h229l-274 506h354l268 -535l267 535h268l-275 -506h230z" />
<glyph unicode="&#xa7;" horiz-adv-x="1228" d="M492 190q-332 119 -332 347q0 184 139 315q-102 82 -102 227q0 168 139 264q115 82 309 82q326 0 440 -258l-219 -61q-49 129 -231 129q-168 0 -168 -105q0 -57 61 -94q16 -10 113 -47l176 -69q270 -104 270 -324q0 -166 -131 -291q156 -94 156 -278q0 -199 -149 -306 q-133 -94 -338 -94q-172 0 -306 74q-150 84 -200 238l258 49q106 -156 270 -156q76 0 129 27q72 33 72 98q0 104 -268 203zM498 745q-82 -43 -82 -110q0 -82 98 -129l244 -103q76 51 76 115q0 98 -211 176z" />
<glyph unicode="&#xa8;" horiz-adv-x="860" d="M512 1245q-33 35 -33 82q0 49 35 84q33 35 82 35q47 0 82 -35q33 -37 33 -84q0 -49 -35 -84t-84 -35q-47 0 -80 37zM180 1245q-33 35 -33 82q0 49 35 84q33 35 82 35q47 0 82 -35q33 -37 33 -84q0 -49 -35 -84t-84 -35q-47 0 -80 37z" />
<glyph unicode="&#xa9;" horiz-adv-x="1515" d="M246 190q-211 211 -211 515q0 299 211 509q211 211 512 211q299 0 512 -211q211 -211 211 -509q0 -301 -211 -515q-211 -211 -512 -210q-301 -1 -512 210zM1141 305q150 156 149 400q0 242 -149 395q-152 156 -383 155q-236 0 -385 -155q-147 -154 -148 -395 q0 -244 148 -400q150 -154 385 -153q233 -1 383 153zM963 854q-25 131 -181 131q-102 0 -159 -82q-53 -74 -54 -190q0 -111 58 -193q61 -88 161 -88q68 0 117 37q53 41 58 102h163q-16 -127 -114 -204q-94 -74 -224 -74q-178 0 -290 121q-111 117 -111 295q0 184 107 299 q109 119 290 118q133 0 226 -71q94 -74 116 -201h-163z" />
<glyph unicode="&#xaa;" horiz-adv-x="737" d="M74 1229q27 197 321 196q141 0 215 -57q61 -45 62 -194v-291q0 -51 14 -95h-194q-10 41 -11 97q-82 -109 -215 -109q-94 0 -151 45q-61 47 -62 131q0 133 152 187q70 25 268 39v14q0 61 -18 84q-23 29 -80 29q-109 0 -117 -91zM473 1087q-211 -23 -211 -114q0 -82 86 -82 q63 0 98 51q27 37 27 121v24z" />
<glyph unicode="&#xab;" horiz-adv-x="819" d="M410 590l176 301h104l-104 -301l104 -295h-104zM129 590l176 301h105l-105 -301l105 -295h-105z" />
<glyph unicode="&#xac;" horiz-adv-x="1228" d="M889 713h-797v245h1043v-606h-246v361z" />
<glyph unicode="&#xad;" horiz-adv-x="491" d="M479 639v-225h-479v225h479z" />
<glyph unicode="&#xae;" horiz-adv-x="1515" d="M471 731h-121v453h219q172 0 172 -135q0 -82 -84 -121l84 -197h-127l-71 164h-72v-164zM471 987h59q86 0 86 64q0 47 -77 47h-68v-111zM227 1268q125 125 310 125q182 0 307 -125q127 -125 127 -312q0 -182 -125 -309q-125 -125 -309 -125t-310 125q-125 127 -125 309 q0 187 125 312zM303 723q100 -100 234 -100q133 0 233 100t100 233q0 137 -100 236q-98 100 -233 100q-133 0 -234 -100q-100 -100 -100 -236q0 -133 100 -233z" />
<glyph unicode="&#xaf;" horiz-adv-x="942" d="M793 1247h-646v148h646v-148z" />
<glyph unicode="&#xb0;" horiz-adv-x="819" d="M629 901q-92 -90 -217 -90q-127 0 -217 90t-91 217q-2 127 89 217q92 90 219 90q125 0 217 -90q90 -90 90 -217t-90 -217zM516 1225q-43 43 -104 43t-107 -43q-45 -45 -43 -105q0 -63 43 -106q45 -45 107 -45q61 0 104 45q45 43 45 106q0 60 -45 105z" />
<glyph unicode="&#xb1;" horiz-adv-x="1228" d="M737 1331v-373h373v-245h-373v-373h-245v373h-373v245h373v373h245zM119 246h991v-246h-991v246z" />
<glyph unicode="&#xb4;" horiz-adv-x="819" d="M668 1309l-465 -168l-51 123l446 221z" />
<glyph unicode="&#xb5;" d="M700 0v178h-4q-74 -199 -299 -198v-330h-301v1390h301v-655q0 -80 17 -113q25 -51 96 -51q109 0 152 101q16 37 16 159v559h301v-1040h-279z" />
<glyph unicode="&#xb6;" d="M934 -367h-148v1633h-170v-1633h-147v883q-381 37 -420 412q-18 182 109 325q133 152 344 152h588v-139h-156v-1633z" />
<glyph unicode="&#xb7;" horiz-adv-x="614" d="M145 432v318h322v-318h-322z" />
<glyph unicode="&#xb8;" horiz-adv-x="696" d="M354 -82l33 4q66 0 117 -41q53 -45 53 -108q0 -74 -61 -123q-57 -43 -136 -43q-115 0 -219 65l33 82q78 -47 152 -47q72 0 71 57q0 76 -114 76l-60 -4l60 164h102z" />
<glyph unicode="&#xba;" horiz-adv-x="737" d="M608 1329q84 -90 84 -233q0 -137 -88 -228q-90 -92 -237 -92q-150 0 -238 96q-84 88 -84 230q0 141 84 229q86 94 238 94q153 0 241 -96zM256 1120q0 -223 111 -223q117 0 116 197q0 98 -22 155q-23 57 -92 58q-113 -1 -113 -187z" />
<glyph unicode="&#xbb;" horiz-adv-x="819" d="M233 295h-104l104 295l-104 301h104l177 -301zM514 295h-104l104 295l-104 301h104l176 -301z" />
<glyph unicode="&#xbf;" d="M696 635q0 -180 -28 -242q-29 -59 -156 -153q-117 -86 -117 -191q0 -76 47 -123q45 -45 123 -45q178 0 201 258l281 -39q-23 -215 -156 -342q-137 -131 -352 -131q-199 0 -334 111q-145 117 -146 311q0 219 230 369q84 53 108 84q35 45 35 133h264zM403 743v318h322v-318 h-322z" />
<glyph unicode="&#xc0;" horiz-adv-x="1310" d="M1284 0h-354l-86 289h-455l-88 -289h-289l451 1405h381zM768 547l-150 493l-149 -493h299zM870 1630l-49 -121l-463 162l62 178z" />
<glyph unicode="&#xc1;" horiz-adv-x="1310" d="M1284 0h-354l-86 289h-455l-88 -289h-289l451 1405h381zM768 547l-150 493l-149 -493h299zM954 1673l-465 -168l-51 123l447 221z" />
<glyph unicode="&#xc2;" horiz-adv-x="1310" d="M1284 0h-354l-86 289h-455l-88 -289h-289l451 1405h381zM768 547l-150 493l-149 -493h299zM827 1544l-178 113l-174 -113h-209l383 307l395 -307h-217z" />
<glyph unicode="&#xc3;" horiz-adv-x="1310" d="M1284 0h-354l-86 289h-455l-88 -289h-289l451 1405h381zM768 547l-150 493l-149 -493h299zM287 1655q117 117 239 117q66 0 136 -33q74 -35 112 -35q57 0 158 86l92 -102q-111 -137 -244 -138q-55 0 -147 35t-111 35q-37 0 -76 -23q-23 -12 -67 -49z" />
<glyph unicode="&#xc4;" horiz-adv-x="1310" d="M1284 0h-354l-86 289h-455l-88 -289h-289l451 1405h381zM768 547l-150 493l-149 -493h299zM737 1610q-33 35 -32 82q0 49 34 84q33 35 82 34q47 0 82 -34q33 -37 33 -84q0 -49 -35 -84t-84 -35q-47 0 -80 37zM406 1610q-33 35 -33 82q0 49 35 84q33 35 81 34q47 0 82 -34 q33 -37 33 -84q0 -49 -35 -84t-84 -35q-46 0 -79 37z" />
<glyph unicode="&#xc5;" horiz-adv-x="1310" d="M1284 0h-354l-86 289h-455l-88 -289h-289l451 1405h381zM768 547l-150 493l-149 -493h299zM516 1569q-55 61 -55 141t53 141q57 61 137 62q84 0 142 -60q57 -59 57 -143t-57 -143q-59 -59 -142 -60q-80 1 -135 62zM731 1710q0 31 -22 55q-23 23 -54 23q-78 0 -77 -80 q0 -31 22 -53q23 -23 53 -23q78 0 78 78z" />
<glyph unicode="&#xc6;" horiz-adv-x="1843" d="M780 324h-325l-150 -324h-285l644 1405h1091v-272h-647v-285h518v-264h-518v-312h647v-272h-975v324zM780 559v506h-4l-225 -506h229z" />
<glyph unicode="&#xc7;" horiz-adv-x="1351" d="M920 860q-4 301 -236 301q-254 0 -254 -473q0 -193 43 -293q61 -147 227 -147q207 0 244 264l320 -20q-27 -233 -174 -371q-150 -135 -383 -139l-25 -64l33 4q66 0 116 -41q53 -45 54 -108q0 -74 -62 -123q-57 -43 -135 -43q-115 0 -219 65l33 82q78 -47 151 -47 q72 0 72 57q0 76 -115 76l-59 -4l53 148q-262 29 -407 239q-133 195 -134 479q0 309 158 508q170 215 473 215q510 0 570 -542z" />
<glyph unicode="&#xc8;" horiz-adv-x="1187" d="M455 1133v-285h532v-264h-532v-312h675v-272h-1003v1405h1003v-272h-675zM850 1630l-49 -121l-463 162l61 178z" />
<glyph unicode="&#xc9;" horiz-adv-x="1187" d="M455 1133v-285h532v-264h-532v-312h675v-272h-1003v1405h1003v-272h-675zM893 1673l-465 -168l-51 123l446 221z" />
<glyph unicode="&#xca;" horiz-adv-x="1187" d="M455 1133v-285h532v-264h-532v-312h675v-272h-1003v1405h1003v-272h-675zM807 1544l-178 113l-174 -113h-209l383 307l395 -307h-217z" />
<glyph unicode="&#xcb;" horiz-adv-x="1187" d="M455 1133v-285h532v-264h-532v-312h675v-272h-1003v1405h1003v-272h-675zM717 1610q-33 35 -33 82q0 49 35 84q33 35 82 34q47 0 82 -34q33 -37 32 -84q0 -49 -34 -84q-35 -35 -84 -35q-47 0 -80 37zM385 1610q-33 35 -33 82q0 49 35 84q33 35 82 34q47 0 82 -34 q33 -37 33 -84q0 -49 -35 -84t-84 -35q-47 0 -80 37z" />
<glyph unicode="&#xcc;" horiz-adv-x="614" d="M461 0h-328v1405h328v-1405zM481 1630l-49 -121l-463 162l62 178z" />
<glyph unicode="&#xcd;" horiz-adv-x="614" d="M461 0h-328v1405h328v-1405zM565 1673l-465 -168l-51 123l447 221z" />
<glyph unicode="&#xce;" horiz-adv-x="614" d="M461 0h-328v1405h328v-1405zM479 1544l-178 113l-174 -113h-209l383 307l395 -307h-217z" />
<glyph unicode="&#xcf;" horiz-adv-x="614" d="M461 0h-328v1405h328v-1405zM379 1610q-33 35 -33 82q0 49 35 84q33 35 82 34q47 0 82 -34q33 -37 33 -84q0 -49 -35 -84t-84 -35q-47 0 -80 37zM47 1610q-33 35 -33 82q0 49 35 84q33 35 82 34q47 0 82 -34q33 -37 33 -84q0 -49 -35 -84t-84 -35q-47 0 -80 37z" />
<glyph unicode="&#xd0;" horiz-adv-x="1351" d="M530 1405q365 0 531 -158q217 -205 217 -540q0 -305 -182 -512q-176 -195 -510 -195h-463v580h-125v276h125v549h407zM451 856h223v-276h-223v-316h110q209 0 301 150q78 127 78 303q0 186 -100 317q-86 113 -277 113h-112v-291z" />
<glyph unicode="&#xd1;" horiz-adv-x="1351" d="M1208 0h-280l-539 944h-8v-944h-254v1405h354l469 -825h4v825h254v-1405zM307 1655q117 117 240 117q66 0 135 -33q74 -35 113 -35q57 0 157 86l92 -102q-111 -137 -243 -138q-55 0 -148 35q-92 35 -110 35q-37 0 -76 -23q-23 -12 -68 -49z" />
<glyph unicode="&#xd2;" horiz-adv-x="1351" d="M215 201q-147 209 -147 504q0 303 145 499q162 221 457 221q289 0 446 -215q152 -207 152 -505q0 -291 -133 -488q-162 -238 -465 -237q-297 0 -455 221zM457 997q-45 -115 -45 -292q0 -457 258 -457q154 0 211 160q43 113 43 294q0 201 -52 318q-59 137 -202 137 q-152 0 -213 -160zM778 1630l-49 -121l-463 162l62 178z" />
<glyph unicode="&#xd3;" horiz-adv-x="1351" d="M215 201q-147 209 -147 504q0 303 145 499q162 221 457 221q289 0 446 -215q152 -207 152 -505q0 -291 -133 -488q-162 -238 -465 -237q-297 0 -455 221zM457 997q-45 -115 -45 -292q0 -457 258 -457q154 0 211 160q43 113 43 294q0 201 -52 318q-59 137 -202 137 q-152 0 -213 -160zM934 1673l-465 -168l-51 123l446 221z" />
<glyph unicode="&#xd4;" horiz-adv-x="1351" d="M215 201q-147 209 -147 504q0 303 145 499q162 221 457 221q289 0 446 -215q152 -207 152 -505q0 -291 -133 -488q-162 -238 -465 -237q-297 0 -455 221zM457 997q-45 -115 -45 -292q0 -457 258 -457q154 0 211 160q43 113 43 294q0 201 -52 318q-59 137 -202 137 q-152 0 -213 -160zM848 1544l-178 113l-174 -113h-209l383 307l395 -307h-217z" />
<glyph unicode="&#xd5;" horiz-adv-x="1351" d="M215 201q-147 209 -147 504q0 303 145 499q162 221 457 221q289 0 446 -215q152 -207 152 -505q0 -291 -133 -488q-162 -238 -465 -237q-297 0 -455 221zM457 997q-45 -115 -45 -292q0 -457 258 -457q154 0 211 160q43 113 43 294q0 201 -52 318q-59 137 -202 137 q-152 0 -213 -160zM307 1675q117 117 240 117q66 0 135 -33q74 -35 113 -35q57 0 157 86l92 -102q-111 -137 -243 -137q-55 0 -148 35q-92 35 -110 34q-37 0 -76 -22q-23 -12 -68 -49z" />
<glyph unicode="&#xd6;" horiz-adv-x="1351" d="M215 201q-147 209 -147 504q0 303 145 499q162 221 457 221q289 0 446 -215q152 -207 152 -505q0 -291 -133 -488q-162 -238 -465 -237q-297 0 -455 221zM457 997q-45 -115 -45 -292q0 -457 258 -457q154 0 211 160q43 113 43 294q0 201 -52 318q-59 137 -202 137 q-152 0 -213 -160zM758 1610q-33 35 -33 82q0 49 35 84q33 35 82 34q47 0 82 -34q33 -37 32 -84q0 -49 -34 -84q-35 -35 -84 -35q-47 0 -80 37zM426 1610q-33 35 -33 82q0 49 35 84q33 35 82 34q47 0 82 -34q33 -37 33 -84q0 -49 -35 -84t-84 -35q-47 0 -80 37z" />
<glyph unicode="&#xd8;" horiz-adv-x="1351" d="M1077 1266q188 -201 189 -551q0 -301 -146 -510q-156 -225 -467 -225q-139 0 -254 53l-104 -174h-186l155 274q-197 205 -196 565q0 289 139 496q156 231 473 231q150 0 260 -55l76 162h190zM537 285q59 -39 122 -39q262 0 263 491q0 119 -23 211zM807 1118 q-63 43 -131 43q-264 0 -264 -499q0 -125 28 -218z" />
<glyph unicode="&#xd9;" horiz-adv-x="1351" d="M1229 555q0 -315 -115 -428q-147 -147 -432 -147q-291 0 -430 120q-145 127 -146 455v850h357v-850q0 -164 31 -217q55 -94 211 -94q147 0 202 75q39 55 39 236v850h283v-850zM788 1630l-49 -121l-463 162l62 178z" />
<glyph unicode="&#xda;" horiz-adv-x="1351" d="M1229 555q0 -315 -115 -428q-147 -147 -432 -147q-291 0 -430 120q-145 127 -146 455v850h357v-850q0 -164 31 -217q55 -94 211 -94q147 0 202 75q39 55 39 236v850h283v-850zM1139 1673l-465 -168l-51 123l446 221z" />
<glyph unicode="&#xdb;" horiz-adv-x="1351" d="M1229 555q0 -315 -115 -428q-147 -147 -432 -147q-291 0 -430 120q-145 127 -146 455v850h357v-850q0 -164 31 -217q55 -94 211 -94q147 0 202 75q39 55 39 236v850h283v-850zM868 1544l-178 113l-174 -113h-209l383 307l395 -307h-217z" />
<glyph unicode="&#xdc;" horiz-adv-x="1351" d="M1229 555q0 -315 -115 -428q-147 -147 -432 -147q-291 0 -430 120q-145 127 -146 455v850h357v-850q0 -164 31 -217q55 -94 211 -94q147 0 202 75q39 55 39 236v850h283v-850zM778 1610q-33 35 -33 82q0 49 35 84q33 35 82 34q47 0 82 -34q33 -37 33 -84q0 -49 -35 -84 t-84 -35q-47 0 -80 37zM446 1610q-33 35 -32 82q0 49 35 84q33 35 81 34q47 0 82 -34q33 -37 33 -84q0 -49 -35 -84t-84 -35q-47 0 -80 37z" />
<glyph unicode="&#xdd;" horiz-adv-x="1228" d="M780 592v-592h-327v592l-445 813h381l270 -535l267 535h295zM985 1673l-465 -168l-51 123l446 221z" />
<glyph unicode="&#xde;" horiz-adv-x="1269" d="M455 0h-328v1405h328v-205h200q262 0 379 -80q182 -129 183 -350q0 -229 -152 -356q-119 -98 -399 -99h-211v-315zM639 571q143 0 201 62q45 51 45 125q0 96 -68 147q-51 39 -180 39h-182v-373h184z" />
<glyph unicode="&#xdf;" horiz-adv-x="1351" d="M158 684h-107v217h107q-6 244 151 385q156 139 416 139q162 0 268 -65q156 -92 156 -242q0 -96 -80 -172q-78 -76 -199 -100q-104 -20 -104 -37q0 -16 55 -31q469 -133 469 -420q0 -166 -137 -272q-131 -106 -346 -106q-127 0 -242 38l80 195q121 -35 189 -35 q70 0 116 29q53 35 54 96q0 61 -68 103q-27 16 -186 86q-217 92 -218 241q0 113 113 215q197 39 197 144q0 59 -54 92q-47 31 -112 30q-115 0 -168 -94q-31 -57 -31 -225v-1012h-319v801z" />
<glyph unicode="&#xe0;" d="M735 0q-18 76 -14 162q-127 -182 -332 -182q-145 0 -233 73q-94 80 -95 221q0 221 234 310q90 35 412 65v25q0 104 -27 137q-37 49 -123 49q-78 0 -127 -37q-53 -41 -53 -114l-285 26q20 174 178 258q125 68 318 68q217 0 330 -94q70 -57 88 -148q8 -43 8 -178v-485 q0 -92 20 -156h-299zM707 498q-326 -35 -326 -191q0 -137 133 -137q96 0 152 86q41 61 41 201v41zM768 1266l-49 -121l-463 162l61 178z" />
<glyph unicode="&#xe1;" d="M735 0q-18 76 -14 162q-127 -182 -332 -182q-145 0 -233 73q-94 80 -95 221q0 221 234 310q90 35 412 65v25q0 104 -27 137q-37 49 -123 49q-78 0 -127 -37q-53 -41 -53 -114l-285 26q20 174 178 258q125 68 318 68q217 0 330 -94q70 -57 88 -148q8 -43 8 -178v-485 q0 -92 20 -156h-299zM707 498q-326 -35 -326 -191q0 -137 133 -137q96 0 152 86q41 61 41 201v41zM965 1309l-465 -168l-51 123l446 221z" />
<glyph unicode="&#xe2;" d="M735 0q-18 76 -14 162q-127 -182 -332 -182q-145 0 -233 73q-94 80 -95 221q0 221 234 310q90 35 412 65v25q0 104 -27 137q-37 49 -123 49q-78 0 -127 -37q-53 -41 -53 -114l-285 26q20 174 178 258q125 68 318 68q217 0 330 -94q70 -57 88 -148q8 -43 8 -178v-485 q0 -92 20 -156h-299zM707 498q-326 -35 -326 -191q0 -137 133 -137q96 0 152 86q41 61 41 201v41zM745 1180l-178 112l-174 -112h-209l383 307l396 -307h-218z" />
<glyph unicode="&#xe3;" d="M735 0q-18 76 -14 162q-127 -182 -332 -182q-145 0 -233 73q-94 80 -95 221q0 221 234 310q90 35 412 65v25q0 104 -27 137q-37 49 -123 49q-78 0 -127 -37q-53 -41 -53 -114l-285 26q20 174 178 258q125 68 318 68q217 0 330 -94q70 -57 88 -148q8 -43 8 -178v-485 q0 -92 20 -156h-299zM707 498q-326 -35 -326 -191q0 -137 133 -137q96 0 152 86q41 61 41 201v41zM225 1311q117 117 240 116q66 0 135 -32q74 -35 113 -35q57 0 157 86l93 -103q-111 -137 -244 -137q-55 0 -148 35q-92 35 -110 35q-37 0 -76 -23q-23 -12 -68 -49z" />
<glyph unicode="&#xe4;" d="M735 0q-18 76 -14 162q-127 -182 -332 -182q-145 0 -233 73q-94 80 -95 221q0 221 234 310q90 35 412 65v25q0 104 -27 137q-37 49 -123 49q-78 0 -127 -37q-53 -41 -53 -114l-285 26q20 174 178 258q125 68 318 68q217 0 330 -94q70 -57 88 -148q8 -43 8 -178v-485 q0 -92 20 -156h-299zM707 498q-326 -35 -326 -191q0 -137 133 -137q96 0 152 86q41 61 41 201v41zM676 1245q-33 35 -33 82q0 49 35 84q33 35 82 35q47 0 82 -35q33 -37 32 -84q0 -49 -34 -84q-35 -35 -84 -35q-47 0 -80 37zM344 1245q-33 35 -33 82q0 49 35 84q33 35 82 35 q47 0 82 -35q33 -37 33 -84q0 -49 -35 -84t-84 -35q-47 0 -80 37z" />
<glyph unicode="&#xe5;" d="M735 0q-18 76 -14 162q-127 -182 -332 -182q-145 0 -233 73q-94 80 -95 221q0 221 234 310q90 35 412 65v25q0 104 -27 137q-37 49 -123 49q-78 0 -127 -37q-53 -41 -53 -114l-285 26q20 174 178 258q125 68 318 68q217 0 330 -94q70 -57 88 -148q8 -43 8 -178v-485 q0 -92 20 -156h-299zM707 498q-326 -35 -326 -191q0 -137 133 -137q96 0 152 86q41 61 41 201v41zM455 1245q-55 61 -56 141q0 80 54 142q57 61 137 61q84 0 141 -59t57 -144q0 -84 -57 -143q-59 -59 -141 -59q-80 0 -135 61zM670 1386q0 31 -23 56q-23 23 -53 22 q-78 0 -78 -80q0 -31 23 -53q23 -23 53 -22q78 -1 78 77z" />
<glyph unicode="&#xe6;" horiz-adv-x="1679" d="M1335 649q-20 215 -172 215q-166 0 -186 -215h358zM698 498q-324 -16 -323 -191q0 -59 37 -98q37 -37 96 -37q88 0 145 78q45 63 45 205v43zM975 469q-12 -270 192 -270q150 0 181 159l270 -22q-39 -172 -162 -264q-119 -92 -297 -92q-256 0 -395 184 q-139 -184 -373 -184q-150 0 -231 71q-98 84 -99 221q0 221 226 308q111 43 411 69v41q0 98 -24 127q-43 45 -127 45q-160 0 -174 -157l-277 24q16 164 160 254q127 78 301 78q188 0 311 -96q125 96 287 96q246 0 371 -189q96 -147 92 -403h-643z" />
<glyph unicode="&#xe7;" d="M745 645q0 78 -38 129q-43 57 -119 57q-186 0 -187 -296q0 -139 23 -201q39 -106 151 -107q152 0 170 181l287 -17q-18 -184 -143 -295q-121 -109 -305 -114l-25 -64l33 4q66 0 117 -41q53 -45 53 -108q0 -74 -62 -123q-57 -43 -135 -43q-115 0 -219 65l33 82 q78 -47 151 -47q72 0 72 57q0 76 -115 76l-59 -4l55 152q-199 20 -313 166q-113 141 -113 356q0 244 138 395q141 156 383 156q184 0 311 -109q129 -111 143 -290z" />
<glyph unicode="&#xe8;" d="M377 469l-2 -51q0 -96 51 -158q55 -66 149 -65q72 0 127 45q57 49 58 118l278 -20q0 -82 -104 -199q-143 -160 -369 -159q-231 0 -372 147q-141 145 -142 379q0 240 131 393q139 162 375 162q248 0 381 -184q111 -152 106 -408h-667zM743 647q-12 217 -174 217 q-176 0 -194 -217h368zM768 1266l-49 -121l-463 162l61 178z" />
<glyph unicode="&#xe9;" d="M377 469l-2 -51q0 -96 51 -158q55 -66 149 -65q72 0 127 45q57 49 58 118l278 -20q0 -82 -104 -199q-143 -160 -369 -159q-231 0 -372 147q-141 145 -142 379q0 240 131 393q139 162 375 162q248 0 381 -184q111 -152 106 -408h-667zM743 647q-12 217 -174 217 q-176 0 -194 -217h368zM852 1309l-465 -168l-51 123l446 221z" />
<glyph unicode="&#xea;" d="M377 469l-2 -51q0 -96 51 -158q55 -66 149 -65q72 0 127 45q57 49 58 118l278 -20q0 -82 -104 -199q-143 -160 -369 -159q-231 0 -372 147q-141 145 -142 379q0 240 131 393q139 162 375 162q248 0 381 -184q111 -152 106 -408h-667zM743 647q-12 217 -174 217 q-176 0 -194 -217h368zM725 1180l-178 112l-174 -112h-209l383 307l395 -307h-217z" />
<glyph unicode="&#xeb;" d="M377 469l-2 -51q0 -96 51 -158q55 -66 149 -65q72 0 127 45q57 49 58 118l278 -20q0 -82 -104 -199q-143 -160 -369 -159q-231 0 -372 147q-141 145 -142 379q0 240 131 393q139 162 375 162q248 0 381 -184q111 -152 106 -408h-667zM743 647q-12 217 -174 217 q-176 0 -194 -217h368zM635 1245q-33 35 -33 82q0 49 35 84q33 35 82 35q47 0 82 -35q33 -37 33 -84q0 -49 -35 -84t-84 -35q-47 0 -80 37zM303 1245q-33 35 -33 82q0 49 35 84q33 35 82 35q47 0 82 -35q33 -37 33 -84q0 -49 -35 -84t-84 -35q-47 0 -80 37z" />
<glyph unicode="&#xec;" horiz-adv-x="532" d="M414 0h-301v1040h301v-1040zM461 1266l-49 -121l-463 162l61 178z" />
<glyph unicode="&#xed;" horiz-adv-x="532" d="M414 0h-301v1040h301v-1040zM586 1309l-465 -168l-51 123l446 221z" />
<glyph unicode="&#xee;" horiz-adv-x="532" d="M414 0h-301v1040h301v-1040zM438 1180l-178 112l-174 -112h-209l383 307l395 -307h-217z" />
<glyph unicode="&#xef;" horiz-adv-x="532" d="M414 0h-301v1040h301v-1040zM348 1245q-33 35 -33 82q0 49 35 84q33 35 82 35q47 0 82 -35q33 -37 33 -84q0 -49 -35 -84t-84 -35q-47 0 -80 37zM16 1245q-33 35 -32 82q0 49 34 84q33 35 82 35q47 0 82 -35q33 -37 33 -84q0 -49 -35 -84t-84 -35q-47 0 -80 37z" />
<glyph unicode="&#xf0;" d="M387 553q0 -154 21 -231q39 -141 149 -142q178 0 178 330q0 170 -33 258q-35 94 -143 94q-172 0 -172 -309zM817 1282q225 -360 225 -672q0 -631 -485 -630q-231 0 -367 157q-127 150 -127 385q0 227 107 367q121 158 352 158q96 0 166 -64q-45 117 -98 207l-281 -113 l-65 146l256 102q6 -10 -49 70l215 90q39 -43 57 -70l309 125l66 -145z" />
<glyph unicode="&#xf1;" d="M102 1040h285v-176h4q90 197 299 197q172 0 256 -115q57 -78 58 -303v-643h-302v559q0 131 -12 172q-27 90 -125 90q-86 0 -127 -78q-35 -68 -35 -184v-559h-301v1040zM184 1311q117 117 240 116q66 0 135 -32q74 -35 113 -35q57 0 157 86l93 -103q-111 -137 -244 -137 q-55 0 -148 35q-92 35 -110 35q-37 0 -76 -23q-23 -12 -68 -49z" />
<glyph unicode="&#xf2;" d="M922 901q129 -150 129 -389q0 -227 -136 -377q-141 -156 -366 -155q-231 0 -367 157q-127 150 -127 385q0 236 127 383q135 156 367 156q236 0 373 -160zM379 553q0 -154 20 -231q39 -141 150 -142q178 0 178 330q0 170 -33 258q-35 94 -143 94q-172 0 -172 -309z M768 1266l-49 -121l-463 162l61 178z" />
<glyph unicode="&#xf3;" d="M922 901q129 -150 129 -389q0 -227 -136 -377q-141 -156 -366 -155q-231 0 -367 157q-127 150 -127 385q0 236 127 383q135 156 367 156q236 0 373 -160zM379 553q0 -154 20 -231q39 -141 150 -142q178 0 178 330q0 170 -33 258q-35 94 -143 94q-172 0 -172 -309z M852 1309l-465 -168l-51 123l446 221z" />
<glyph unicode="&#xf4;" d="M922 901q129 -150 129 -389q0 -227 -136 -377q-141 -156 -366 -155q-231 0 -367 157q-127 150 -127 385q0 236 127 383q135 156 367 156q236 0 373 -160zM379 553q0 -154 20 -231q39 -141 150 -142q178 0 178 330q0 170 -33 258q-35 94 -143 94q-172 0 -172 -309z M725 1180l-178 112l-174 -112h-209l383 307l395 -307h-217z" />
<glyph unicode="&#xf5;" d="M922 901q129 -150 129 -389q0 -227 -136 -377q-141 -156 -366 -155q-231 0 -367 157q-127 150 -127 385q0 236 127 383q135 156 367 156q236 0 373 -160zM379 553q0 -154 20 -231q39 -141 150 -142q178 0 178 330q0 170 -33 258q-35 94 -143 94q-172 0 -172 -309z M184 1311q117 117 240 116q66 0 135 -32q74 -35 113 -35q57 0 157 86l93 -103q-111 -137 -244 -137q-55 0 -148 35q-92 35 -110 35q-37 0 -76 -23q-23 -12 -68 -49z" />
<glyph unicode="&#xf6;" d="M922 901q129 -150 129 -389q0 -227 -136 -377q-141 -156 -366 -155q-231 0 -367 157q-127 150 -127 385q0 236 127 383q135 156 367 156q236 0 373 -160zM379 553q0 -154 20 -231q39 -141 150 -142q178 0 178 330q0 170 -33 258q-35 94 -143 94q-172 0 -172 -309z M635 1245q-33 35 -33 82q0 49 35 84q33 35 82 35q47 0 82 -35q33 -37 33 -84q0 -49 -35 -84t-84 -35q-47 0 -80 37zM303 1245q-33 35 -33 82q0 49 35 84q33 35 82 35q47 0 82 -35q33 -37 33 -84q0 -49 -35 -84t-84 -35q-47 0 -80 37z" />
<glyph unicode="&#xf7;" horiz-adv-x="1228" d="M119 713h991v-246h-991v246zM492 94v246h245v-246h-245zM492 840v245h245v-245h-245z" />
<glyph unicode="&#xf8;" d="M651 831q-33 31 -100 31q-172 0 -172 -309q0 -115 10 -180zM459 213q39 -33 90 -33q178 0 178 330q0 94 -10 164zM872 950q178 -154 179 -438q0 -227 -136 -377q-141 -156 -366 -155q-115 0 -201 38l-80 -143h-162l121 215q-172 150 -172 432q0 236 127 383 q135 156 367 156q117 0 209 -41l78 135h153z" />
<glyph unicode="&#xf9;" d="M715 0v178h-4q-74 -199 -297 -198q-180 0 -254 116q-51 80 -51 289v655h301v-655q0 -80 18 -113q25 -51 96 -51q109 0 152 101q16 37 16 159v559h301v-1040h-278zM643 1266l-49 -121l-463 162l62 178z" />
<glyph unicode="&#xfa;" d="M715 0v178h-4q-74 -199 -297 -198q-180 0 -254 116q-51 80 -51 289v655h301v-655q0 -80 18 -113q25 -51 96 -51q109 0 152 101q16 37 16 159v559h301v-1040h-278zM963 1309l-465 -168l-52 123l447 221z" />
<glyph unicode="&#xfb;" d="M715 0v178h-4q-74 -199 -297 -198q-180 0 -254 116q-51 80 -51 289v655h301v-655q0 -80 18 -113q25 -51 96 -51q109 0 152 101q16 37 16 159v559h301v-1040h-278zM723 1180l-178 112l-174 -112h-209l383 307l395 -307h-217z" />
<glyph unicode="&#xfc;" d="M715 0v178h-4q-74 -199 -297 -198q-180 0 -254 116q-51 80 -51 289v655h301v-655q0 -80 18 -113q25 -51 96 -51q109 0 152 101q16 37 16 159v559h301v-1040h-278zM633 1245q-33 35 -33 82q0 49 35 84q33 35 82 35q47 0 82 -35q33 -37 32 -84q0 -49 -34 -84 q-35 -35 -84 -35q-47 0 -80 37zM301 1245q-33 35 -33 82q0 49 35 84q33 35 82 35q47 0 82 -35q33 -37 33 -84q0 -49 -35 -84t-84 -35q-47 0 -80 37z" />
<glyph unicode="&#xfd;" horiz-adv-x="983" d="M647 66q-80 -240 -125 -304q-92 -125 -289 -124q-74 0 -147 12v235q94 -14 152 -14q76 0 110 29q35 27 55 100l-378 1040h325l199 -618l190 618h226zM954 1309l-465 -168l-51 123l447 221z" />
<glyph unicode="&#xfe;" d="M420 481q0 -164 29 -211q49 -78 135 -77q162 0 161 333q0 322 -159 322q-92 0 -135 -84q-31 -55 -31 -180v-103zM420 1405v-518h4q55 174 252 174q201 0 307 -180q78 -131 78 -363q0 -223 -84 -364q-104 -174 -313 -174q-176 0 -240 135h-4v-465h-301v1755h301z" />
<glyph unicode="&#xff;" horiz-adv-x="983" d="M647 66q-80 -240 -125 -304q-92 -125 -289 -124q-74 0 -147 12v235q94 -14 152 -14q76 0 110 29q35 27 55 100l-378 1040h325l199 -618l190 618h226zM614 1245q-33 35 -32 82q0 49 34 84q33 35 82 35q47 0 82 -35q33 -37 33 -84q0 -49 -35 -84t-84 -35q-47 0 -80 37z M283 1245q-33 35 -33 82q0 49 35 84q33 35 82 35q47 0 82 -35q33 -37 32 -84q0 -49 -35 -84t-84 -35q-46 0 -79 37z" />
<glyph unicode="&#x131;" horiz-adv-x="532" d="M414 0h-301v1040h301v-1040z" />
<glyph unicode="&#x141;" horiz-adv-x="1064" d="M137 698v707h328v-422l172 168v-223l-172 -170v-477h567v-281h-895v483l-114 -112v211z" />
<glyph unicode="&#x142;" horiz-adv-x="532" d="M414 836v-836h-301v535l-99 -86v186l99 98v672h301v-375l102 92v-184z" />
<glyph unicode="&#x152;" horiz-adv-x="1966" d="M1194 1133v-285h528v-264h-528v-312h661v-272h-997q-57 -12 -96 -16q-61 -4 -92 -4q-297 0 -455 221q-147 209 -147 504q0 303 145 499q162 221 457 221q100 0 188 -20h997v-272h-661zM866 1055q-63 100 -196 102q-152 0 -213 -160q-45 -115 -45 -292q0 -457 258 -457 q129 0 196 108v699z" />
<glyph unicode="&#x153;" horiz-adv-x="1761" d="M1405 649q-18 217 -182 217q-172 0 -189 -217h371zM387 508q0 -330 186 -330q178 0 179 342q0 338 -181 338q-184 0 -184 -350zM1034 469q-12 -270 195 -270q170 0 188 159l279 -22q-33 -168 -162 -264q-125 -92 -301 -92q-190 0 -336 104q-143 -104 -332 -104 q-233 0 -370 157q-131 150 -132 387q0 238 136 385q137 152 372 152q188 0 326 -109q152 109 317 109q244 0 379 -170q106 -135 103 -422h-662z" />
<glyph unicode="&#x178;" horiz-adv-x="1228" d="M780 592v-592h-327v592l-445 813h381l270 -535l267 535h295zM737 1610q-33 35 -32 82q0 49 34 84q33 35 82 34q47 0 82 -34q33 -37 33 -84q0 -49 -35 -84t-84 -35q-47 0 -80 37zM406 1610q-33 35 -33 82q0 49 35 84q33 35 81 34q47 0 82 -34q33 -37 33 -84q0 -49 -35 -84 t-84 -35q-46 0 -79 37z" />
<glyph unicode="&#x192;" horiz-adv-x="1228" d="M543 1071q45 236 119 326q96 123 311 123l157 -15l-38 -231q-70 12 -103 12q-88 0 -115 -67q-10 -25 -18 -70l-14 -78h188l-35 -199h-184l-135 -759q-37 -205 -94 -279q-104 -135 -330 -135l-154 14l41 234l103 -10q84 0 112 49q14 27 31 127l127 759h-129l43 199h117z " />
<glyph unicode="&#x2c6;" horiz-adv-x="1024" d="M684 1180l-178 112l-174 -112h-209l383 307l395 -307h-217z" />
<glyph unicode="&#x2c7;" horiz-adv-x="1064" d="M537 1180l-396 307h219l177 -117l174 117h211z" />
<glyph unicode="&#x2d8;" horiz-adv-x="1064" d="M334 1425q33 -37 96 -57q55 -18 111 -18q117 0 188 75h184q-94 -231 -383 -231q-276 0 -378 231h182z" />
<glyph unicode="&#x2d9;" horiz-adv-x="532" d="M182 1245q-33 35 -32 82q0 49 34 84q33 35 82 35q47 0 82 -35q33 -37 33 -84q0 -49 -35 -84t-84 -35q-47 0 -80 37z" />
<glyph unicode="&#x2da;" horiz-adv-x="655" d="M188 1184q-55 61 -55 141t53 141q57 61 138 62q84 0 141 -60q57 -59 57 -143t-57 -143q-59 -59 -141 -60q-81 1 -136 62zM403 1325q0 31 -22 55q-23 23 -53 23q-78 0 -78 -80q0 -31 22 -53q23 -23 54 -23q77 0 77 78z" />
<glyph unicode="&#x2db;" horiz-adv-x="696" d="M342 0q-45 -49 -45 -96q0 -76 90 -76q53 0 125 41l33 -84q-109 -59 -213 -59q-74 0 -125 34q-57 37 -57 107q0 57 63 133h129z" />
<glyph unicode="&#x2dc;" horiz-adv-x="1024" d="M143 1311q117 117 240 116q66 0 135 -32q74 -35 113 -35q57 0 157 86l93 -103q-111 -137 -244 -137q-55 0 -148 35q-92 35 -110 35q-37 0 -76 -23q-23 -12 -67 -49z" />
<glyph unicode="&#x2dd;" horiz-adv-x="1064" d="M575 1360l-333 -346l-101 86l293 387zM926 1360l-332 -346l-102 86l292 387z" />
<glyph unicode="&#x3a9;" horiz-adv-x="1564" d="M379 229q-268 213 -268 545q0 268 186 451q193 190 489 190q303 0 492 -201q172 -182 172 -430q0 -346 -272 -555v-6h303v-223h-594v168q272 160 272 559q0 193 -96 322q-104 139 -277 139q-170 0 -276 -133q-106 -131 -107 -338q0 -199 82 -348q74 -139 193 -201v-168 h-596v223h297v6z" />
<glyph unicode="&#x3c0;" horiz-adv-x="1314" d="M1114 815v-502q0 -195 27 -313h-281q-37 57 -37 297v518h-288q-18 -512 -134 -815h-282q127 408 131 815q-139 0 -213 -20l-31 182q86 70 361 70h919l-22 -232h-150z" />
<glyph unicode="&#x2000;" horiz-adv-x="956" />
<glyph unicode="&#x2001;" horiz-adv-x="1913" />
<glyph unicode="&#x2002;" horiz-adv-x="956" />
<glyph unicode="&#x2003;" horiz-adv-x="1913" />
<glyph unicode="&#x2004;" horiz-adv-x="637" />
<glyph unicode="&#x2005;" horiz-adv-x="478" />
<glyph unicode="&#x2006;" horiz-adv-x="318" />
<glyph unicode="&#x2007;" horiz-adv-x="318" />
<glyph unicode="&#x2008;" horiz-adv-x="239" />
<glyph unicode="&#x2009;" horiz-adv-x="382" />
<glyph unicode="&#x200a;" horiz-adv-x="106" />
<glyph unicode="&#x2010;" horiz-adv-x="491" d="M479 639v-225h-479v225h479z" />
<glyph unicode="&#x2011;" horiz-adv-x="491" d="M479 639v-225h-479v225h479z" />
<glyph unicode="&#x2012;" horiz-adv-x="491" d="M479 639v-225h-479v225h479z" />
<glyph unicode="&#x2013;" horiz-adv-x="1024" d="M1024 639v-225h-1024v225h1024z" />
<glyph unicode="&#x2014;" horiz-adv-x="2048" d="M2048 639v-225h-2048v225h2048z" />
<glyph unicode="&#x2018;" horiz-adv-x="614" d="M324 1126h143v-295h-299v259l184 315h115z" />
<glyph unicode="&#x2019;" horiz-adv-x="614" d="M311 1112h-143v293h299v-256l-184 -318h-115z" />
<glyph unicode="&#x201a;" horiz-adv-x="614" d="M446 0l-170 -285h-108l145 285h-145v289h278v-289z" />
<glyph unicode="&#x201c;" horiz-adv-x="983" d="M297 1126h143v-295h-299v259l185 315h114zM698 1126h144v-295h-299v259l184 315h115z" />
<glyph unicode="&#x201d;" horiz-adv-x="983" d="M543 831l143 281h-143v293h299v-256l-185 -318h-114zM141 831l144 281h-144v293h299v-256l-184 -318h-115z" />
<glyph unicode="&#x201e;" horiz-adv-x="983" d="M834 0l-175 -285h-108l139 285h-139v289h283v-289zM428 0l-170 -285h-108l145 285h-145v289h278v-289z" />
<glyph unicode="&#x2020;" horiz-adv-x="1228" d="M551 -350l-12 327l-41 512l-47 271q55 37 100 104l-436 -76l24 138l-24 135l436 -80l-80 424l141 -25l154 25l-88 -424l434 80l-25 -135l25 -138l-434 76q41 -76 88 -104q-72 -379 -88 -1110h-127z" />
<glyph unicode="&#x2021;" horiz-adv-x="1228" d="M670 559q25 -37 90 -98l18 -17l-73 -333l-37 -390l2 -71h-111l-2 22q-33 514 -111 772q33 16 113 115l-440 -74l20 140l-20 133l440 -80l-67 121l45 96l-418 -74l20 133l-20 140l418 -78l-70 389l145 -23l144 23l-86 -389l438 78l-23 -140l23 -133l-438 74l61 -96 l-61 -121l438 80l-23 -133l23 -140z" />
<glyph unicode="&#x2022;" horiz-adv-x="1228" d="M827 492q-88 -86 -213 -86t-211 86t-86 210q-2 125 84 213q88 86 213 86t213 -86q88 -88 88 -213q0 -124 -88 -210z" />
<glyph unicode="&#x2026;" horiz-adv-x="2048" d="M180 0v317h322v-317h-322zM862 0v317h322v-317h-322zM1544 0v317h322v-317h-322z" />
<glyph unicode="&#x202f;" horiz-adv-x="382" />
<glyph unicode="&#x2030;" horiz-adv-x="2129" d="M1030 1405h158l-780 -1405h-162zM995 362q0 -231 101 -231q104 0 104 223q0 111 -14 168q-20 74 -90 74q-101 -1 -101 -234zM244 1044q0 -231 100 -231q104 0 105 223q0 111 -15 168q-20 74 -90 74q-100 -1 -100 -234zM874 115q-68 98 -67 247q0 150 67 248 q80 113 222 113q143 0 223 -111q70 -98 70 -250t-70 -249q-78 -113 -223 -113q-142 0 -222 115zM123 797q-68 98 -68 247q0 150 68 248q80 113 221 113q143 0 223 -111q70 -98 70 -250t-70 -249q-78 -113 -223 -113q-141 0 -221 115zM1563 115q-68 98 -68 247q0 150 68 248 q80 113 221 113q143 0 223 -111q70 -98 70 -250t-70 -249q-78 -113 -223 -113q-141 0 -221 115zM1683 362q0 -231 101 -231q104 0 104 223q0 111 -14 168q-20 74 -90 74q-101 -1 -101 -234z" />
<glyph unicode="&#x2039;" horiz-adv-x="532" d="M125 590l176 301h105l-105 -301l105 -295h-105z" />
<glyph unicode="&#x203a;" horiz-adv-x="532" d="M229 295h-104l104 295l-104 301h104l177 -301z" />
<glyph unicode="&#x2044;" horiz-adv-x="163" d="M371 1405h198l-780 -1405h-197z" />
<glyph unicode="&#x205f;" horiz-adv-x="478" />
<glyph unicode="&#x20ac;" horiz-adv-x="1228" d="M795 514h-281q37 -295 217 -295q141 0 197 191l286 -19q-45 -219 -196 -325q-123 -86 -289 -86q-215 0 -362 147q-143 143 -187 387h-176l27 164h133v24q0 49 2 74h-162l27 164h159q51 221 193 350q145 135 354 135q385 0 480 -417l-306 -23q-12 76 -53 135 q-51 70 -117 70q-166 0 -217 -250h340l-26 -164h-332q-2 -33 -2 -98h317z" />
<glyph unicode="&#x2122;" horiz-adv-x="2048" d="M1896 578h-180v667h-4l-239 -667h-107l-240 667h-4v-667h-180v827h291l186 -490l187 490h290v-827zM854 1245h-252v-667h-199v667h-251v160h702v-160z" />
<glyph unicode="&#x2202;" horiz-adv-x="1251" d="M135 1456q176 121 408 121q260 0 430 -199q180 -213 180 -569q0 -369 -166 -592q-170 -229 -455 -229q-217 0 -346 162q-113 139 -112 315q0 231 135 379q131 143 334 143q219 0 325 -172h2q2 16 2 64q0 195 -98 329q-104 141 -268 142q-156 0 -289 -95zM563 215 q111 0 191 125q72 106 90 254q-18 59 -78 111q-72 63 -162 63q-106 0 -176 -92q-70 -90 -70 -217q0 -102 56 -172q57 -72 147 -72h2z" />
<glyph unicode="&#x2206;" horiz-adv-x="1433" d="M53 158l496 1265h346l483 -1263v-160h-1325v158zM1061 223l-234 582q-14 51 -61 180q-43 123 -55 166h-6q-10 -37 -48 -145l-59 -170l-244 -613h707z" />
<glyph unicode="&#x220f;" horiz-adv-x="1560" d="M1288 1145v-1338h-280v1338h-457v-1338h-281v1338h-223v248h1464v-248h-223z" />
<glyph unicode="&#x2211;" horiz-adv-x="1214" d="M47 -193v170l514 621l-493 604v191h1073v-238h-684v-6l428 -512l-473 -571v-7h766v-252h-1131z" />
<glyph unicode="&#x221a;" horiz-adv-x="1282" d="M819 -285h-225l-326 869l-157 -62l-48 148l373 151l226 -641l45 -170l4 -2q16 98 34 185l367 1474h199z" />
<glyph unicode="&#x221e;" horiz-adv-x="1622" d="M1522 573q0 -164 -105 -266q-96 -94 -233 -94q-195 0 -373 233q-190 -233 -383 -233q-133 0 -229 96q-100 102 -101 254q0 158 101 260q98 98 247 99q199 0 375 -228q201 229 375 228q139 0 231 -95q94 -98 95 -252v-2zM451 362q115 0 278 195q-84 115 -125 154 q-76 66 -164 65q-84 0 -137 -59q-51 -59 -51 -154q0 -82 55 -141q57 -59 139 -60h5zM1178 776q-104 0 -281 -205q168 -209 291 -209q80 0 133 68q45 57 45 133q0 94 -51 154q-51 59 -135 59h-2z" />
<glyph unicode="&#x222b;" horiz-adv-x="829" d="M766 1516q-33 16 -78 16q-72 0 -108 -51q-55 -72 -56 -332q0 -158 17 -461q16 -303 16 -487q0 -260 -78 -396q-82 -154 -276 -153q-104 0 -170 33l35 192q57 -23 94 -22q61 0 94 41q59 76 59 305q0 186 -16 497t-16 480q0 326 129 454q86 92 252 92q82 0 131 -24z" />
<glyph unicode="&#x2248;" horiz-adv-x="1177" d="M1098 825q-123 -211 -295 -211q-100 0 -240 82q-115 68 -182 68q-96 0 -205 -148l-100 97q113 209 315 209q96 0 225 -74q121 -74 185 -74q102 0 196 148zM1098 434q-123 -211 -297 -211q-90 0 -238 82q-121 70 -182 70q-96 0 -205 -150l-100 97q113 209 315 208 q94 0 223 -71q135 -76 187 -76q94 0 196 145z" />
<glyph unicode="&#x2260;" horiz-adv-x="1177" d="M788 862h289v-160h-352l-123 -274h475v-160h-540l-107 -239l-127 55l84 184h-287v160h351l122 274h-473v160h537l104 234l127 -54z" />
<glyph unicode="&#x2264;" horiz-adv-x="1177" d="M111 664v172l960 454v-182l-797 -356v-4l799 -359v-182zM102 -31v162h977v-162h-977z" />
<glyph unicode="&#x2265;" horiz-adv-x="1177" d="M1075 834v-172l-960 -455v182l796 359v4l-798 356v182zM104 -31v162h969v-162h-969z" />
<glyph unicode="&#x25ca;" horiz-adv-x="1282" d="M748 -100h-224l-422 794l430 797h224l422 -797zM682 1165q-25 57 -39 109h-6q-20 -63 -41 -109l-246 -465l250 -483q31 -78 37 -104h8q12 57 35 100l250 475z" />
<glyph unicode="&#x25fc;" horiz-adv-x="1044" d="M0 1044h1044v-1044h-1044v1044z" />
<glyph unicode="&#xfb01;" horiz-adv-x="1146" d="M1049 0h-301v1040h301v-1040zM1049 1118h-301v307h301v-307zM653 1182q-45 6 -114 6q-66 0 -84 -43q-12 -27 -13 -109v-22h185v-234h-185v-780h-301v780h-121v234h121q0 205 47 276q92 137 293 137q98 0 172 -14v-231z" />
<glyph unicode="&#xfb02;" horiz-adv-x="1146" d="M745 1405h302v-1405h-302v1405zM653 1182q-45 6 -114 6q-66 0 -84 -43q-12 -27 -13 -109v-22h185v-234h-185v-780h-301v780h-121v234h121q0 205 47 276q92 137 293 137q98 0 172 -14v-231z" />
</font>
</defs>
</svg>
