<?xml version="1.0" standalone="no"?>
<!DOCTYPE svg PUBLIC "-//W3C//DTD SVG 1.1//EN" "http://www.w3.org/Graphics/SVG/1.1/DTD/svg11.dtd" >
<svg xmlns="http://www.w3.org/2000/svg">
<metadata></metadata>
<defs>
<font id="itc_franklin_gothic_stdbook" horiz-adv-x="1105" >
<font-face units-per-em="2048" ascent="1638" descent="-410" />
<missing-glyph horiz-adv-x="614" />
<glyph horiz-adv-x="0" />
<glyph horiz-adv-x="682" />
<glyph unicode=" "  horiz-adv-x="614" />
<glyph unicode="&#x09;" horiz-adv-x="614" />
<glyph unicode="&#xa0;" horiz-adv-x="614" />
<glyph unicode="!" horiz-adv-x="614" d="M406 219v-219h-216v219h216zM252 350l-74 1055h242l-80 -1055h-88z" />
<glyph unicode="&#x22;" horiz-adv-x="942" d="M403 1405v-227l-55 -277h-82l-55 277v227h192zM729 1405v-227l-55 -277h-82l-55 277v227h192z" />
<glyph unicode="#" horiz-adv-x="1228" d="M612 1405l-73 -397h274l72 397h141l-72 -397h201v-129h-231l-56 -326h219v-129h-251l-78 -424h-135l75 424h-272l-82 -424h-133l76 424h-213v129h243l56 326h-223v129h251l74 397h137zM457 553h272l55 326h-272z" />
<glyph unicode="$" horiz-adv-x="1228" d="M561 -154v197q-346 35 -440 324l139 53q78 -221 301 -234v478q-141 33 -227 79q-156 90 -156 271q0 317 383 366v170h125v-170q305 -25 397 -270l-139 -47q-53 172 -258 182v-440q172 -37 254 -84q170 -100 170 -301q0 -176 -145 -287q-94 -70 -279 -90v-197h-125z M686 186q104 0 182 58q84 61 84 164q0 193 -266 227v-449zM561 1245q-94 -4 -160 -57q-74 -57 -73 -150q0 -170 233 -215v422z" />
<glyph unicode="%" horiz-adv-x="1433" d="M1309 596q68 -98 71 -252q0 -147 -69 -248q-80 -117 -221 -116q-141 0 -222 116q-70 100 -69 248q0 152 67 252q78 115 219 115q146 0 224 -115zM924 344q0 -260 166 -260t165 260q-8 262 -170 262q-161 0 -161 -262zM563 1311q68 -98 72 -252q0 -147 -70 -248 q-80 -117 -221 -117t-221 117q-70 100 -70 248q0 152 68 252q78 115 219 114q145 1 223 -114zM178 1059q0 -260 166 -260t166 260q-8 262 -170 262t-162 -262zM217 0l850 1405h150l-850 -1405h-150z" />
<glyph unicode="&#x26;" horiz-adv-x="1392" d="M514 715q-254 -113 -254 -309q0 -141 90 -220q86 -74 230 -73q162 0 274 110zM586 872l78 39q158 86 157 209q0 78 -55 127t-135 49q-72 0 -119 -45q-49 -47 -49 -116q0 -70 123 -263zM1321 8q-90 -14 -156 -14q-100 0 -231 125q-168 -139 -377 -139q-186 0 -313 96 q-160 121 -160 317q0 287 362 428q-133 186 -133 307q0 133 90 215q86 82 224 82q141 0 231 -77q96 -80 96 -220q0 -223 -297 -356l297 -448q147 178 191 444l151 -31q-66 -305 -260 -520q68 -74 154 -74q68 0 131 11v-146z" />
<glyph unicode="'" horiz-adv-x="614" d="M403 1405v-227l-55 -277h-82l-55 277v227h192z" />
<glyph unicode="(" horiz-adv-x="614" d="M408 -350q-305 379 -306 880q0 473 304 875h106q-258 -385 -258 -866q0 -479 260 -889h-106z" />
<glyph unicode=")" horiz-adv-x="614" d="M100 -350q260 410 260 889q0 481 -258 866h107q303 -401 303 -875q0 -502 -305 -880h-107z" />
<glyph unicode="*" horiz-adv-x="1228" d="M664 893l16 -350h-121l14 350l-301 -188l-63 104l313 164l-313 164l63 104l301 -188l-14 352h121l-16 -352l299 188l57 -104l-318 -164l318 -164l-57 -104z" />
<glyph unicode="+" horiz-adv-x="1228" d="M680 1120v-463h463v-133h-463v-463h-133v463h-463v133h463v463h133z" />
<glyph unicode="," horiz-adv-x="614" d="M436 25l-153 -289h-88l122 264h-106v236h225v-211z" />
<glyph unicode="-" horiz-adv-x="450" d="M436 463h-436v127h436v-127z" />
<glyph unicode="." horiz-adv-x="614" d="M430 0h-227v231h227v-231z" />
<glyph unicode="/" horiz-adv-x="1064" d="M88 -350h-137l846 1755h139z" />
<glyph unicode="0" horiz-adv-x="1228" d="M207 219q-125 201 -125 481q0 283 117 484q141 242 405 241q276 0 422 -243q121 -203 121 -486q0 -272 -123 -475q-145 -242 -403 -241q-267 -1 -414 239zM899 311q68 145 68 361q0 240 -66 397q-92 221 -297 221q-193 0 -278 -207q-63 -147 -64 -370q0 -233 66 -385 q90 -213 293 -213q188 -1 278 196z" />
<glyph unicode="1" horiz-adv-x="1228" d="M1139 0h-983v129h419v1063q-182 -193 -387 -299v174q279 143 430 338h127v-1276h394v-129z" />
<glyph unicode="2" horiz-adv-x="1228" d="M1100 0h-998v145l570 447q250 221 250 414q0 125 -101 204q-92 74 -219 74q-135 0 -231 -92q-98 -94 -105 -227l-164 49q39 193 174 301q133 111 332 110q195 0 336 -110q154 -119 154 -309q0 -246 -307 -504l-465 -357h774v-145z" />
<glyph unicode="3" horiz-adv-x="1228" d="M408 662v137h135q150 0 225 37q127 61 127 202q0 119 -90 189q-82 61 -207 61q-254 0 -328 -227l-157 45q121 319 499 319q188 0 318 -92q143 -104 143 -284q0 -115 -80 -203q-78 -86 -190 -105v-4q143 -20 231 -110q94 -94 94 -234q0 -195 -159 -307 q-145 -106 -373 -106q-186 0 -326 83q-152 88 -209 256l164 56q72 -254 367 -254q137 0 221 45q133 74 133 227q0 135 -123 209q-94 59 -280 60h-135z" />
<glyph unicode="4" horiz-adv-x="1228" d="M762 0v328h-692v116l643 961h219v-942h229v-135h-229v-328h-170zM762 1268l-510 -805h510v805z" />
<glyph unicode="5" horiz-adv-x="1228" d="M1024 1253h-690l-31 -452q156 152 338 151q207 0 348 -135q141 -137 141 -342q0 -225 -159 -364q-152 -131 -381 -131q-166 0 -301 86q-145 94 -191 245l152 51q88 -244 344 -243q166 0 266 96t101 262q0 143 -93 238q-92 96 -237 96q-215 0 -332 -190l-139 28l47 756 h831z" />
<glyph unicode="6" horiz-adv-x="1228" d="M956 1071q-80 211 -292 211q-410 0 -410 -647h4q49 127 164 205q117 78 256 78q195 0 328 -134q131 -133 131 -325q0 -205 -146 -344q-143 -135 -352 -135q-272 0 -420 217q-127 186 -127 469q0 291 115 497q145 262 457 262q344 0 450 -311zM874 215q98 94 99 236 q0 135 -92 231q-94 96 -230 96q-145 0 -250 -100q-106 -100 -106 -244q0 -135 111 -229q90 -84 229 -84q143 0 239 94z" />
<glyph unicode="7" horiz-adv-x="1228" d="M408 0q-2 674 495 1251h-762l19 154h927v-107q-221 -266 -352 -567q-147 -342 -147 -684v-47h-180z" />
<glyph unicode="8" horiz-adv-x="1228" d="M600 655q-356 -74 -356 -293q0 -135 129 -200q100 -51 250 -51q135 0 235 53q125 63 125 186q0 201 -383 305zM141 1063q0 180 160 278q135 84 328 84q178 0 297 -69q170 -98 170 -279q0 -229 -273 -323q158 -72 230 -140q104 -98 104 -237q0 -199 -174 -305 q-147 -92 -360 -92q-205 0 -340 73q-211 109 -211 307q0 242 334 369q-265 98 -265 334zM422 903q82 -61 196 -88q145 41 211 80q113 68 113 174q0 225 -311 225q-119 0 -205 -47q-106 -59 -107 -168q1 -100 103 -176z" />
<glyph unicode="9" horiz-adv-x="1228" d="M268 311q74 -193 299 -192q219 0 326 215q82 166 80 405h-4q-133 -250 -412 -250q-199 0 -330 132q-133 131 -133 327q0 203 142 340q141 137 346 137q289 0 432 -211q121 -180 121 -479q0 -307 -125 -510q-152 -246 -443 -245q-342 0 -440 280zM836 727q100 98 100 231 q0 143 -96 236q-96 88 -244 88q-150 0 -242 -94t-92 -242q0 -141 98 -231q96 -86 240 -86q136 0 236 98z" />
<glyph unicode=":" horiz-adv-x="614" d="M430 0h-227v231h227v-231zM430 809h-227v231h227v-231z" />
<glyph unicode=";" horiz-adv-x="614" d="M436 25l-153 -289h-88l122 264h-106v236h225v-211zM436 809h-227v231h227v-231z" />
<glyph unicode="&#x3c;" horiz-adv-x="1228" d="M1114 922l-809 -332l809 -332v-127l-1001 424v70l1001 424v-127z" />
<glyph unicode="=" horiz-adv-x="1228" d="M84 856h1059v-133h-1059v133zM84 459h1059v-133h-1059v133z" />
<glyph unicode="&#x3e;" horiz-adv-x="1228" d="M1114 555l-1001 -424v127l800 332l-800 332v127l1001 -424v-70z" />
<glyph unicode="?" d="M455 348v88q0 119 18 170q27 76 115 125l90 51q172 96 172 246q0 119 -86 189q-80 63 -203 63q-268 0 -315 -301l-154 33q31 197 156 305q125 109 325 108q190 0 320 -100q139 -111 139 -295q0 -233 -262 -368q-109 -57 -135 -87q-33 -37 -33 -137v-90h-147zM639 0h-209 v201h209v-201z" />
<glyph unicode="@" horiz-adv-x="1638" d="M1130 602q-27 -92 -26 -104q2 -76 78 -76q102 0 194 127q98 131 99 293q0 164 -152 301q-170 156 -432 164q-252 8 -463 -213q-213 -223 -182 -471q37 -326 329 -459q279 -127 594 -4l48 -111q-197 -70 -383 -69q-264 0 -474 155q-223 166 -251 424q-41 352 213 619 q256 264 626 247q244 -12 434 -163q207 -166 220 -402q10 -233 -134 -399q-135 -154 -299 -154q-184 0 -194 123q-94 -86 -150 -104q-43 -14 -88 -15q-111 0 -186 92q-74 88 -74 205q0 238 199 389q106 78 225 76q150 0 199 -147l37 108h135zM897 961q-88 0 -172 -89 q-98 -104 -98 -254q0 -82 43 -137q47 -63 123 -63q90 0 161 110q100 156 86 308q-10 125 -143 125z" />
<glyph unicode="A" horiz-adv-x="1146" d="M1130 0h-180l-141 410h-520l-125 -410h-148l455 1405h203zM555 1217l-217 -674h432z" />
<glyph unicode="B" horiz-adv-x="1269" d="M686 150q154 0 225 57q88 68 88 188q0 139 -102 219q-68 53 -235 54h-320v-518h344zM614 803q186 0 256 53q88 63 88 184q0 123 -104 187q-61 35 -195 35h-317v-459h272zM166 0v1405h530q188 0 289 -66q147 -100 148 -276q0 -256 -248 -315v-5q131 -29 211 -125t80 -231 q0 -190 -136 -297q-115 -90 -346 -90h-528z" />
<glyph unicode="C" horiz-adv-x="1269" d="M1178 438q-113 -459 -521 -458q-283 0 -438 239q-133 203 -133 498q0 297 139 489q160 219 447 219q203 0 338 -127q123 -117 168 -321l-166 -31q-92 332 -346 332q-207 0 -308 -197q-80 -154 -79 -379q0 -207 65 -350q102 -225 313 -225q276 0 361 346z" />
<glyph unicode="D" horiz-adv-x="1351" d="M174 1405h444q315 0 484 -199q170 -199 170 -499q0 -279 -146 -484q-160 -223 -450 -223h-502v1405zM608 150q266 0 383 178q102 156 103 379q0 248 -129 407q-115 143 -357 143h-258v-1107h258z" />
<glyph unicode="E" horiz-adv-x="1146" d="M1083 0h-909v1405h889v-152h-713v-446h565v-141h-565v-514h733v-152z" />
<glyph unicode="F" horiz-adv-x="983" d="M168 0v1405h860v-152h-684v-446h567v-141h-567v-666h-176z" />
<glyph unicode="G" horiz-adv-x="1351" d="M1229 -10h-109l-47 174q-125 -184 -389 -184q-274 0 -438 217q-147 201 -148 491q0 303 148 508q168 229 461 229q403 0 507 -403l-165 -41q-27 133 -121 215q-96 82 -234 82q-215 0 -321 -195q-84 -154 -84 -387q0 -221 80 -372q106 -201 327 -201q162 0 258 100 q94 98 95 260v78h-351v148h531v-719z" />
<glyph unicode="H" horiz-adv-x="1351" d="M1001 0v668h-651v-668h-176v1405h176v-584h651v584h177v-1405h-177z" />
<glyph unicode="I" horiz-adv-x="532" d="M178 0v1405h176v-1405h-176z" />
<glyph unicode="J" horiz-adv-x="819" d="M662 459q0 -236 -82 -338q-109 -141 -340 -141q-102 0 -205 28v144q98 -20 180 -21q168 0 225 80q45 61 45 248v946h177v-946z" />
<glyph unicode="K" horiz-adv-x="1269" d="M1092 0l-418 774l-322 -399v-375h-176v1405h176v-815l633 815h191l-379 -492l489 -913h-194z" />
<glyph unicode="L" horiz-adv-x="1024" d="M1001 0h-829v1405h176v-1249h653v-156z" />
<glyph unicode="M" horiz-adv-x="1679" d="M1520 0h-177v1227h-8l-444 -1227h-119l-455 1227h-8v-1227h-147v1405h262l424 -1124l414 1124h258v-1405z" />
<glyph unicode="N" horiz-adv-x="1351" d="M1194 0h-172l-715 1225v-1225h-147v1405h221l666 -1145v1145h147v-1405z" />
<glyph unicode="O" horiz-adv-x="1351" d="M238 205q-139 197 -140 487q0 295 138 498q158 236 440 235q279 0 436 -223q141 -197 141 -483q0 -291 -137 -498q-160 -242 -438 -241q-282 0 -440 225zM987 326q82 160 82 383q0 233 -84 383q-109 188 -303 188q-213 0 -317 -201q-82 -158 -82 -389q0 -219 86 -375 q106 -193 309 -192q205 0 309 203z" />
<glyph unicode="P" horiz-adv-x="1146" d="M131 0v1405h471q225 0 338 -94q143 -121 143 -328q0 -178 -122 -297q-117 -115 -338 -115h-316v-571h-176zM604 717q150 0 223 71q78 78 78 195q0 143 -98 221q-68 53 -191 53h-309v-540h297z" />
<glyph unicode="Q" horiz-adv-x="1351" d="M358 315q100 -190 306 -190q219 0 323 186q84 150 84 387q0 233 -84 389q-104 193 -311 193q-236 0 -330 -227q-66 -156 -65 -365q-1 -226 77 -373zM223 1182q168 244 453 243q287 0 444 -227q139 -201 140 -496q0 -246 -103 -430q-117 -215 -336 -270v-31 q0 -154 180 -153q88 0 166 14v-139q-80 -27 -151 -27q-332 0 -338 314q-287 8 -445 223q-141 193 -141 489q0 302 131 490z" />
<glyph unicode="R" horiz-adv-x="1269" d="M991 0l-260 608h-389v-608h-176v1405h526q207 0 320 -86q150 -115 149 -307q0 -127 -69 -226q-72 -102 -193 -135l277 -651h-185zM672 752q166 0 241 77q72 72 72 185q0 129 -98 194q-63 45 -195 45h-350v-501h330z" />
<glyph unicode="S" horiz-adv-x="1269" d="M246 414q84 -285 416 -285q162 0 251 70q86 66 86 180q0 170 -239 229l-234 58q-178 43 -254 112q-115 102 -114 260q0 190 147 295q129 92 330 92q385 0 500 -344l-160 -43q-23 111 -127 183q-98 66 -217 65q-115 0 -201 -53q-100 -63 -100 -170q0 -106 78 -160 q51 -35 176 -63l211 -52q174 -39 256 -108q131 -106 131 -279q0 -199 -158 -319q-135 -102 -367 -102q-432 0 -569 399z" />
<glyph unicode="T" horiz-adv-x="1024" d="M600 0h-176v1251h-399v154h974v-154h-399v-1251z" />
<glyph unicode="U" horiz-adv-x="1310" d="M1141 516q0 -258 -103 -381q-131 -156 -379 -155q-258 0 -376 135q-111 123 -111 401v889h176v-889q0 -197 53 -272q74 -109 273 -109q168 0 252 101q68 80 67 280v889h148v-889z" />
<glyph unicode="V" horiz-adv-x="1146" d="M657 0h-168l-475 1405h185l391 -1159l389 1159h154z" />
<glyph unicode="W" horiz-adv-x="1679" d="M1323 0h-176l-305 1090l-287 -1090h-178l-357 1405h181l280 -1139h4l297 1139h142l319 -1139h4l260 1139h154z" />
<glyph unicode="X" d="M647 762l449 -762h-199l-354 598l-369 -598h-164l451 727l-402 678h197l309 -520l314 520h161z" />
<glyph unicode="Y" horiz-adv-x="1146" d="M662 592v-592h-177v592l-469 813h205l373 -647l377 647h159z" />
<glyph unicode="Z" d="M1049 0h-992v152l764 1108h-729v145h934v-117l-772 -1136h795v-152z" />
<glyph unicode="[" horiz-adv-x="614" d="M133 -350v1755h365v-105h-224v-1540h224v-110h-365z" />
<glyph unicode="\" horiz-adv-x="1064" d="M1104 -350h-137l-848 1755h139z" />
<glyph unicode="]" horiz-adv-x="614" d="M481 -350h-364v110h223v1540h-223v105h364v-1755z" />
<glyph unicode="^" horiz-adv-x="1228" d="M567 1405h95l356 -877h-125l-279 682l-278 -682h-123z" />
<glyph unicode="_" horiz-adv-x="1024" d="M1024 -154v-102h-1024v102h1024z" />
<glyph unicode="`" horiz-adv-x="778" d="M141 1333l70 133l412 -243l-41 -82z" />
<glyph unicode="a" d="M805 524h-133q-422 0 -422 -237q0 -90 69 -140q61 -43 156 -43q143 0 240 107q90 102 90 246v67zM805 645v45q0 135 -64 195q-61 57 -200 57q-248 0 -285 -184l-150 24q20 150 164 224q117 61 285 61q231 0 319 -102q86 -92 87 -342v-404q0 -145 22 -219h-160l-18 195 q-106 -215 -365 -215q-154 0 -254 79q-109 86 -108 236q0 203 192 289q129 61 400 61h135z" />
<glyph unicode="b" d="M793 788q-72 150 -222 150q-121 0 -202 -104q-82 -100 -82 -236v-125q0 -156 59 -246q82 -119 225 -118q145 0 217 135q57 106 58 264q0 165 -53 280zM205 0h-78v1405h160v-537h8q106 199 305 199q205 0 320 -170q98 -145 98 -362q0 -223 -103 -377q-119 -178 -331 -178 q-211 0 -320 198z" />
<glyph unicode="c" horiz-adv-x="983" d="M913 344q-29 -164 -131 -262q-109 -102 -270 -102q-217 0 -338 167q-104 147 -104 373q0 223 106 375q121 172 338 172q166 0 270 -100q102 -94 129 -260l-147 -27q-12 109 -74 178q-68 74 -174 74q-147 0 -221 -135q-57 -106 -57 -267q0 -162 53 -270q70 -143 215 -143 q211 0 258 254z" />
<glyph unicode="d" d="M809 616q0 131 -53 207q-82 117 -234 117q-137 0 -211 -131q-61 -106 -61 -270q0 -168 51 -277q68 -150 217 -149q139 0 230 125q61 84 61 213v165zM809 1405h160v-1405h-146v184h-4q-102 -205 -325 -204q-197 0 -318 176q-98 145 -98 364t102 371q117 176 328 176 q182 0 301 -168v506z" />
<glyph unicode="e" d="M995 285q-45 -141 -170 -224q-121 -82 -272 -81q-227 0 -356 161q-121 147 -121 379q0 227 125 381q133 166 356 166q229 0 352 -172q109 -152 103 -387h-756q0 -150 43 -236q80 -158 266 -157q205 0 279 200zM836 627q2 135 -70 223q-76 94 -209 94q-125 0 -209 -96 q-80 -92 -84 -221h572z" />
<glyph unicode="f" horiz-adv-x="614" d="M606 913h-241v-913h-160v913h-185v127h185q-16 387 276 387q94 0 187 -16v-129q-86 16 -131 16q-117 0 -154 -79q-20 -47 -18 -179h241v-127z" />
<glyph unicode="g" horiz-adv-x="1024" d="M211 975q113 92 278 92q115 0 211 -45q18 106 78 145q49 35 162 35l41 -2l2 -129h-16q-84 0 -121 -18q-53 -27 -64 -101q100 -111 101 -256q0 -156 -133 -260q-106 -80 -265 -80q-25 0 -73 9q-49 8 -68 8q-39 0 -74 -29q-37 -29 -37 -68q0 -70 78 -88q16 -4 246 -16 q236 -10 305 -37q160 -61 160 -229q0 -299 -514 -299q-205 0 -305 41q-178 74 -178 229q0 156 157 211q-100 66 -100 164q0 121 143 186q-135 106 -135 275q0 162 121 262zM319 543q63 -61 170 -62q104 0 168 64q63 63 64 168q0 96 -68 164q-68 63 -164 63q-102 0 -167 -66 q-66 -63 -66 -163q0 -107 63 -168zM307 -238q86 -31 203 -30q172 0 268 45q90 41 90 123q0 113 -221 125l-158 4q-127 4 -194 12q-113 -53 -113 -141q0 -95 125 -138z" />
<glyph unicode="h" d="M803 0v606q0 145 -23 207q-45 123 -186 123q-119 0 -211 -111q-80 -96 -80 -290v-535h-160v1405h160v-557h6q102 219 324 219q182 0 274 -145q55 -90 56 -316v-606h-160z" />
<glyph unicode="i" horiz-adv-x="491" d="M326 0h-160v1040h160v-1040zM334 1225h-176v180h176v-180z" />
<glyph unicode="j" horiz-adv-x="450" d="M293 -18q0 -166 -53 -242q-78 -109 -244 -109q-70 0 -152 21v129q61 -16 117 -17q106 0 145 60q27 45 27 158v1058h160v-1058zM303 1225h-176v180h176v-180z" />
<glyph unicode="k" horiz-adv-x="1024" d="M838 0l-303 580l-224 -258v-322h-159v1405h159v-899l482 530h172l-324 -364l367 -672h-170z" />
<glyph unicode="l" horiz-adv-x="491" d="M166 0v1405h160v-1405h-160z" />
<glyph unicode="m" horiz-adv-x="1679" d="M285 1040v-200h4q96 227 311 227q111 0 191 -70q78 -68 102 -178q98 248 336 248q174 0 262 -149q49 -82 49 -297v-621h-160v621q0 152 -28 206q-55 109 -174 109t-201 -117q-57 -82 -57 -258v-561h-160v659q0 119 -35 177q-59 100 -174 100q-109 0 -189 -102 q-63 -80 -63 -238v-596h-160v1040h146z" />
<glyph unicode="n" d="M293 848h4q100 219 324 219q197 0 294 -162q49 -82 50 -330v-575h-160v643q0 143 -29 193q-55 94 -178 94q-127 0 -215 -105q-82 -98 -82 -280v-545h-160v1040h152v-192z" />
<glyph unicode="o" d="M207 905q131 162 356 162q217 0 342 -168q115 -152 115 -373q0 -229 -123 -383q-133 -164 -360 -163q-219 0 -342 172q-109 152 -109 376q0 230 121 377zM324 244q74 -131 227 -131q162 0 240 149q51 98 51 266q0 182 -66 285q-80 123 -225 123q-162 0 -236 -148 q-51 -100 -51 -260q1 -175 60 -284z" />
<glyph unicode="p" d="M809 788q-70 137 -215 138q-100 0 -180 -78q-72 -74 -95 -176v-232q0 -133 80 -229t195 -96q139 0 213 127q55 94 55 280q0 160 -53 266zM319 -340h-159v1380h145v-200h4q88 227 322 227q203 0 315 -176q96 -150 96 -363q0 -211 -84 -354q-121 -195 -327 -194 q-201 0 -312 184v-504z" />
<glyph unicode="q" d="M805 580q0 174 -86 270q-78 88 -189 88q-143 0 -215 -145q-57 -113 -57 -271t55 -266q72 -139 215 -139q150 0 230 155q47 86 47 220v88zM885 1040h82v-1380h-160v537h-6q-86 -217 -312 -217q-207 0 -317 176q-92 147 -92 364t100 369q117 178 324 178q199 0 317 -195z " />
<glyph unicode="r" horiz-adv-x="655" d="M291 1040v-243h4q94 272 305 272l59 -4v-154h-32q-176 0 -269 -163q-51 -90 -51 -224v-524h-160v1040h144z" />
<glyph unicode="s" horiz-adv-x="1064" d="M244 307q16 -96 118 -149q86 -45 195 -45q100 0 168 37q84 45 84 135q0 121 -203 157l-170 31q-305 59 -305 289q0 150 123 233q106 72 266 72q342 0 412 -262l-148 -31q-59 164 -266 164q-86 0 -145 -33q-76 -41 -76 -119q0 -123 186 -151l152 -27q154 -29 217 -71 q125 -84 125 -236q0 -162 -139 -250q-119 -72 -293 -71q-166 0 -285 69q-135 78 -172 227z" />
<glyph unicode="t" horiz-adv-x="655" d="M639 -8l-154 -12q-295 0 -295 339v603h-184v127h184v258l160 16v-274h232v-127h-232v-629q0 -96 35 -137q37 -47 131 -47l123 10v-127z" />
<glyph unicode="u" d="M958 0h-145v207h-4q-39 -98 -125 -162q-90 -66 -195 -65q-170 0 -266 116q-82 100 -82 312v632h160v-632q0 -131 35 -191q53 -98 168 -98q127 0 215 106q80 98 80 262v553h159v-1040z" />
<glyph unicode="v" horiz-adv-x="901" d="M541 0h-168l-371 1040h178l291 -845l285 845h143z" />
<glyph unicode="w" horiz-adv-x="1351" d="M1036 0h-131l-231 772l-213 -772h-133l-312 1040h162l225 -776l218 776h116l234 -778l233 778h131z" />
<glyph unicode="x" horiz-adv-x="901" d="M702 0l-262 422l-272 -422h-158l350 539l-315 501h186l222 -356l227 356h156l-304 -467l359 -573h-189z" />
<glyph unicode="y" horiz-adv-x="860" d="M463 -98q-49 -131 -107 -193q-76 -80 -211 -80q-49 0 -118 19v129q61 -14 106 -15q106 0 162 82q23 35 72 174l-361 1022h166l279 -782l284 782h135z" />
<glyph unicode="z" horiz-adv-x="860" d="M813 952l-571 -827h571v-125h-766v125l553 788h-510v127h723v-88z" />
<glyph unicode="{" horiz-adv-x="614" d="M68 602q98 18 133 88q29 55 28 182l-2 320q0 94 64 166q53 59 104 61l150 6v-125l-90 -8q-74 -8 -74 -121l2 -331q2 -201 -150 -301q152 -117 150 -303l-2 -334q0 -111 74 -119l90 -12v-121l-150 6q-51 2 -104 61q-63 70 -64 166l2 320q0 127 -28 182q-35 72 -133 90v127 z" />
<glyph unicode="|" horiz-adv-x="532" d="M328 -512h-123v2048h123v-2048z" />
<glyph unicode="}" horiz-adv-x="614" d="M547 475q-98 -18 -133 -90q-29 -55 -29 -182l2 -320q0 -96 -63 -166q-53 -59 -105 -61l-149 -6v121l90 12q74 8 73 119l-2 334q-2 186 150 303q-152 100 -150 301l2 331q0 113 -73 121l-90 8v125l149 -6q51 -2 105 -61q63 -72 63 -166l-2 -320q0 -127 29 -182 q35 -70 133 -88v-127z" />
<glyph unicode="~" horiz-adv-x="1228" d="M115 432q6 147 78 238q121 150 288 51l301 -162q106 -57 156 6q33 43 33 144h139q10 -113 -70 -222q-121 -162 -352 -32l-246 137q-90 51 -141 -4q-47 -49 -47 -156h-139z" />
<glyph unicode="&#xa1;" horiz-adv-x="614" d="M406 1040v-219h-216v219h216zM346 705l74 -1055h-242l80 1055h88z" />
<glyph unicode="&#xa2;" horiz-adv-x="1228" d="M569 233q-172 23 -272 166q-90 129 -90 312q0 193 86 323q96 147 276 172v258h125v-258q125 -12 219 -104q92 -90 109 -215l-139 -27q-14 78 -62 144q-55 76 -127 81v-725q156 27 189 220l139 -23q-57 -291 -328 -324v-292h-125v292zM569 1081q-199 -55 -198 -374 q0 -299 198 -347v721z" />
<glyph unicode="&#xa3;" horiz-adv-x="1228" d="M170 664v120h213l-18 191q0 182 84 297q111 154 294 153q207 0 342 -190l-116 -88q-106 137 -215 137q-92 0 -152 -76q-55 -70 -55 -164l22 -260h301v-120h-288l8 -136q0 -254 -164 -374h303q137 0 209 24q98 35 152 135l135 -88q-109 -225 -389 -225h-830v154h47 q166 4 242 57q119 86 119 250l-19 203h-225z" />
<glyph unicode="&#xa5;" horiz-adv-x="1228" d="M1124 870v-120h-331l-91 -158v-6h422v-123h-422v-463h-174v463h-422v123h422v6l-92 158h-330v120h261l-310 535h207l371 -647l377 647h159l-307 -535h260z" />
<glyph unicode="&#xa7;" horiz-adv-x="1228" d="M295 -55q35 -90 127 -146q86 -51 186 -51q113 0 199 53q98 63 98 168q0 143 -239 207l-162 43q-160 41 -234 94q-113 78 -112 213q0 180 198 308q-168 92 -168 274q0 154 123 242q109 76 271 75q152 0 264 -65q125 -72 164 -209l-156 -16q-63 172 -270 172 q-92 0 -160 -41q-80 -47 -80 -136q0 -154 277 -229l143 -41q279 -78 278 -297q0 -145 -165 -280q199 -84 198 -285q0 -170 -145 -281q-127 -102 -330 -102q-377 0 -485 303zM481 782q-162 -80 -162 -200q0 -141 248 -209l178 -49q59 25 103 79q45 57 45 117q0 133 -209 199z " />
<glyph unicode="&#xa8;" horiz-adv-x="819" d="M641 1288q-31 -31 -76 -31q-43 0 -73 33q-31 31 -31 74t33 74q31 29 73 28q43 0 74 -28q33 -31 33 -74q0 -45 -33 -76zM324 1288q-31 -31 -76 -31q-43 0 -74 33q-31 31 -31 74t33 74q31 29 74 28q43 0 74 -28q33 -31 32 -74q1 -45 -32 -76z" />
<glyph unicode="&#xa9;" horiz-adv-x="1556" d="M254 193q-219 211 -219 514q0 297 219 507q217 211 526 211q307 0 525 -211q217 -211 217 -507q0 -303 -217 -514q-217 -213 -525 -213q-309 0 -526 213zM352 1116q-176 -170 -176 -409q0 -246 176 -416t428 -170q250 0 424 170q176 170 176 416q0 240 -176 409 q-174 168 -424 168q-252 0 -428 -168zM1157 571q-14 -125 -115 -204q-96 -76 -229 -76q-182 0 -299 121q-113 119 -113 299q0 182 109 297q111 117 297 116q137 0 231 -69q98 -74 119 -201h-137q-29 160 -207 160q-268 0 -268 -307q0 -137 67 -220q72 -86 205 -86 q180 0 203 170h137z" />
<glyph unicode="&#xaa;" horiz-adv-x="737" d="M446 1098q-252 0 -251 -140q0 -37 41 -63q39 -27 100 -27q74 0 131 62q53 57 53 123v45h-74zM92 1253q25 172 291 172q150 0 209 -61q55 -57 55 -207v-188q0 -90 19 -193h-129v88q-66 -96 -228 -96q-100 0 -166 49q-70 51 -69 141q0 127 127 189q94 45 245 45h74v45 q0 88 -145 88t-166 -84z" />
<glyph unicode="&#xab;" horiz-adv-x="819" d="M141 526l176 291h93l-109 -291l109 -299h-91zM410 526l176 291h92l-109 -291l109 -299h-90z" />
<glyph unicode="&#xac;" horiz-adv-x="1228" d="M1012 657h-928v134h1061v-553h-133v419z" />
<glyph unicode="&#xad;" horiz-adv-x="450" d="M436 463h-436v127h436v-127z" />
<glyph unicode="&#xae;" horiz-adv-x="1556" d="M442 776h-96v453h211q172 0 172 -135q0 -82 -84 -121l84 -197h-102l-74 180h-111v-180zM442 1032h101q86 0 86 64q0 59 -78 59h-109v-123zM227 1303q123 123 297 122q174 0 297 -122q125 -125 125 -302q0 -174 -123 -296q-125 -125 -299 -125t-299 125q-123 123 -123 296 q0 179 125 302zM281 758q100 -102 243 -103q143 0 244 103q102 100 102 243q0 145 -102 248q-100 100 -244 101q-141 0 -243 -101q-102 -102 -103 -248q1 -143 103 -243z" />
<glyph unicode="&#xaf;" horiz-adv-x="942" d="M793 1294h-646v121h646v-121z" />
<glyph unicode="&#xb0;" horiz-adv-x="819" d="M629 901q-92 -90 -217 -90q-127 0 -217 90t-91 217q-2 127 89 217q92 90 219 90q125 0 217 -90q90 -90 90 -217t-90 -217zM539 1245q-53 55 -129 55t-129 -55q-55 -53 -54 -129q0 -76 54 -129q53 -53 129 -53t129 53q55 53 55 129t-55 129z" />
<glyph unicode="&#xb1;" horiz-adv-x="1228" d="M680 1294v-463h463v-133h-463v-462h-133v462h-463v133h463v463h133zM84 133h1059v-133h-1059v133z" />
<glyph unicode="&#xb4;" horiz-adv-x="778" d="M285 1141l-41 82l411 243l70 -133z" />
<glyph unicode="&#xb5;" d="M958 0h-145v207h-4q-39 -98 -125 -162q-90 -66 -195 -65q-113 0 -188 63v-383h-160v1380h160v-632q0 -131 35 -191q53 -98 168 -98q127 0 215 106q80 98 80 262v553h159v-1040z" />
<glyph unicode="&#xb6;" d="M1100 1272h-119v-1657h-133v1657h-166v-1657h-133v825q-135 23 -127 21q-125 41 -205 160q-152 225 -51 485q59 156 203 240q106 59 198 59h533v-133z" />
<glyph unicode="&#xb7;" horiz-adv-x="614" d="M420 475h-227v232h227v-232z" />
<glyph unicode="&#xb8;" horiz-adv-x="655" d="M313 -70q80 2 136 -26q70 -37 69 -109q0 -76 -61 -117q-51 -35 -131 -34q-111 0 -187 47l23 65q78 -37 147 -37q104 0 105 70q0 76 -129 76l-66 -6l45 141h70z" />
<glyph unicode="&#xba;" horiz-adv-x="737" d="M594 1327q78 -90 78 -229q0 -135 -72 -226q-82 -104 -231 -104q-150 0 -232 104q-72 90 -71 226q0 139 77 229q84 98 226 98q141 0 225 -98zM238 1247q-47 -59 -48 -149q0 -88 43 -148q47 -68 136 -67q88 0 135 67q43 59 43 148q0 90 -45 149q-51 63 -133 64 q-82 -1 -131 -64z" />
<glyph unicode="&#xbb;" horiz-adv-x="819" d="M500 227h-90l108 299l-108 291h92l176 -291zM231 227h-90l109 299l-109 291h92l177 -291z" />
<glyph unicode="&#xbf;" d="M670 705v-89q0 -119 -19 -170q-27 -76 -114 -124l-91 -52q-172 -96 -172 -245q0 -119 86 -189q80 -63 203 -63q268 0 316 301l153 -33q-31 -197 -155 -305q-125 -109 -326 -109q-190 0 -320 101q-139 111 -139 295q0 233 262 368q109 57 135 86q33 37 33 137v91h148z M694 840h-209v200h209v-200z" />
<glyph unicode="&#xc0;" horiz-adv-x="1146" d="M1130 0h-180l-141 410h-520l-125 -410h-148l455 1405h203zM555 1217l-217 -674h432zM203 1698l69 133l412 -244l-41 -82z" />
<glyph unicode="&#xc1;" horiz-adv-x="1146" d="M1130 0h-180l-141 410h-520l-125 -410h-148l455 1405h203zM555 1217l-217 -674h432zM500 1505l-41 82l411 244l70 -133z" />
<glyph unicode="&#xc2;" horiz-adv-x="1146" d="M1130 0h-180l-141 410h-520l-125 -410h-148l455 1405h203zM555 1217l-217 -674h432zM774 1559l-190 127l-201 -127l-150 20l351 252l331 -252z" />
<glyph unicode="&#xc3;" horiz-adv-x="1146" d="M1130 0h-180l-141 410h-520l-125 -410h-148l455 1405h203zM555 1217l-217 -674h432zM940 1642q-94 -94 -213 -94q-53 0 -143 43q-102 51 -160 51q-70 0 -129 -63l-88 63q86 117 229 117q61 0 164 -45q102 -45 141 -45q41 0 125 51z" />
<glyph unicode="&#xc4;" horiz-adv-x="1146" d="M1130 0h-180l-141 410h-520l-125 -410h-148l455 1405h203zM555 1217l-217 -674h432zM805 1612q-31 -31 -76 -31q-43 0 -74 33q-31 31 -30 74q0 43 32 73q31 29 74 29t74 -29q33 -31 33 -73q0 -45 -33 -76zM487 1612q-31 -31 -75 -31q-43 0 -74 33q-31 31 -31 74t33 73 q31 29 74 29t73 -29q33 -31 33 -73q0 -45 -33 -76z" />
<glyph unicode="&#xc5;" horiz-adv-x="1146" d="M1130 0h-180l-141 410h-520l-125 -410h-148l455 1405h203zM555 1217l-217 -674h432zM444 1556q-55 53 -55 130q0 78 53 131q53 55 129 55q78 0 134 -53q53 -55 53 -133q0 -76 -56 -130q-53 -53 -131 -53q-74 0 -127 53zM639 1622q29 27 29 64q0 39 -29 65q-27 29 -66 29 t-67 -27q-27 -27 -27 -67q0 -39 29 -66q27 -27 65 -27q37 0 66 29z" />
<glyph unicode="&#xc6;" horiz-adv-x="1966" d="M1888 0h-964v434h-473l-258 -434h-170l835 1405h1004v-152h-762v-446h616v-141h-616v-514h788v-152zM924 1245l-398 -674h398v674z" />
<glyph unicode="&#xc7;" horiz-adv-x="1269" d="M1178 438q-113 -459 -521 -458h-2l-14 -50q80 2 135 -26q70 -37 70 -109q0 -76 -62 -117q-51 -35 -131 -34q-111 0 -186 47l22 65q78 -37 148 -37q104 0 104 70q0 76 -129 76l-65 -6l41 125q-248 29 -383 260q-119 199 -119 473q0 297 139 489q160 219 447 219 q203 0 338 -127q123 -117 168 -321l-166 -31q-92 332 -346 332q-207 0 -308 -197q-80 -154 -79 -379q0 -207 65 -350q102 -225 313 -225q276 0 361 346z" />
<glyph unicode="&#xc8;" horiz-adv-x="1146" d="M1083 0h-909v1405h889v-152h-713v-446h565v-141h-565v-514h733v-152zM285 1698l69 133l412 -244l-41 -82z" />
<glyph unicode="&#xc9;" horiz-adv-x="1146" d="M1083 0h-909v1405h889v-152h-713v-446h565v-141h-565v-514h733v-152zM551 1505l-41 82l412 244l69 -133z" />
<glyph unicode="&#xca;" horiz-adv-x="1146" d="M1083 0h-909v1405h889v-152h-713v-446h565v-141h-565v-514h733v-152zM815 1559l-190 127l-201 -127l-150 20l351 252l331 -252z" />
<glyph unicode="&#xcb;" horiz-adv-x="1146" d="M1083 0h-909v1405h889v-152h-713v-446h565v-141h-565v-514h733v-152zM846 1612q-31 -31 -76 -31q-43 0 -74 33q-31 31 -30 74q0 43 32 73q31 29 74 29t74 -29q33 -31 33 -73q0 -45 -33 -76zM528 1612q-31 -31 -75 -31q-43 0 -74 33q-31 31 -31 74t33 73q31 29 74 29 t73 -29q33 -31 33 -73q0 -45 -33 -76z" />
<glyph unicode="&#xcc;" horiz-adv-x="532" d="M178 0v1405h176v-1405h-176zM-63 1698l69 133l412 -244l-41 -82z" />
<glyph unicode="&#xcd;" horiz-adv-x="532" d="M178 0v1405h176v-1405h-176zM203 1505l-41 82l411 244l70 -133z" />
<glyph unicode="&#xce;" horiz-adv-x="532" d="M178 0v1405h176v-1405h-176zM426 1559l-190 127l-201 -127l-150 20l351 252l331 -252z" />
<glyph unicode="&#xcf;" horiz-adv-x="532" d="M178 0v1405h176v-1405h-176zM477 1612q-31 -31 -76 -31q-43 0 -73 33q-31 31 -31 74t33 73q31 29 73 29q43 0 74 -29q33 -31 33 -73q0 -45 -33 -76zM160 1612q-31 -31 -76 -31q-43 0 -74 33q-31 31 -30 74q0 43 32 73q31 29 74 29t74 -29q33 -31 33 -73q0 -45 -33 -76z " />
<glyph unicode="&#xd0;" horiz-adv-x="1351" d="M174 666h-137v141h137v598h444q315 0 484 -199q170 -199 170 -499q0 -279 -146 -484q-160 -223 -450 -223h-502v666zM350 150h258q266 0 383 178q102 156 103 379q0 248 -129 407q-115 143 -357 143h-258v-450h334v-141h-334v-516z" />
<glyph unicode="&#xd1;" horiz-adv-x="1351" d="M1194 0h-172l-715 1225v-1225h-147v1405h221l666 -1145v1145h147v-1405zM1042 1642q-94 -94 -213 -94q-53 0 -143 43q-102 51 -160 51q-70 0 -129 -63l-88 63q86 117 230 117q61 0 163 -45t142 -45q41 0 125 51z" />
<glyph unicode="&#xd2;" horiz-adv-x="1351" d="M238 205q-139 197 -140 487q0 295 138 498q158 236 440 235q279 0 436 -223q141 -197 141 -483q0 -291 -137 -498q-160 -242 -438 -241q-282 0 -440 225zM987 326q82 160 82 383q0 233 -84 383q-109 188 -303 188q-213 0 -317 -201q-82 -158 -82 -389q0 -219 86 -375 q106 -193 309 -192q205 0 309 203zM285 1698l69 133l412 -244l-41 -82z" />
<glyph unicode="&#xd3;" horiz-adv-x="1351" d="M238 205q-139 197 -140 487q0 295 138 498q158 236 440 235q279 0 436 -223q141 -197 141 -483q0 -291 -137 -498q-160 -242 -438 -241q-282 0 -440 225zM987 326q82 160 82 383q0 233 -84 383q-109 188 -303 188q-213 0 -317 -201q-82 -158 -82 -389q0 -219 86 -375 q106 -193 309 -192q205 0 309 203zM592 1505l-41 82l412 244l69 -133z" />
<glyph unicode="&#xd4;" horiz-adv-x="1351" d="M238 205q-139 197 -140 487q0 295 138 498q158 236 440 235q279 0 436 -223q141 -197 141 -483q0 -291 -137 -498q-160 -242 -438 -241q-282 0 -440 225zM987 326q82 160 82 383q0 233 -84 383q-109 188 -303 188q-213 0 -317 -201q-82 -158 -82 -389q0 -219 86 -375 q106 -193 309 -192q205 0 309 203zM877 1559l-191 127l-201 -127l-149 20l350 252l332 -252z" />
<glyph unicode="&#xd5;" horiz-adv-x="1351" d="M238 205q-139 197 -140 487q0 295 138 498q158 236 440 235q279 0 436 -223q141 -197 141 -483q0 -291 -137 -498q-160 -242 -438 -241q-282 0 -440 225zM987 326q82 160 82 383q0 233 -84 383q-109 188 -303 188q-213 0 -317 -201q-82 -158 -82 -389q0 -219 86 -375 q106 -193 309 -192q205 0 309 203zM1042 1663q-94 -94 -213 -94q-53 0 -143 43q-102 51 -160 51q-70 0 -129 -64l-88 64q86 117 230 117q61 0 163 -45t142 -45q41 0 125 51z" />
<glyph unicode="&#xd6;" horiz-adv-x="1351" d="M238 205q-139 197 -140 487q0 295 138 498q158 236 440 235q279 0 436 -223q141 -197 141 -483q0 -291 -137 -498q-160 -242 -438 -241q-282 0 -440 225zM987 326q82 160 82 383q0 233 -84 383q-109 188 -303 188q-213 0 -317 -201q-82 -158 -82 -389q0 -219 86 -375 q106 -193 309 -192q205 0 309 203zM907 1612q-31 -31 -76 -31q-43 0 -73 33q-31 31 -31 74t33 73q31 29 74 29t73 -29q33 -31 33 -73q0 -45 -33 -76zM590 1612q-31 -31 -76 -31q-43 0 -74 33q-31 31 -30 74q0 43 32 73q31 29 74 29t74 -29q33 -31 33 -73q0 -45 -33 -76z" />
<glyph unicode="&#xd8;" horiz-adv-x="1351" d="M420 242q100 -119 258 -119q205 0 309 203q82 160 82 383t-76 366zM924 1174q-100 106 -242 106q-213 0 -317 -201q-82 -158 -82 -389q0 -195 71 -346zM1096 1225q158 -201 157 -506q0 -291 -137 -498q-160 -242 -438 -241q-211 0 -354 126l-127 -186h-134l185 268 q-150 203 -150 504q0 295 138 498q158 236 440 235q203 0 340 -118l129 186h135z" />
<glyph unicode="&#xd9;" horiz-adv-x="1310" d="M1141 516q0 -258 -103 -381q-131 -156 -379 -155q-258 0 -376 135q-111 123 -111 401v889h176v-889q0 -197 53 -272q74 -109 273 -109q168 0 252 101q68 80 67 280v889h148v-889zM367 1698l69 133l412 -244l-41 -82z" />
<glyph unicode="&#xda;" horiz-adv-x="1310" d="M1141 516q0 -258 -103 -381q-131 -156 -379 -155q-258 0 -376 135q-111 123 -111 401v889h176v-889q0 -197 53 -272q74 -109 273 -109q168 0 252 101q68 80 67 280v889h148v-889zM633 1505l-41 82l412 244l69 -133z" />
<glyph unicode="&#xdb;" horiz-adv-x="1310" d="M1141 516q0 -258 -103 -381q-131 -156 -379 -155q-258 0 -376 135q-111 123 -111 401v889h176v-889q0 -197 53 -272q74 -109 273 -109q168 0 252 101q68 80 67 280v889h148v-889zM856 1559l-190 127l-201 -127l-150 20l351 252l331 -252z" />
<glyph unicode="&#xdc;" horiz-adv-x="1310" d="M1141 516q0 -258 -103 -381q-131 -156 -379 -155q-258 0 -376 135q-111 123 -111 401v889h176v-889q0 -197 53 -272q74 -109 273 -109q168 0 252 101q68 80 67 280v889h148v-889zM887 1612q-31 -31 -76 -31q-43 0 -74 33q-31 31 -30 74q0 43 32 73q31 29 74 29t74 -29 q33 -31 33 -73q0 -45 -33 -76zM569 1612q-31 -31 -75 -31q-43 0 -74 33q-31 31 -31 74t33 73q31 29 74 29t73 -29q33 -31 33 -73q0 -45 -33 -76z" />
<glyph unicode="&#xdd;" horiz-adv-x="1146" d="M662 592v-592h-177v592l-469 813h205l373 -647l377 647h159zM551 1505l-41 82l412 244l69 -133z" />
<glyph unicode="&#xde;" horiz-adv-x="1146" d="M604 451q150 0 223 71q78 78 78 195q0 143 -98 221q-68 53 -191 53h-309v-540h297zM307 305v-305h-176v1405h176v-266h295q225 0 338 -95q143 -121 143 -327q0 -178 -122 -297q-117 -115 -338 -115h-316z" />
<glyph unicode="&#xdf;" horiz-adv-x="1187" d="M295 -66h-166v861h-109v125h109q6 219 115 354q123 152 346 151q145 0 258 -73q127 -84 127 -217q0 -137 -131 -215q-113 -66 -264 -66q-59 0 -60 -16q0 -27 148 -80q176 -57 288 -129q154 -100 154 -277q0 -164 -135 -274q-115 -98 -305 -98q-90 0 -232 30l45 113 q133 -20 162 -21q111 0 182 50q106 76 107 180q0 133 -174 207l-209 88q-186 76 -186 174q0 49 32 102q18 31 80 35q119 10 205 51q117 55 117 152q0 76 -68 121q-59 39 -141 38q-295 0 -295 -352v-1014z" />
<glyph unicode="&#xe0;" d="M805 524h-133q-422 0 -422 -237q0 -90 69 -140q61 -43 156 -43q143 0 240 107q90 102 90 246v67zM805 645v45q0 135 -64 195q-61 57 -200 57q-248 0 -285 -184l-150 24q20 150 164 224q117 61 285 61q231 0 319 -102q86 -92 87 -342v-404q0 -145 22 -219h-160l-18 195 q-106 -215 -365 -215q-154 0 -254 79q-109 86 -108 236q0 203 192 289q129 61 400 61h135zM305 1333l70 133l411 -243l-41 -82z" />
<glyph unicode="&#xe1;" d="M805 524h-133q-422 0 -422 -237q0 -90 69 -140q61 -43 156 -43q143 0 240 107q90 102 90 246v67zM805 645v45q0 135 -64 195q-61 57 -200 57q-248 0 -285 -184l-150 24q20 150 164 224q117 61 285 61q231 0 319 -102q86 -92 87 -342v-404q0 -145 22 -219h-160l-18 195 q-106 -215 -365 -215q-154 0 -254 79q-109 86 -108 236q0 203 192 289q129 61 400 61h135zM479 1141l-41 82l412 243l70 -133z" />
<glyph unicode="&#xe2;" d="M805 524h-133q-422 0 -422 -237q0 -90 69 -140q61 -43 156 -43q143 0 240 107q90 102 90 246v67zM805 645v45q0 135 -64 195q-61 57 -200 57q-248 0 -285 -184l-150 24q20 150 164 224q117 61 285 61q231 0 319 -102q86 -92 87 -342v-404q0 -145 22 -219h-160l-18 195 q-106 -215 -365 -215q-154 0 -254 79q-109 86 -108 236q0 203 192 289q129 61 400 61h135zM733 1194l-190 127l-201 -127l-149 20l350 252l331 -252z" />
<glyph unicode="&#xe3;" d="M805 524h-133q-422 0 -422 -237q0 -90 69 -140q61 -43 156 -43q143 0 240 107q90 102 90 246v67zM805 645v45q0 135 -64 195q-61 57 -200 57q-248 0 -285 -184l-150 24q20 150 164 224q117 61 285 61q231 0 319 -102q86 -92 87 -342v-404q0 -145 22 -219h-160l-18 195 q-106 -215 -365 -215q-154 0 -254 79q-109 86 -108 236q0 203 192 289q129 61 400 61h135zM899 1298q-94 -94 -213 -94q-53 0 -143 43q-102 51 -160 51q-70 0 -129 -63l-88 63q86 117 229 117q61 0 164 -45q102 -45 141 -45q41 0 125 51z" />
<glyph unicode="&#xe4;" d="M805 524h-133q-422 0 -422 -237q0 -90 69 -140q61 -43 156 -43q143 0 240 107q90 102 90 246v67zM805 645v45q0 135 -64 195q-61 57 -200 57q-248 0 -285 -184l-150 24q20 150 164 224q117 61 285 61q231 0 319 -102q86 -92 87 -342v-404q0 -145 22 -219h-160l-18 195 q-106 -215 -365 -215q-154 0 -254 79q-109 86 -108 236q0 203 192 289q129 61 400 61h135zM784 1288q-31 -31 -75 -31q-43 0 -74 33q-31 31 -31 74t33 74q31 29 74 28q43 0 73 -28q33 -31 33 -74q0 -45 -33 -76zM467 1288q-31 -31 -76 -31q-43 0 -74 33q-31 31 -30 74 q0 43 32 74q31 29 74 28q43 0 74 -28q33 -31 33 -74q0 -45 -33 -76z" />
<glyph unicode="&#xe5;" d="M805 524h-133q-422 0 -422 -237q0 -90 69 -140q61 -43 156 -43q143 0 240 107q90 102 90 246v67zM805 645v45q0 135 -64 195q-61 57 -200 57q-248 0 -285 -184l-150 24q20 150 164 224q117 61 285 61q231 0 319 -102q86 -92 87 -342v-404q0 -145 22 -219h-160l-18 195 q-106 -215 -365 -215q-154 0 -254 79q-109 86 -108 236q0 203 192 289q129 61 400 61h135zM465 1212q-55 53 -55 129q0 78 53 132q53 55 129 55q78 0 133 -53q53 -55 53 -134q0 -76 -55 -129q-53 -53 -131 -53q-74 0 -127 53zM659 1278q29 27 29 63q0 39 -29 66 q-27 29 -65 29q-39 0 -68 -27q-27 -27 -26 -68q0 -39 28 -65q27 -27 66 -27q36 0 65 29z" />
<glyph unicode="&#xe6;" horiz-adv-x="1843" d="M1561 627q-4 135 -70 219q-74 96 -207 96q-129 0 -211 -96q-78 -90 -82 -219h570zM686 520q-180 0 -264 -35q-135 -63 -135 -186q0 -86 59 -139q57 -51 143 -51q178 0 279 151q61 90 57 260h-139zM1718 285q-43 -139 -164 -224q-119 -80 -270 -79q-285 0 -420 262 q-98 -264 -389 -264q-154 0 -252 77q-111 84 -110 232q0 197 186 289q125 63 387 63h143v72q0 233 -264 233q-223 0 -262 -180l-151 27q31 143 167 215q115 59 277 59q246 0 352 -147q129 147 334 147q227 0 350 -172q106 -152 105 -387h-752q-10 -162 68 -272 q84 -123 243 -123q195 0 277 198z" />
<glyph unicode="&#xe7;" horiz-adv-x="983" d="M913 344q-27 -158 -125 -254q-102 -102 -256 -108l-14 -52q80 2 135 -26q70 -37 70 -109q0 -76 -61 -117q-51 -35 -132 -34q-111 0 -186 47l23 65q78 -37 147 -37q104 0 104 70q0 76 -129 76l-65 -6l39 123q-195 18 -299 182q-94 145 -94 356q0 223 106 375 q121 172 338 172q166 0 270 -100q102 -94 129 -260l-147 -27q-12 109 -74 178q-68 74 -174 74q-147 0 -221 -135q-57 -106 -57 -267q0 -162 53 -270q70 -143 215 -143q211 0 258 254z" />
<glyph unicode="&#xe8;" d="M995 285q-45 -141 -170 -224q-121 -82 -272 -81q-227 0 -356 161q-121 147 -121 379q0 227 125 381q133 166 356 166q229 0 352 -172q109 -152 103 -387h-756q0 -150 43 -236q80 -158 266 -157q205 0 279 200zM836 627q2 135 -70 223q-76 94 -209 94q-125 0 -209 -96 q-80 -92 -84 -221h572zM264 1333l70 133l411 -243l-40 -82z" />
<glyph unicode="&#xe9;" d="M995 285q-45 -141 -170 -224q-121 -82 -272 -81q-227 0 -356 161q-121 147 -121 379q0 227 125 381q133 166 356 166q229 0 352 -172q109 -152 103 -387h-756q0 -150 43 -236q80 -158 266 -157q205 0 279 200zM836 627q2 135 -70 223q-76 94 -209 94q-125 0 -209 -96 q-80 -92 -84 -221h572zM449 1141l-41 82l411 243l70 -133z" />
<glyph unicode="&#xea;" d="M995 285q-45 -141 -170 -224q-121 -82 -272 -81q-227 0 -356 161q-121 147 -121 379q0 227 125 381q133 166 356 166q229 0 352 -172q109 -152 103 -387h-756q0 -150 43 -236q80 -158 266 -157q205 0 279 200zM836 627q2 135 -70 223q-76 94 -209 94q-125 0 -209 -96 q-80 -92 -84 -221h572zM754 1194l-191 127l-201 -127l-149 20l350 252l332 -252z" />
<glyph unicode="&#xeb;" d="M995 285q-45 -141 -170 -224q-121 -82 -272 -81q-227 0 -356 161q-121 147 -121 379q0 227 125 381q133 166 356 166q229 0 352 -172q109 -152 103 -387h-756q0 -150 43 -236q80 -158 266 -157q205 0 279 200zM836 627q2 135 -70 223q-76 94 -209 94q-125 0 -209 -96 q-80 -92 -84 -221h572zM784 1288q-31 -31 -75 -31q-43 0 -74 33q-31 31 -31 74t33 74q31 29 74 28q43 0 73 -28q33 -31 33 -74q0 -45 -33 -76zM467 1288q-31 -31 -76 -31q-43 0 -74 33q-31 31 -30 74q0 43 32 74q31 29 74 28q43 0 74 -28q33 -31 33 -74q0 -45 -33 -76z" />
<glyph unicode="&#xec;" horiz-adv-x="491" d="M326 0h-160v1040h160v-1040zM-125 1333l70 133l411 -243l-41 -82z" />
<glyph unicode="&#xed;" horiz-adv-x="491" d="M326 0h-160v1040h160v-1040zM182 1141l-41 82l412 243l70 -133z" />
<glyph unicode="&#xee;" horiz-adv-x="491" d="M326 0h-160v1040h160v-1040zM426 1194l-190 127l-201 -127l-150 20l351 252l331 -252z" />
<glyph unicode="&#xef;" horiz-adv-x="491" d="M326 0h-160v1040h160v-1040zM477 1288q-31 -31 -76 -31q-43 0 -73 33q-31 31 -31 74t33 74q31 29 73 28q43 0 74 -28q33 -31 33 -74q0 -45 -33 -76zM160 1288q-31 -31 -76 -31q-43 0 -74 33q-31 31 -30 74q0 43 32 74q31 29 74 28q43 0 74 -28q33 -31 33 -74 q0 -45 -33 -76z" />
<glyph unicode="&#xf0;" d="M315 244q74 -131 228 -131q162 0 239 149q51 98 52 254q0 170 -66 272q-80 123 -225 123q-162 0 -236 -147q-51 -100 -51 -248q0 -163 59 -272zM791 1255q221 -324 221 -663q0 -274 -123 -440q-129 -172 -361 -172q-219 0 -342 170q-109 150 -108 370q0 205 115 352 q133 170 360 170q111 0 197 -63q-47 109 -115 211l-258 -109l-58 123l234 99l-72 83l146 62q49 -47 78 -82l260 109l57 -123z" />
<glyph unicode="&#xf1;" d="M293 848h4q100 219 324 219q197 0 294 -162q49 -82 50 -330v-575h-160v643q0 143 -29 193q-55 94 -178 94q-127 0 -215 -105q-82 -98 -82 -280v-545h-160v1040h152v-192zM920 1298q-94 -94 -213 -94q-53 0 -144 43q-102 51 -160 51q-70 0 -129 -63l-88 63q86 117 230 117 q61 0 164 -45q102 -45 141 -45q41 0 125 51z" />
<glyph unicode="&#xf2;" d="M207 905q131 162 356 162q217 0 342 -168q115 -152 115 -373q0 -229 -123 -383q-133 -164 -360 -163q-219 0 -342 172q-109 152 -109 376q0 230 121 377zM324 244q74 -131 227 -131q162 0 240 149q51 98 51 266q0 182 -66 285q-80 123 -225 123q-162 0 -236 -148 q-51 -100 -51 -260q1 -175 60 -284zM264 1333l70 133l411 -243l-40 -82z" />
<glyph unicode="&#xf3;" d="M207 905q131 162 356 162q217 0 342 -168q115 -152 115 -373q0 -229 -123 -383q-133 -164 -360 -163q-219 0 -342 172q-109 152 -109 376q0 230 121 377zM324 244q74 -131 227 -131q162 0 240 149q51 98 51 266q0 182 -66 285q-80 123 -225 123q-162 0 -236 -148 q-51 -100 -51 -260q1 -175 60 -284zM449 1141l-41 82l411 243l70 -133z" />
<glyph unicode="&#xf4;" d="M207 905q131 162 356 162q217 0 342 -168q115 -152 115 -373q0 -229 -123 -383q-133 -164 -360 -163q-219 0 -342 172q-109 152 -109 376q0 230 121 377zM324 244q74 -131 227 -131q162 0 240 149q51 98 51 266q0 182 -66 285q-80 123 -225 123q-162 0 -236 -148 q-51 -100 -51 -260q1 -175 60 -284zM774 1194l-190 127l-201 -127l-150 20l351 252l331 -252z" />
<glyph unicode="&#xf5;" d="M207 905q131 162 356 162q217 0 342 -168q115 -152 115 -373q0 -229 -123 -383q-133 -164 -360 -163q-219 0 -342 172q-109 152 -109 376q0 230 121 377zM324 244q74 -131 227 -131q162 0 240 149q51 98 51 266q0 182 -66 285q-80 123 -225 123q-162 0 -236 -148 q-51 -100 -51 -260q1 -175 60 -284zM920 1298q-94 -94 -213 -94q-53 0 -144 43q-102 51 -160 51q-70 0 -129 -63l-88 63q86 117 230 117q61 0 164 -45q102 -45 141 -45q41 0 125 51z" />
<glyph unicode="&#xf6;" d="M207 905q131 162 356 162q217 0 342 -168q115 -152 115 -373q0 -229 -123 -383q-133 -164 -360 -163q-219 0 -342 172q-109 152 -109 376q0 230 121 377zM324 244q74 -131 227 -131q162 0 240 149q51 98 51 266q0 182 -66 285q-80 123 -225 123q-162 0 -236 -148 q-51 -100 -51 -260q1 -175 60 -284zM784 1288q-31 -31 -75 -31q-43 0 -74 33q-31 31 -31 74t33 74q31 29 74 28q43 0 73 -28q33 -31 33 -74q0 -45 -33 -76zM467 1288q-31 -31 -76 -31q-43 0 -74 33q-31 31 -30 74q0 43 32 74q31 29 74 28q43 0 74 -28q33 -31 33 -74 q0 -45 -33 -76z" />
<glyph unicode="&#xf7;" horiz-adv-x="1228" d="M84 657h1059v-133h-1059v133zM713 94h-199v199h199v-199zM713 889h-199v198h199v-198z" />
<glyph unicode="&#xf8;" d="M731 864q-68 72 -180 72q-162 0 -236 -148q-51 -100 -51 -260q0 -137 35 -231zM360 195q78 -82 191 -82q162 0 240 149q51 98 51 266q0 147 -43 242zM901 907q119 -154 119 -381q0 -229 -123 -383q-133 -164 -360 -163q-160 0 -269 92l-143 -187h-135l200 273 q-104 152 -104 370q0 229 121 377q131 162 356 162q147 0 258 -82l148 193h137z" />
<glyph unicode="&#xf9;" d="M958 0h-145v207h-4q-39 -98 -125 -162q-90 -66 -195 -65q-170 0 -266 116q-82 100 -82 312v632h160v-632q0 -131 35 -191q53 -98 168 -98q127 0 215 106q80 98 80 262v553h159v-1040zM162 1333l69 133l412 -243l-41 -82z" />
<glyph unicode="&#xfa;" d="M958 0h-145v207h-4q-39 -98 -125 -162q-90 -66 -195 -65q-170 0 -266 116q-82 100 -82 312v632h160v-632q0 -131 35 -191q53 -98 168 -98q127 0 215 106q80 98 80 262v553h159v-1040zM530 1141l-41 82l412 243l70 -133z" />
<glyph unicode="&#xfb;" d="M958 0h-145v207h-4q-39 -98 -125 -162q-90 -66 -195 -65q-170 0 -266 116q-82 100 -82 312v632h160v-632q0 -131 35 -191q53 -98 168 -98q127 0 215 106q80 98 80 262v553h159v-1040zM754 1194l-191 127l-201 -127l-149 20l350 252l332 -252z" />
<glyph unicode="&#xfc;" d="M958 0h-145v207h-4q-39 -98 -125 -162q-90 -66 -195 -65q-170 0 -266 116q-82 100 -82 312v632h160v-632q0 -131 35 -191q53 -98 168 -98q127 0 215 106q80 98 80 262v553h159v-1040zM784 1288q-31 -31 -75 -31q-43 0 -74 33q-31 31 -31 74t33 74q31 29 74 28 q43 0 73 -28q33 -31 33 -74q0 -45 -33 -76zM467 1288q-31 -31 -76 -31q-43 0 -74 33q-31 31 -30 74q0 43 32 74q31 29 74 28q43 0 74 -28q33 -31 33 -74q0 -45 -33 -76z" />
<glyph unicode="&#xfd;" horiz-adv-x="860" d="M463 -98q-49 -131 -107 -193q-76 -80 -211 -80q-49 0 -118 19v129q61 -14 106 -15q106 0 162 82q23 35 72 174l-361 1022h166l279 -782l284 782h135zM367 1141l-41 82l411 243l70 -133z" />
<glyph unicode="&#xfe;" d="M319 408q0 -111 82 -201q84 -92 193 -92q139 0 213 127q55 94 55 280q0 160 -53 266q-70 137 -215 138q-100 0 -180 -78q-72 -74 -95 -176v-264zM319 1405v-565h5q63 227 307 227q203 0 315 -176q96 -150 96 -363q0 -211 -84 -354q-121 -195 -327 -194q-201 0 -312 184 v-504h-159v1745h159z" />
<glyph unicode="&#xff;" horiz-adv-x="860" d="M463 -98q-49 -131 -107 -193q-76 -80 -211 -80q-49 0 -118 19v129q61 -14 106 -15q106 0 162 82q23 35 72 174l-361 1022h166l279 -782l284 782h135zM662 1288q-31 -31 -76 -31q-43 0 -74 33q-31 31 -31 74t33 74q31 29 74 28q43 0 74 -28q33 -31 32 -74q1 -45 -32 -76z M344 1288q-31 -31 -76 -31q-43 0 -73 33q-31 31 -31 74t33 74q31 29 73 28q43 0 74 -28q33 -31 33 -74q0 -45 -33 -76z" />
<glyph unicode="&#x131;" horiz-adv-x="491" d="M326 0h-160v1040h160v-1040z" />
<glyph unicode="&#x141;" horiz-adv-x="1024" d="M1006 0h-828v575l-149 -153v147l149 158v678h176v-522l187 186v-147l-187 -191v-577h652v-154z" />
<glyph unicode="&#x142;" horiz-adv-x="409" d="M287 948l106 105v-164l-106 -96v-793h-160v635l-109 -107v154l109 109v614h160v-457z" />
<glyph unicode="&#x152;" horiz-adv-x="2048" d="M1079 154q-135 -174 -370 -174q-289 0 -459 223q-152 203 -152 497q0 297 154 500q172 225 461 225q227 0 366 -170v150h893v-152h-717v-446h578v-141h-578v-514h717v-152h-893v154zM1079 1020q-27 125 -133 199q-100 68 -233 67q-217 0 -332 -192q-94 -158 -94 -387 q0 -236 94 -396q115 -193 336 -192q137 0 237 80q98 82 125 213v608z" />
<glyph unicode="&#x153;" horiz-adv-x="1802" d="M1698 291q-41 -139 -158 -225t-262 -86q-223 0 -363 178q-154 -178 -368 -178q-225 0 -354 167q-117 152 -117 381q0 223 123 373q139 166 356 166q213 0 360 -176q143 176 357 176q223 0 342 -174q102 -152 100 -385h-729q-4 -141 39 -227q76 -164 266 -164 q184 0 262 202zM1542 627q-2 131 -69 219q-76 94 -201 94t-205 -94q-74 -90 -78 -219h553zM844 530q0 174 -58 269q-76 131 -227 131q-301 0 -301 -426q0 -178 61 -273q80 -123 226 -122q299 -1 299 421z" />
<glyph unicode="&#x178;" horiz-adv-x="1146" d="M662 592v-592h-177v592l-469 813h205l373 -647l377 647h159zM805 1612q-31 -31 -76 -31q-43 0 -74 33q-31 31 -30 74q0 43 32 73q31 29 74 29t74 -29q33 -31 33 -73q0 -45 -33 -76zM487 1612q-31 -31 -75 -31q-43 0 -74 33q-31 31 -31 74t33 73q31 29 74 29t73 -29 q33 -31 33 -73q0 -45 -33 -76z" />
<glyph unicode="&#x192;" horiz-adv-x="1228" d="M1022 1061h-252l-172 -973q-29 -172 -86 -250q-111 -145 -309 -145l-86 4l22 125h56q141 0 194 100q25 45 57 225l160 914h-190l20 121h193q35 174 80 241q106 160 323 160l82 -6l-22 -125l-60 2q-125 0 -178 -80q-37 -51 -63 -192h251z" />
<glyph unicode="&#x2c6;" horiz-adv-x="983" d="M692 1194l-190 127l-201 -127l-149 20l350 252l332 -252z" />
<glyph unicode="&#x2c7;" horiz-adv-x="983" d="M291 1466l194 -129l197 129l152 -20l-349 -254l-335 254z" />
<glyph unicode="&#x2d8;" horiz-adv-x="983" d="M836 1415q-47 -223 -334 -223q-295 0 -355 223h125q37 -111 228 -110q174 0 223 110h113z" />
<glyph unicode="&#x2d9;" horiz-adv-x="491" d="M319 1288q-31 -31 -75 -31q-43 0 -74 33q-31 31 -31 74t33 74q31 29 74 28q43 0 73 -28q33 -31 33 -74q0 -45 -33 -76z" />
<glyph unicode="&#x2da;" horiz-adv-x="655" d="M199 1171q-55 53 -56 129q0 78 54 132q53 55 129 55q78 0 133 -53q53 -55 53 -134q0 -76 -55 -129q-53 -53 -131 -53q-74 0 -127 53zM393 1237q29 27 29 63q0 39 -29 66q-27 29 -65 29q-39 0 -68 -27q-27 -27 -27 -68q0 -39 29 -65q27 -27 66 -27q36 0 65 29z" />
<glyph unicode="&#x2db;" horiz-adv-x="655" d="M344 0l4 -4q-78 -45 -78 -109q0 -80 90 -80q47 0 117 31l29 -63q-80 -51 -176 -51q-70 0 -121 28q-59 37 -59 103q0 70 79 122z" />
<glyph unicode="&#x2dc;" horiz-adv-x="1024" d="M879 1298q-94 -94 -213 -94q-53 0 -144 43q-102 51 -160 51q-70 0 -129 -63l-88 63q86 117 230 117q61 0 164 -45q102 -45 141 -45q41 0 125 51z" />
<glyph unicode="&#x2dd;" horiz-adv-x="1024" d="M217 1034l-70 64l310 368l108 -102zM526 1034l-69 64l309 368l108 -102z" />
<glyph unicode="&#x3a9;" horiz-adv-x="1599" d="M442 129q-303 231 -303 614q0 291 193 484q190 188 473 188q289 0 475 -203q178 -193 178 -460q0 -403 -305 -623v-6h336v-123h-531v92q344 190 345 635q-2 217 -129 381q-141 184 -369 184q-225 0 -369 -168q-139 -162 -139 -403q0 -215 106 -393q94 -158 236 -236v-92 h-528v123h331v6z" />
<glyph unicode="&#x3c0;" horiz-adv-x="1247" d="M1010 907v-602q0 -195 32 -305h-151q-37 55 -37 289v618h-408q-29 -612 -159 -907h-154q133 342 160 907q-174 0 -250 -26l-25 100q90 53 312 53h876l-16 -127h-180z" />
<glyph unicode="&#x2000;" horiz-adv-x="936" />
<glyph unicode="&#x2001;" horiz-adv-x="1872" />
<glyph unicode="&#x2002;" horiz-adv-x="936" />
<glyph unicode="&#x2003;" horiz-adv-x="1872" />
<glyph unicode="&#x2004;" horiz-adv-x="624" />
<glyph unicode="&#x2005;" horiz-adv-x="468" />
<glyph unicode="&#x2006;" horiz-adv-x="312" />
<glyph unicode="&#x2007;" horiz-adv-x="312" />
<glyph unicode="&#x2008;" horiz-adv-x="234" />
<glyph unicode="&#x2009;" horiz-adv-x="374" />
<glyph unicode="&#x200a;" horiz-adv-x="104" />
<glyph unicode="&#x2010;" horiz-adv-x="450" d="M436 463h-436v127h436v-127z" />
<glyph unicode="&#x2011;" horiz-adv-x="450" d="M436 463h-436v127h436v-127z" />
<glyph unicode="&#x2012;" horiz-adv-x="450" d="M436 463h-436v127h436v-127z" />
<glyph unicode="&#x2013;" horiz-adv-x="1024" d="M1024 463h-1024v127h1024v-127z" />
<glyph unicode="&#x2014;" horiz-adv-x="2048" d="M2048 463h-2048v127h2048v-127z" />
<glyph unicode="&#x2018;" horiz-adv-x="614" d="M211 1159l137 246h74l-103 -246h103v-209h-211v209z" />
<glyph unicode="&#x2019;" horiz-adv-x="614" d="M403 1196l-137 -246h-73l102 246h-102v209h210v-209z" />
<glyph unicode="&#x201a;" horiz-adv-x="614" d="M428 27l-164 -275h-78l121 248h-84v203h205v-176z" />
<glyph unicode="&#x201c;" horiz-adv-x="942" d="M508 1133l164 272h78l-121 -246h84v-203h-205v177zM199 1133l163 272h78l-121 -246h84v-203h-204v177z" />
<glyph unicode="&#x201d;" horiz-adv-x="942" d="M743 1229l-161 -273h-74l117 246h-84v203h202v-176zM434 1229l-164 -273h-77l120 246h-84v203h205v-176z" />
<glyph unicode="&#x201e;" horiz-adv-x="942" d="M748 27l-162 -275h-74l117 248h-84v203h203v-176zM438 27l-164 -275h-77l120 248h-84v203h205v-176z" />
<glyph unicode="&#x2020;" horiz-adv-x="1228" d="M651 907l80 -94q-43 -156 -63 -489l-17 -578v-96h-67l-2 94l-41 795q-16 186 -45 274l88 94l-434 -51l18 94l-18 90l434 -75l-88 440l120 -25l115 25l-80 -440l430 75l-18 -90l18 -94z" />
<glyph unicode="&#x2021;" horiz-adv-x="1228" d="M575 -350l-22 448q-27 352 -68 492l90 78l-430 -60l19 99l-19 94l430 -76l-45 131l45 107l-430 -62l19 96l-19 97l416 -76l-57 387l110 -33l111 33l-63 -387l423 76l-22 -97l22 -96l-438 62l49 -107l-49 -131l438 76l-22 -94l22 -99l-438 60q37 -39 96 -78 q-37 -109 -57 -365l-39 -575h-72z" />
<glyph unicode="&#x2022;" horiz-adv-x="1228" d="M739 580q-51 -51 -125 -52q-74 0 -122 52q-51 49 -52 122q0 74 52 125q49 51 122 52q74 0 125 -52q49 -51 49 -125q0 -71 -49 -122z" />
<glyph unicode="&#x2026;" horiz-adv-x="2048" d="M455 0h-228v231h228v-231zM1137 0h-228v231h228v-231zM1819 0h-228v231h228v-231z" />
<glyph unicode="&#x202f;" horiz-adv-x="374" />
<glyph unicode="&#x2030;" horiz-adv-x="2129" d="M1268 596q68 -98 71 -252q0 -147 -69 -248q-80 -117 -221 -116q-141 0 -222 116q-70 100 -69 248q0 152 67 252q78 115 219 115q146 0 224 -115zM883 344q0 -260 166 -260t165 260q-8 262 -170 262q-161 0 -161 -262zM2005 596q68 -98 72 -252q0 -147 -70 -248 q-80 -117 -221 -116q-141 0 -221 116q-70 100 -70 248q0 152 68 252q78 115 219 115q145 0 223 -115zM1620 344q0 -260 166 -260t166 260q-8 262 -170 262t-162 -262zM563 1311q68 -98 72 -252q0 -147 -70 -248q-80 -117 -221 -117t-221 117q-70 100 -70 248q0 152 68 252 q78 115 219 114q145 1 223 -114zM178 1059q0 -260 166 -260t166 260q-8 262 -170 262t-162 -262zM195 0l849 1405h150l-850 -1405h-149z" />
<glyph unicode="&#x2039;" horiz-adv-x="532" d="M133 526l176 291h92l-108 -291l108 -299h-90z" />
<glyph unicode="&#x203a;" horiz-adv-x="532" d="M221 227h-90l109 299l-109 291h92l176 -291z" />
<glyph unicode="&#x2044;" horiz-adv-x="327" d="M-336 0l850 1405h150l-850 -1405h-150z" />
<glyph unicode="&#x205f;" horiz-adv-x="468" />
<glyph unicode="&#x20ac;" horiz-adv-x="1228" d="M827 535h-448q27 -201 119 -314q88 -106 213 -106q225 0 327 274l138 -33q-129 -377 -465 -376q-227 0 -363 176q-115 143 -147 379h-168l18 116h137v43q0 35 5 97h-160l18 116h158q47 246 197 387q137 131 309 131q356 0 465 -376l-146 -31q-113 272 -313 272 q-117 0 -207 -98q-92 -102 -127 -285h502l-19 -116h-497q-4 -61 -4 -99v-41h477z" />
<glyph unicode="&#x2122;" horiz-adv-x="1720" d="M301 563v740h-229v102h585v-102h-229v-740h-127zM1223 731l237 674h189v-842h-127v735h-4l-258 -735h-93l-266 735h-4v-735h-102v842h184z" />
<glyph unicode="&#x2202;" horiz-adv-x="1189" d="M164 1450q150 115 364 115q229 0 383 -193q168 -209 168 -567q0 -348 -143 -574q-156 -244 -424 -243q-203 0 -319 151q-102 131 -103 314q0 223 139 366q131 137 322 137q137 0 252 -84q84 -59 121 -129h2q2 27 2 95q0 268 -123 438q-119 164 -291 164q-162 0 -295 -97z M526 111q150 0 258 149q96 137 121 340q-31 82 -110 152q-100 84 -220 84q-135 0 -233 -111q-98 -113 -98 -270q0 -147 75 -244q80 -100 205 -100h2z" />
<glyph unicode="&#x2206;" horiz-adv-x="1425" d="M66 104l559 1328h180l551 -1326v-106h-1290v104zM1186 123l-326 776q-8 23 -78 193q-53 129 -69 182h-11q-12 -39 -59 -156q-59 -145 -74 -184l-344 -811h961z" />
<glyph unicode="&#x220f;" horiz-adv-x="1527" d="M1227 1257v-1450h-152v1450h-624v-1450h-152v1450h-246v134h1420v-134h-246z" />
<glyph unicode="&#x2211;" horiz-adv-x="1210" d="M47 -193v99l590 690l-563 692v103h1054v-129h-835v-9l524 -637l-563 -661v-6h907v-142h-1114z" />
<glyph unicode="&#x221a;" horiz-adv-x="1232" d="M754 -299h-138l-350 926l-162 -62l-32 90l288 115l287 -770l39 -135q6 37 29 137l407 1649h117z" />
<glyph unicode="&#x221e;" horiz-adv-x="1648" d="M1538 575q0 -147 -98 -243q-94 -90 -223 -90q-162 0 -392 254q-225 -254 -401 -254q-129 0 -221 94q-94 96 -94 233q0 143 94 238q94 94 237 94q174 0 394 -254q121 133 174 174q106 80 223 80q137 0 223 -90q84 -90 84 -233v-3zM440 338q111 0 332 227 q-201 244 -346 244q-98 0 -158 -72q-57 -70 -57 -170q0 -96 61 -161q66 -68 166 -68h2zM1219 809q-90 0 -193 -88q-33 -29 -78 -78l-63 -68q219 -238 340 -237q96 0 155 74q55 68 56 157q0 111 -62 176q-59 63 -153 64h-2z" />
<glyph unicode="&#x222b;" horiz-adv-x="753" d="M698 1567q-33 23 -82 22q-72 0 -110 -45q-74 -82 -74 -358q0 -154 17 -496q14 -342 14 -506q0 -268 -92 -401q-70 -102 -207 -102q-86 0 -144 34l29 107q59 -27 101 -27q61 0 100 45q76 94 76 346q0 164 -15 512q-16 348 -16 504q0 309 115 422q78 76 196 76 q63 0 117 -29z" />
<glyph unicode="&#x2248;" horiz-adv-x="1224" d="M1122 815q-111 -195 -278 -194q-88 0 -256 90q-131 70 -203 69q-115 0 -219 -155l-66 55q109 197 299 197q70 0 242 -86q139 -74 207 -74q117 0 211 155zM1122 455q-111 -193 -278 -193q-90 0 -256 88q-127 72 -203 72q-113 0 -219 -158l-66 58q111 197 297 196 q82 0 244 -86q143 -74 209 -74q115 0 209 154z" />
<glyph unicode="&#x2260;" horiz-adv-x="1224" d="M768 821h346v-98h-387l-147 -313h534v-99h-577l-119 -256l-80 39l102 217h-329v99h372l146 313h-518v98h561l116 250l78 -39z" />
<glyph unicode="&#x2264;" horiz-adv-x="1224" d="M123 651v103l985 473v-117l-877 -403v-5l877 -407v-117zM111 -4v98h1003v-98h-1003z" />
<glyph unicode="&#x2265;" horiz-adv-x="1224" d="M1110 754v-103l-985 -473v117l874 405v5l-876 405v117zM111 -4v98h1001v-98h-1001z" />
<glyph unicode="&#x25ca;" horiz-adv-x="1234" d="M676 -100h-123l-436 794l440 795h123l436 -795zM657 1268q-29 61 -41 98h-4q-18 -53 -43 -98l-313 -570l319 -581q29 -57 39 -94h7q18 57 38 94l316 573z" />
<glyph unicode="&#x25fc;" horiz-adv-x="1044" d="M0 1044h1044v-1044h-1044v1044z" />
<glyph unicode="&#xfb01;" horiz-adv-x="1024" d="M868 0h-159v1040h159v-1040zM874 1225h-176v180h176v-180zM606 1040v-127h-241v-913h-160v913h-185v127h185q4 166 31 222q76 164 268 163q37 0 102 -12v-127q-53 12 -82 12q-109 0 -141 -86q-23 -53 -18 -172h241z" />
<glyph unicode="&#xfb02;" horiz-adv-x="1024" d="M606 1040v-127h-241v-913h-160v913h-185v127h185q-18 385 309 385q47 0 92 -12v-127q-47 10 -86 10q-104 0 -139 -86q-20 -53 -16 -170h241zM709 0v1405h159v-1405h-159z" />
</font>
</defs>
</svg>
