<?xml version="1.0" standalone="no"?>
<!DOCTYPE svg PUBLIC "-//W3C//DTD SVG 1.1//EN" "http://www.w3.org/Graphics/SVG/1.1/DTD/svg11.dtd" >
<svg xmlns="http://www.w3.org/2000/svg">
<metadata></metadata>
<defs>
<font id="itc_franklin_gothic_stddemiIt" horiz-adv-x="1202" >
<font-face units-per-em="2048" ascent="1638" descent="-410" />
<missing-glyph horiz-adv-x="593" />
<glyph horiz-adv-x="0" />
<glyph horiz-adv-x="682" />
<glyph unicode=" "  horiz-adv-x="593" />
<glyph unicode="&#x09;" horiz-adv-x="593" />
<glyph unicode="&#xa0;" horiz-adv-x="593" />
<glyph unicode="!" horiz-adv-x="589" d="M362 0h-303l52 303h301zM188 412l52 954h350l-242 -954h-160z" />
<glyph unicode="&#x22;" horiz-adv-x="903" d="M387 805h-164l60 561h235zM743 805h-163l57 561h235z" />
<glyph unicode="#" d="M1049 420h-193l-96 -420h-203l96 420h-143l-96 -420h-199l96 420h-217l45 198h217l37 156h-215l45 199h215l90 393h199l-90 -393h143l90 393h201l-90 -393h190l-45 -199h-190l-35 -156h193zM735 774h-157l-35 -156h155z" />
<glyph unicode="$" d="M936 932q-61 184 -272 184q-86 0 -132 -39q-45 -39 -45 -110q0 -63 60 -95q45 -25 205 -63q221 -51 301 -156q72 -96 71 -217q0 -240 -202 -352q-117 -68 -299 -68l-37 -215h-164l39 228q-121 6 -258 110q-98 86 -152 262l268 64q16 -111 95 -160q78 -51 202 -51 q182 0 183 149q0 96 -144 134q-289 72 -364 143q-111 100 -111 260q0 231 219 344q100 49 265 55l28 170h164l-29 -184q231 -45 344 -285z" />
<glyph unicode="%" horiz-adv-x="1730" d="M1554 125q-106 -139 -266 -139q-137 0 -225 98q-86 98 -86 244q0 178 104 301t256 123q119 0 205 -78q106 -96 107 -279q-1 -147 -95 -270zM1294 164q61 0 86 74q31 78 31 182q2 78 -6 102q-20 51 -70 51q-63 0 -86 -63q-37 -100 -37 -225q0 -121 82 -121zM719 750 q-106 -139 -266 -140q-137 0 -226 99q-86 98 -86 243q0 178 105 301q104 123 256 123q119 0 205 -78q106 -96 106 -278q0 -147 -94 -270zM459 788q61 0 86 74q31 78 30 182q2 78 -6 103q-20 51 -69 51q-63 0 -86 -63q-37 -100 -37 -226q0 -121 82 -121zM471 0h-188 l1036 1370h190z" />
<glyph unicode="&#x26;" horiz-adv-x="1466" d="M1348 10q-96 -14 -154 -14q-145 0 -250 127q-199 -147 -428 -148q-225 0 -358 123q-121 113 -121 275q0 180 139 293q88 74 279 129q-90 147 -90 249q0 141 100 238q113 109 319 109q207 0 314 -105q86 -84 86 -209q0 -252 -344 -364l166 -226q119 113 178 295l274 -41 q-106 -252 -311 -440q51 -61 129 -61q43 0 100 10zM936 1063q0 70 -57 104q-41 25 -91 25q-63 0 -106 -37q-41 -37 -41 -92q0 -72 92 -189q203 60 203 189zM575 616q-221 -66 -221 -233q0 -84 62 -131q51 -41 127 -41q133 0 258 88z" />
<glyph unicode="'" horiz-adv-x="505" d="M213 805l59 561h236l-131 -561h-164z" />
<glyph unicode="(" horiz-adv-x="673" d="M293 -356q-113 205 -170 397q-59 199 -60 360q0 477 480 965h192q-193 -213 -293 -453q-129 -311 -129 -665q0 -293 146 -604h-166z" />
<glyph unicode=")" horiz-adv-x="673" d="M381 1366q115 -217 168 -395q61 -193 61 -365q0 -479 -479 -962h-194q186 195 294 452q129 311 129 666q0 184 -59 383q-29 96 -88 221h168z" />
<glyph unicode="*" horiz-adv-x="983" d="M555 1374l158 -26l-60 -295l297 55l23 -158l-299 -35l145 -264l-143 -71l-127 274l-207 -219l-111 113l222 204l-273 129l74 142l262 -148z" />
<glyph unicode="+" d="M1137 580h-398v-412h-219v412h-395v219h395v411h219v-411h398v-219z" />
<glyph unicode="," horiz-adv-x="542" d="M348 33l-246 -346h-118l194 313h-147l53 309h311z" />
<glyph unicode="-" horiz-adv-x="473" d="M-18 393l36 223h474l-37 -223h-473z" />
<glyph unicode="." horiz-adv-x="542" d="M31 0l53 309h311l-53 -309h-311z" />
<glyph unicode="/" horiz-adv-x="905" d="M-236 -356l1039 1722h184l-1034 -1722h-189z" />
<glyph unicode="0" d="M1143 551q-135 -575 -559 -576q-246 0 -377 193q-115 164 -115 412q0 276 129 512q164 305 465 305q231 0 363 -170q121 -160 120 -420q1 -135 -26 -256zM676 1163q-133 0 -191 -157q-82 -221 -82 -512q0 -285 189 -285q170 0 231 342q35 184 35 326q0 286 -182 286z" />
<glyph unicode="1" d="M1098 0h-1024l45 260h358l129 778q-111 -106 -375 -98l43 254q317 -4 463 207h230l-189 -1141h363z" />
<glyph unicode="2" d="M1024 0h-1012l39 297q410 250 613 399q178 135 178 267q0 80 -58 129q-53 43 -127 43q-186 0 -243 -250l-281 65q72 254 252 367q127 82 287 82q213 0 354 -123q139 -123 139 -309q0 -248 -254 -416q-135 -88 -538 -293h690z" />
<glyph unicode="3" d="M287 432q27 -88 73 -137q72 -80 189 -80q111 0 170 59q53 53 53 132q0 127 -110 167q-39 16 -156 17h-103l33 231h146q123 0 180 37q68 43 67 137q0 78 -57 123q-53 41 -133 41q-152 0 -229 -164l-269 74q55 131 146 207q147 123 364 123q207 0 344 -94 q147 -102 148 -281q0 -100 -49 -180q-72 -115 -222 -146q98 -37 156 -110q66 -92 66 -201q0 -160 -123 -278q-145 -141 -402 -142q-250 0 -405 150q-109 104 -144 264z" />
<glyph unicode="4" d="M1120 315h-205l-53 -315h-307l53 315h-571l41 250l653 819h363l-138 -827h205zM657 547l93 553l-453 -553h360z" />
<glyph unicode="5" d="M1128 1098h-602l-75 -316q102 117 266 117q172 0 295 -113q129 -121 129 -307q0 -209 -154 -352q-158 -147 -403 -147q-283 0 -445 192q-61 74 -86 188l303 48q41 -174 232 -175q117 0 180 76q53 63 53 156q0 92 -59 149q-57 53 -146 54q-125 0 -204 -111l-258 88 l172 721h874z" />
<glyph unicode="6" d="M918 975q-23 190 -189 190q-152 0 -231 -180q-59 -125 -72 -293q113 180 301 180q178 0 297 -122q117 -121 117 -295q0 -178 -115 -312q-139 -164 -385 -163q-231 0 -375 145q-158 160 -157 450q0 301 139 533q172 285 485 285q197 0 320 -113q117 -106 135 -283z M842 442q0 82 -56 142q-57 61 -147 61t-152 -61q-66 -63 -65 -162q0 -96 67 -154q61 -53 146 -53q147 0 194 139q13 39 13 88z" />
<glyph unicode="7" d="M1184 1147q-209 -176 -389 -514q-158 -291 -189 -633h-360q51 375 297 731q188 272 358 375h-704l47 260h962z" />
<glyph unicode="8" d="M240 803q-45 80 -45 162q0 154 129 272q152 141 407 141q203 0 328 -86t125 -229q0 -223 -289 -326q229 -115 229 -315q0 -184 -151 -305q-156 -125 -404 -125q-205 0 -344 71q-176 88 -176 267q0 98 62 184q86 119 264 162q-88 49 -135 127zM352 492q-43 -55 -43 -115 q0 -88 82 -141q76 -49 197 -50q100 0 168 37q80 45 80 131q0 74 -84 131q-63 41 -232 105q-111 -26 -168 -98zM930 1016q0 74 -56 125q-63 59 -180 59q-100 0 -162 -43q-59 -43 -59 -110q0 -139 291 -230q166 70 166 199z" />
<glyph unicode="9" d="M330 360q43 -141 182 -141q147 0 229 152q59 106 107 342q-119 -205 -316 -205q-164 0 -280 108q-129 119 -129 304q0 182 129 319q143 152 375 152q256 0 397 -174q125 -156 125 -410q0 -276 -141 -516q-180 -309 -506 -309q-205 0 -336 120q-76 72 -115 197zM840 961 q0 80 -56 139q-59 59 -143 59q-90 0 -154 -63q-61 -63 -61 -154q0 -84 55 -143t144 -60q147 0 200 138q15 39 15 84z" />
<glyph unicode=":" horiz-adv-x="542" d="M31 0l53 309h311l-53 -309h-311zM147 694l52 310h311l-51 -310h-312z" />
<glyph unicode=";" horiz-adv-x="542" d="M348 33l-246 -346h-118l194 313h-147l53 309h311zM147 694l52 310h311l-51 -310h-312z" />
<glyph unicode="&#x3c;" d="M1077 981l-590 -297l590 -297v-278l-887 458v236l887 459v-281z" />
<glyph unicode="=" d="M1135 381h-1010v219h1010v-219zM1135 758h-1010v219h1010v-219z" />
<glyph unicode="&#x3e;" d="M190 389l588 297l-588 297v279l887 -459v-236l-887 -458v280z" />
<glyph unicode="?" horiz-adv-x="1030" d="M582 0h-306l52 305h305zM358 414q18 158 39 211q33 78 129 149q141 106 174 141q43 47 43 113q0 74 -49 117q-43 37 -106 37q-158 0 -211 -221l-262 67q51 184 182 293q133 109 309 109q190 0 318 -107q133 -111 133 -293q0 -211 -197 -338q-168 -102 -201 -139 q-37 -39 -47 -139h-254z" />
<glyph unicode="@" horiz-adv-x="1583" d="M1120 602q-14 -76 -14 -96q0 -39 45 -39q82 0 147 88q68 92 68 221q0 197 -147 332q-145 133 -363 133q-229 0 -389 -164q-158 -164 -158 -401q0 -346 291 -496q104 -55 293 -55q170 0 389 88l59 -164q-92 -41 -147 -55q-154 -43 -326 -43q-373 0 -581 235 q-178 201 -178 482q0 315 223 530q219 209 532 209q293 0 490 -182q195 -182 194 -443q0 -201 -118 -348q-123 -152 -300 -151q-115 0 -180 86q-82 -90 -188 -90q-119 0 -197 98q-80 98 -80 252q0 182 107 301q100 113 242 112q76 0 155 -59l12 43h189zM920 813 q-35 37 -84 37q-63 0 -107 -64q-43 -61 -43 -155q0 -160 98 -160q68 0 123 72q53 72 54 164q0 65 -41 106z" />
<glyph unicode="A" horiz-adv-x="1259" d="M856 0l-43 301h-457l-131 -301h-297l650 1366h374l230 -1366h-326zM459 539h321l-82 546z" />
<glyph unicode="B" horiz-adv-x="1341" d="M866 1366q274 0 375 -133q66 -86 66 -207q0 -252 -308 -326q250 -74 250 -301q0 -201 -157 -315q-119 -84 -363 -84h-678l228 1366h587zM555 1137l-53 -320h215q143 0 194 31q66 41 66 135q0 154 -207 154h-215zM463 586l-57 -342h276q117 0 180 51q55 47 56 123 q0 168 -246 168h-209z" />
<glyph unicode="C" horiz-adv-x="1273" d="M963 838q16 293 -207 292q-158 0 -236 -180q-86 -199 -86 -430q0 -283 225 -282q193 0 277 251l281 -49q-156 -465 -582 -465q-289 0 -432 211q-109 162 -109 387q0 297 156 535q186 283 506 283q354 0 471 -291q37 -94 47 -248z" />
<glyph unicode="D" horiz-adv-x="1337" d="M281 1366h401q319 0 467 -186q137 -182 137 -439q0 -403 -264 -616q-156 -125 -492 -125h-479zM393 242h164q201 0 289 106q121 145 121 416q0 360 -287 360h-139z" />
<glyph unicode="E" horiz-adv-x="1169" d="M1198 1106h-641l-47 -281h537l-41 -247h-537l-55 -318h653l-43 -260h-973l230 1366h960z" />
<glyph unicode="F" horiz-adv-x="1089" d="M1163 1106h-612l-51 -305h520l-43 -260h-508l-90 -541h-328l230 1366h925z" />
<glyph unicode="G" horiz-adv-x="1347" d="M1145 -10h-127l-37 184q-156 -193 -375 -192q-238 0 -379 168q-133 160 -133 413q0 332 170 567q190 262 510 263q203 0 336 -109q143 -117 182 -340l-295 -47q-45 244 -233 244q-201 0 -291 -273q-57 -176 -57 -338q0 -176 102 -249q55 -41 150 -41q199 0 266 243h-281 l41 248h574z" />
<glyph unicode="H" horiz-adv-x="1314" d="M1094 0h-301l96 569h-440l-97 -569h-301l230 1366h299l-88 -537h440l90 537h299z" />
<glyph unicode="I" horiz-adv-x="587" d="M367 0h-316l230 1366h313z" />
<glyph unicode="J" horiz-adv-x="798" d="M662 418q-45 -262 -162 -346q-131 -94 -342 -95q-86 0 -226 23l37 242q78 -12 131 -13q121 0 176 37q41 29 60 88q12 47 53 281l121 731h309z" />
<glyph unicode="K" horiz-adv-x="1280" d="M907 874l264 -874h-323l-172 635l-268 -307l-56 -328h-301l230 1366h299l-107 -643l109 137l436 506h321z" />
<glyph unicode="L" horiz-adv-x="1001" d="M410 260h536l-43 -260h-852l230 1366h313z" />
<glyph unicode="M" horiz-adv-x="1767" d="M1546 0h-319l192 1143l-551 -1143h-182l-182 1155l-195 -1155h-258l230 1366h479l121 -836l399 836h496z" />
<glyph unicode="N" horiz-adv-x="1335" d="M1114 0h-256l-397 989q-8 -113 -66 -467l-86 -522h-258l230 1366h346l327 -834q6 53 62 402l71 432h254z" />
<glyph unicode="O" horiz-adv-x="1316" d="M1231 465q-164 -485 -598 -485q-244 0 -391 163q-145 162 -146 428q0 315 158 549q180 266 483 266q248 0 393 -161q147 -164 148 -443q0 -184 -47 -317zM739 1135q-197 0 -280 -277q-49 -158 -49 -332q0 -295 235 -295q188 0 273 279q49 170 49 317q-1 308 -228 308z " />
<glyph unicode="P" horiz-adv-x="1228" d="M365 0h-314l230 1366h487q231 0 334 -70q162 -109 162 -323q0 -215 -131 -336q-137 -125 -392 -125h-290zM553 1122l-61 -370h235q231 0 231 198q0 172 -241 172h-164z" />
<glyph unicode="Q" horiz-adv-x="1327" d="M1135 -256q-92 -10 -152 -10q-143 0 -215 71q-68 68 -59 183q-33 -6 -60 -6q-18 -2 -45 -2q-211 0 -354 147q-160 164 -160 451q0 285 141 514q178 295 508 294q276 0 422 -194q123 -164 123 -404q0 -248 -100 -446q-106 -207 -291 -291q10 -86 145 -86q39 0 109 6z M637 231q195 0 283 275q49 158 49 315q0 313 -230 314q-150 0 -227 -136q-111 -186 -111 -473q0 -295 236 -295z" />
<glyph unicode="R" horiz-adv-x="1345" d="M356 0h-305l228 1366h505q266 0 379 -92q137 -117 137 -303q0 -180 -126 -293q-68 -57 -181 -86l170 -592h-317l-144 543h-253zM541 1126l-60 -348h203q150 0 211 31q88 43 88 156q0 162 -235 161h-207z" />
<glyph unicode="S" horiz-adv-x="1175" d="M858 965q-59 170 -233 170q-90 0 -142 -45q-45 -39 -45 -95q0 -66 58 -100q37 -23 139 -47q223 -57 313 -119q150 -102 150 -303q0 -182 -123 -305q-147 -147 -420 -148q-473 0 -561 416l293 39q49 -203 276 -203q115 0 172 54q45 43 45 106q0 70 -57 104q-39 23 -182 62 q-174 47 -258 104q-150 104 -150 291q0 164 111 289q135 152 381 151q231 0 376 -131q92 -84 136 -225z" />
<glyph unicode="T" horiz-adv-x="1001" d="M758 1106l-185 -1106h-313l184 1106h-344l43 260h1002l-43 -260h-344z" />
<glyph unicode="U" horiz-adv-x="1316" d="M1214 602q-45 -270 -86 -356q-125 -260 -507 -260q-229 0 -361 94q-147 102 -147 301q0 59 12 135l141 850h336l-133 -799q-14 -100 -14 -149q0 -88 59 -129q68 -43 158 -43q195 0 233 149q12 43 45 242l121 729h270z" />
<glyph unicode="V" horiz-adv-x="1124" d="M647 0h-330l-200 1366h313l133 -1022l441 1022h270z" />
<glyph unicode="W" horiz-adv-x="1814" d="M1378 0h-295l-120 952l-367 -952h-291l-162 1366h314l86 -946l360 946h285l115 -946l356 946h278z" />
<glyph unicode="X" horiz-adv-x="1220" d="M813 729l330 -729h-342l-221 516l-357 -516h-315l551 729l-291 637h338l188 -428l293 428h305z" />
<glyph unicode="Y" horiz-adv-x="1085" d="M729 573l-96 -573h-314l97 573l-340 793h340l209 -541l354 541h299z" />
<glyph unicode="Z" horiz-adv-x="1173" d="M791 1114q-229 -8 -326 -8h-297l43 260h1012l-31 -209l-799 -903l416 6h281l-43 -260h-1090l37 221z" />
<glyph unicode="[" horiz-adv-x="673" d="M444 1241l-247 -1474h223l-21 -123h-407l289 1722h405l-20 -125h-222z" />
<glyph unicode="\" horiz-adv-x="905" d="M201 1366h172l463 -1722h-177z" />
<glyph unicode="]" horiz-adv-x="673" d="M231 -231l246 1474h-223l20 123h408l-289 -1722h-407l20 125h225z" />
<glyph unicode="^" d="M483 1405h254l348 -870h-231l-242 612l-239 -612h-232z" />
<glyph unicode="_" horiz-adv-x="1024" d="M1024 -154v-102h-1024v102h1024z" />
<glyph unicode="`" horiz-adv-x="1024" d="M350 1358l92 155l359 -241l-62 -111z" />
<glyph unicode="a" horiz-adv-x="1107" d="M125 723q45 143 164 223q129 88 329 88q223 0 326 -108q72 -76 72 -183q0 -41 -29 -223l-45 -260q-20 -127 -20 -192q0 -31 6 -68h-285q-2 63 0 92l8 84q-43 -106 -147 -160q-80 -43 -178 -43q-135 0 -220 80q-84 78 -83 197q0 225 260 319q143 49 428 66q18 51 18 92 q0 121 -133 121q-143 0 -205 -156zM459 453q-129 -51 -129 -168q0 -123 114 -123q193 0 246 330q-147 -6 -231 -39z" />
<glyph unicode="b" horiz-adv-x="1107" d="M479 879q106 162 258 161q135 0 217 -98q94 -111 95 -324q0 -242 -113 -423q-133 -215 -356 -215q-201 0 -299 182q-53 -86 -80 -162h-162l18 86l209 1280h295zM754 664q0 172 -131 172q-98 0 -148 -107q-74 -150 -74 -381q0 -166 136 -166q137 0 192 269q25 111 25 213z " />
<glyph unicode="c" horiz-adv-x="1038" d="M748 625q2 102 -54 151q-41 37 -96 37q-135 0 -188 -203q-27 -100 -27 -211q0 -188 154 -188q137 0 190 180l248 -35q-129 -377 -473 -376q-219 0 -336 147q-102 127 -103 315q0 217 121 385q147 209 420 209q221 0 332 -147q82 -113 76 -248z" />
<glyph unicode="d" horiz-adv-x="1105" d="M621 0l26 160q-111 -180 -264 -180q-172 0 -256 139q-68 113 -68 280q0 213 97 398q123 242 348 241q195 0 241 -188l86 516h295l-229 -1366h-276zM709 653q0 84 -43 133q-39 45 -97 45q-96 0 -145 -120q-61 -162 -62 -351q0 -172 125 -172q135 0 185 203q37 158 37 262z " />
<glyph unicode="e" horiz-adv-x="1079" d="M358 457q-6 -43 -6 -76q0 -109 62 -160q45 -37 110 -37q147 0 201 162l250 -43q-123 -330 -469 -330q-217 0 -340 146q-111 131 -111 323q0 221 131 396q154 201 408 200q197 0 313 -129q117 -125 117 -331q0 -39 -10 -121h-656zM745 625q4 33 5 59q0 88 -52 133 q-43 35 -102 35q-158 0 -217 -227h366z" />
<glyph unicode="f" horiz-adv-x="651" d="M481 786l-131 -786h-295l133 786h-120l28 232h131q25 205 115 299q104 111 324 110q61 0 122 -10l-16 -235q-49 8 -90 8q-94 0 -131 -51q-20 -31 -33 -121h199l-39 -232h-197z" />
<glyph unicode="g" horiz-adv-x="1050" d="M1053 1053q-37 6 -66 6q-115 0 -129 -86q143 -96 143 -238q0 -164 -139 -254q-121 -78 -301 -78q-61 0 -172 19q-82 -37 -82 -90q0 -45 45 -62q27 -8 119 -12q289 -10 360 -43q154 -70 154 -231q0 -119 -86 -209q-125 -133 -496 -133q-481 0 -481 221q0 131 191 205 q-88 68 -88 165q0 94 63 158q41 37 152 94q-115 84 -115 213q0 174 154 267q121 74 288 73q100 0 174 -20q35 238 244 237l80 -4zM549 561q104 0 151 74q29 45 29 104q0 133 -151 133q-96 0 -144 -65q-33 -45 -33 -96q1 -150 148 -150zM539 -8l-263 10q-33 0 -67 -27 q-37 -29 -37 -65q0 -102 279 -103q260 0 260 109q0 72 -172 76z" />
<glyph unicode="h" horiz-adv-x="1120" d="M618 0l105 616q8 49 8 89q0 102 -108 102q-88 0 -142 -76q-37 -55 -67 -246l-82 -485h-293l227 1366h295l-84 -498q113 166 285 166q115 0 190 -69q80 -72 80 -189q0 -55 -31 -239l-88 -537h-295z" />
<glyph unicode="i" horiz-adv-x="550" d="M344 0h-305l170 1018h305zM526 1096h-305l49 288h305z" />
<glyph unicode="j" horiz-adv-x="548" d="M362 129q-47 -279 -98 -367q-82 -135 -287 -135q-47 0 -180 15l35 233q41 -4 59 -4q98 0 132 72q4 12 45 235l141 840h303zM221 1094l49 290h303l-49 -290h-303z" />
<glyph unicode="k" horiz-adv-x="1107" d="M819 674l217 -674h-305l-143 467l-211 -201l-45 -266h-293l227 1366h289l-133 -797l438 449h314z" />
<glyph unicode="l" horiz-adv-x="538" d="M332 0h-293l227 1366h293z" />
<glyph unicode="m" horiz-adv-x="1667" d="M1268 567q14 96 14 117q0 119 -108 119q-100 0 -150 -105q-29 -59 -51 -196l-84 -502h-285l101 606q12 68 12 92q0 111 -103 111q-68 0 -116 -55q-51 -66 -90 -303l-76 -451h-293l170 1018h266l-29 -174q125 197 293 196q176 0 250 -190q129 184 299 184q137 0 215 -84 q74 -80 74 -202q0 -45 -23 -185l-94 -563h-289z" />
<glyph unicode="n" horiz-adv-x="1116" d="M451 825q113 211 305 211q125 0 200 -82q72 -78 72 -194q0 -45 -24 -189l-95 -571h-295l101 594q14 94 14 113q0 106 -104 106q-106 0 -156 -104q-29 -59 -53 -205l-84 -504h-295l170 1018h276z" />
<glyph unicode="o" horiz-adv-x="1093" d="M586 1042q199 0 321 -131q123 -131 123 -346q0 -242 -145 -411q-150 -174 -375 -174q-195 0 -320 126q-127 129 -127 338q0 100 31 213q125 385 492 385zM365 371q0 -197 151 -197q104 0 152 117q66 158 65 360q0 195 -147 195t-197 -242q-24 -120 -24 -233z" />
<glyph unicode="p" horiz-adv-x="1105" d="M-20 -356l229 1374h266l-29 -184q113 197 281 196q152 0 238 -119q80 -115 79 -299q0 -244 -108 -426q-123 -207 -320 -206q-201 0 -260 170l-84 -506h-292zM715 770q-35 55 -101 55q-115 0 -165 -145q-53 -150 -54 -318q0 -100 54 -149q37 -33 86 -33q135 0 192 312 q16 86 16 170q1 63 -28 108z" />
<glyph unicode="q" horiz-adv-x="1107" d="M547 -356l82 487q-88 -156 -250 -156q-156 0 -244 125q-78 111 -78 281q0 217 99 403q133 250 387 250q193 0 272 -182q63 70 98 166h164q-20 -82 -71 -393l-164 -981h-295zM711 684q0 162 -136 162q-94 0 -137 -96q-86 -186 -86 -400q0 -186 127 -186q98 0 150 106 q45 92 73 303q9 70 9 111z" />
<glyph unicode="r" horiz-adv-x="720" d="M344 0h-305l170 1018h283l-39 -236q63 147 135 201q63 49 170 47l-31 -293q-178 4 -256 -151q-49 -96 -90 -367z" />
<glyph unicode="s" horiz-adv-x="952" d="M674 705q-16 82 -78 112q-55 29 -121 29q-57 0 -96 -31q-35 -29 -35 -67q0 -49 47 -68q35 -14 170 -37q307 -51 307 -303q0 -143 -102 -244q-121 -119 -340 -119q-248 0 -369 125q-66 66 -90 183l252 28q8 -76 72 -110q59 -33 147 -33q164 0 164 106q0 49 -45 70 q-29 14 -123 31q-152 25 -227 69q-133 78 -133 240q0 143 92 240q111 113 313 112q211 0 328 -112q68 -63 94 -176z" />
<glyph unicode="t" horiz-adv-x="735" d="M498 786l-68 -409q-10 -61 -10 -88q0 -82 131 -82q63 0 106 8l-36 -223q-121 -16 -203 -17q-303 0 -303 246q0 61 32 230l68 335h-158l39 232h170l70 280l256 7l-47 -287h233l-39 -232h-241z" />
<glyph unicode="u" horiz-adv-x="1097" d="M891 0h-270l30 182q-125 -207 -309 -207q-102 0 -170 56q-86 70 -86 205q0 53 20 172l103 610h293l-107 -629l-4 -39q-6 -39 -6 -51q0 -88 84 -88q82 0 137 74q49 76 78 243l82 490h295z" />
<glyph unicode="v" horiz-adv-x="931" d="M512 0h-246l-200 1018h311l106 -633l293 633h234z" />
<glyph unicode="w" horiz-adv-x="1474" d="M1081 0h-262l-74 657l-256 -657h-256l-151 1018h305l78 -635l242 635h272l59 -635l277 635h227z" />
<glyph unicode="x" horiz-adv-x="970" d="M651 532l242 -532h-318l-147 358l-260 -358h-260l424 545l-223 473h325l127 -297l211 297h264z" />
<glyph unicode="y" horiz-adv-x="921" d="M545 55q-119 -246 -185 -313q-100 -98 -294 -98q-74 0 -109 6l16 225q88 -10 123 -10q92 0 140 39q35 29 63 106l-233 1008h307l121 -619l276 619h229z" />
<glyph unicode="z" horiz-adv-x="884" d="M350 215h445l-35 -215h-803l33 197l532 606h-416l35 215h774l-32 -199z" />
<glyph unicode="{" horiz-adv-x="641" d="M313 -100q-10 -57 -10 -82q0 -39 27 -47q16 -6 84 -4l-21 -119l-135 -4q-199 0 -199 166q0 57 9 108l63 377q6 29 6 63q0 84 -90 101l19 110q115 25 137 146l61 377q27 160 103 223q61 51 178 51l135 -4l-21 -119q-86 2 -108 -18q-18 -18 -35 -115l-61 -365 q-27 -162 -162 -241q88 -61 88 -160q0 -37 -6 -80z" />
<glyph unicode="|" horiz-adv-x="1001" d="M684 -512h-283v2048h283v-2048z" />
<glyph unicode="}" horiz-adv-x="641" d="M326 1110l10 82q0 39 -27 47q-16 6 -82 4l19 119l135 4q199 0 199 -166q0 -57 -9 -108l-63 -377q-6 -31 -6 -64q0 -84 92 -100l-19 -111q-117 -23 -137 -145l-63 -377q-27 -158 -101 -221q-61 -53 -180 -53l-135 4l21 119q86 -2 106 18q23 18 37 115l61 364 q27 160 162 242q-88 59 -88 162q0 33 6 77z" />
<glyph unicode="~" d="M133 588q92 285 309 284q68 0 213 -55q129 -47 176 -47q88 0 148 104l149 -88q-59 -123 -108 -176q-88 -96 -217 -96q-53 0 -209 57q-129 45 -166 45q-86 0 -149 -124z" />
<glyph unicode="&#xa1;" horiz-adv-x="589" d="M227 1016h303l-51 -303h-303zM399 604l-51 -954h-348l242 954h157z" />
<glyph unicode="&#xa2;" d="M797 1174q252 -61 288 -345l-251 -28q12 123 -60 170q-35 25 -84 24q-117 0 -166 -153q-37 -111 -37 -234q0 -190 152 -190q127 0 184 172l226 -43q-53 -156 -150 -240q-100 -88 -252 -94l-45 -266h-137l47 278q-129 33 -201 121q-96 121 -96 301q0 184 96 338 q123 195 348 203l33 198h139z" />
<glyph unicode="&#xa3;" d="M1157 369q-82 -215 -239 -306q-111 -63 -424 -63h-560l33 260h109q135 0 200 72q59 68 64 293h-195l33 206h158q-6 188 53 322q109 242 412 242q309 0 395 -273l-274 -100q-16 133 -121 133q-156 0 -156 -246l2 -78h225l-34 -206h-197q-14 -240 -166 -365h109 q133 0 186 29q74 37 117 160z" />
<glyph unicode="&#xa5;" d="M358 874l-190 492h332l180 -551l328 551h290l-321 -492h240l-27 -163h-320l-88 -138l-4 -26h383l-26 -164h-385l-64 -383h-305l63 383h-374l28 164h373l4 26l-51 138h-299l27 163h206z" />
<glyph unicode="&#xa7;" horiz-adv-x="1193" d="M897 1079q-70 119 -190 119q-74 0 -121 -35q-45 -35 -45 -86q0 -63 141 -125q238 -98 301 -147q92 -70 92 -197q0 -164 -172 -319q111 -74 111 -228q0 -209 -160 -325q-141 -104 -346 -105q-184 0 -313 90q-121 82 -162 218l258 41q61 -145 239 -146q104 0 164 45 q51 41 51 101q0 49 -32 79q-47 45 -189 105q-272 115 -323 178q-43 57 -43 145q0 168 188 342q-82 66 -82 177q0 166 144 274q133 100 313 100q248 0 393 -235zM528 719q-98 -84 -98 -139t86 -103l195 -86q90 78 90 137q0 68 -121 121z" />
<glyph unicode="&#xa8;" horiz-adv-x="1024" d="M557 1221q-33 -29 -82 -29q-53 0 -88 37q-31 33 -31 78q0 43 31 77q35 39 88 39q45 0 80 -26q41 -35 41 -90q0 -53 -39 -86zM891 1221q-33 -29 -82 -29q-53 0 -88 37q-31 33 -31 78q0 43 31 77q35 39 88 39q45 0 80 -26q41 -35 41 -90q0 -53 -39 -86z" />
<glyph unicode="&#xa9;" horiz-adv-x="1570" d="M965 766q8 174 -121 174q-72 0 -109 -57q-76 -98 -76 -289q0 -168 134 -168q104 0 159 152l195 -33q-94 -287 -371 -287q-184 0 -278 127q-72 98 -72 236q0 180 100 321q117 166 318 166q229 0 303 -174q29 -61 33 -158zM1321 195q-207 -215 -506 -215q-297 0 -502 208 q-203 205 -202 494q0 289 202 494q205 211 502 210q299 0 506 -215q197 -207 197 -489q0 -280 -197 -487zM1249 1104q-176 184 -434 184q-256 0 -432 -180q-174 -178 -174 -426t174 -424q176 -178 432 -178t432 182q170 178 170 420q0 244 -168 422z" />
<glyph unicode="&#xaa;" horiz-adv-x="727" d="M172 1184q66 197 320 196q160 0 225 -82q33 -45 33 -98q0 -29 -17 -131l-26 -154q-12 -66 -13 -108l4 -51h-196q-2 49 0 65q-70 -80 -189 -80q-90 0 -145 50q-55 49 -55 120q0 205 428 232q8 20 8 47q0 66 -74 65q-80 0 -117 -92zM387 864q109 0 137 180 q-199 -12 -198 -112q0 -68 61 -68z" />
<glyph unicode="&#xab;" horiz-adv-x="706" d="M479 213l-139 291l213 293h102l-147 -299l67 -285h-96zM209 213l-141 291l213 293h102l-150 -299l70 -285h-94z" />
<glyph unicode="&#xac;" d="M915 758h-790v219h1010v-596h-220v377z" />
<glyph unicode="&#xad;" horiz-adv-x="473" d="M-18 393l36 223h474l-37 -223h-473z" />
<glyph unicode="&#xae;" horiz-adv-x="1021" d="M764 719h-148l-41 166h-45l-30 -166h-144l80 450h207q166 0 166 -133q0 -98 -96 -133zM547 987h45q70 0 70 43q0 37 -56 37h-45zM276 1253q127 127 308 127q178 0 307 -127q129 -129 129 -311q0 -180 -129 -307q-127 -127 -307 -127t-308 127q-129 127 -129 307 q0 184 129 311zM330 688q104 -104 254 -104t254 106q106 104 106 252q0 152 -106 258q-106 104 -254 105q-150 0 -254 -105q-106 -106 -107 -258q1 -150 107 -254z" />
<glyph unicode="&#xaf;" horiz-adv-x="1024" d="M315 1231l23 143h629l-25 -143h-627z" />
<glyph unicode="&#xb0;" d="M899 897q-82 -82 -197 -82q-119 0 -202 86q-84 84 -84 205q0 119 82 203t200 84q119 0 203 -86q84 -84 84 -205q0 -123 -86 -205zM799 1204q-41 41 -99 41q-57 0 -98 -41q-39 -41 -39 -98t41 -100q41 -41 98 -41t97 41q39 41 39 98q0 59 -39 100z" />
<glyph unicode="&#xb1;" d="M1096 580h-398v-410h-217v410h-397v219h397v411h217v-411h398v-219zM1096 -102h-1012v219h1012v-219z" />
<glyph unicode="&#xb4;" horiz-adv-x="1024" d="M428 1272l410 241l75 -161l-436 -191z" />
<glyph unicode="&#xb5;" horiz-adv-x="1026" d="M137 1018h279l-94 -551q-12 -68 -13 -109q0 -66 45 -110q43 -47 111 -47q82 0 141 63q57 59 84 209l94 545h279l-174 -1018h-275l19 113q-84 -133 -209 -133t-164 122l-76 -458h-278z" />
<glyph unicode="&#xb6;" d="M1274 1239h-152l-264 -1581h-119l265 1581h-123l-265 -1581h-127l170 1008h-45q-252 0 -313 20q-168 53 -168 266q0 268 209 371q80 41 397 43h555zM680 788l76 453q-197 0 -254 -31q-115 -59 -115 -245q0 -119 76 -154q47 -23 186 -23h31z" />
<glyph unicode="&#xb7;" horiz-adv-x="542" d="M90 350l51 309h312l-52 -309h-311z" />
<glyph unicode="&#xb8;" horiz-adv-x="1024" d="M420 -100q78 10 127 -23q51 -37 51 -104q0 -82 -68 -135q-66 -49 -161 -50q-90 0 -199 58l47 86q80 -45 129 -45q84 0 84 73q0 63 -96 64l-53 -4l92 180h100z" />
<glyph unicode="&#xba;" horiz-adv-x="727" d="M225 1264q94 117 269 116q111 0 188 -73q86 -80 86 -215q0 -145 -94 -248q-94 -102 -238 -103q-129 0 -209 82q-80 78 -80 197q0 146 78 244zM440 870q47 0 74 45q47 80 47 226q0 111 -82 110q-82 0 -108 -135q-14 -57 -15 -131q0 -115 84 -115z" />
<glyph unicode="&#xbb;" horiz-adv-x="706" d="M227 797l138 -291l-213 -293h-101l148 299l-68 285h96zM496 797l143 -291l-215 -293h-102l149 299l-70 285h95z" />
<glyph unicode="&#xbf;" horiz-adv-x="1030" d="M449 1016h303l-52 -305h-303zM672 602q-18 -156 -39 -211q-33 -78 -129 -149q-139 -104 -172 -140q-45 -51 -45 -116q0 -72 47 -113q45 -39 108 -39q152 0 211 221l260 -67q-49 -180 -178 -289q-133 -113 -313 -113q-188 0 -316 107q-133 111 -133 293q0 211 197 336 q168 104 201 141q37 39 47 139h254z" />
<glyph unicode="&#xc0;" horiz-adv-x="1259" d="M856 0l-43 301h-457l-131 -301h-297l650 1366h374l230 -1366h-326zM459 539h321l-82 546zM475 1651l88 157l363 -215l-56 -112z" />
<glyph unicode="&#xc1;" horiz-adv-x="1259" d="M856 0l-43 301h-457l-131 -301h-297l650 1366h374l230 -1366h-326zM459 539h321l-82 546zM571 1593l416 215l76 -163l-445 -164z" />
<glyph unicode="&#xc2;" horiz-adv-x="1259" d="M856 0l-43 301h-457l-131 -301h-297l650 1366h374l230 -1366h-326zM459 539h321l-82 546zM922 1489l-134 108l-178 -108l-209 20l414 287l315 -287z" />
<glyph unicode="&#xc3;" horiz-adv-x="1259" d="M856 0l-43 301h-457l-131 -301h-297l650 1366h374l230 -1366h-326zM459 539h321l-82 546zM391 1647q127 104 240 104q68 0 155 -43q61 -31 93 -31q80 0 163 82l68 -119q-131 -123 -256 -122q-61 0 -115 26q-102 47 -133 47q-63 0 -147 -61z" />
<glyph unicode="&#xc4;" horiz-adv-x="1259" d="M856 0l-43 301h-457l-131 -301h-297l650 1366h374l230 -1366h-326zM459 539h321l-82 546zM702 1532q-37 -31 -90 -31q-59 0 -94 39q-35 37 -35 86t33 86q37 41 96 41q49 0 88 -29q43 -37 43 -98q0 -59 -41 -94zM1071 1532q-37 -31 -90 -31q-59 0 -94 39q-35 37 -35 86 t33 86q37 41 96 41q49 0 88 -29q43 -37 43 -98q0 -59 -41 -94z" />
<glyph unicode="&#xc5;" horiz-adv-x="1259" d="M856 0l-43 301h-457l-131 -301h-297l650 1366h374l230 -1366h-326zM459 539h321l-82 546zM928 1503q-61 -55 -146 -55q-84 0 -143 55t-59 133t57 133q59 57 145 58q84 0 146 -55q59 -55 59 -136q0 -78 -59 -133zM782 1714q-80 0 -80 -76q0 -78 80 -77q33 0 58 22 q25 23 24 53q0 78 -82 78z" />
<glyph unicode="&#xc6;" horiz-adv-x="1724" d="M1145 1106l-47 -275h508l-43 -247h-506l-53 -324h616l-43 -260h-918l58 344h-334l-209 -344h-272l829 1366h1063l-43 -260h-606zM512 584h244l92 546z" />
<glyph unicode="&#xc7;" horiz-adv-x="1273" d="M578 -104q29 6 55 6q72 0 119 -41q43 -41 43 -97q0 -98 -84 -157q-74 -53 -170 -53q-131 0 -240 67l49 86q98 -47 152 -47q109 0 108 86q0 72 -104 72q-20 0 -80 -11l82 179q-233 49 -340 260q-74 147 -74 327q0 297 156 535q186 283 504 283q356 0 473 -291 q37 -94 47 -248l-311 -14q16 293 -209 292q-160 0 -234 -182q-86 -199 -86 -428q0 -283 225 -282q186 0 277 251l281 -49q-162 -479 -603 -465z" />
<glyph unicode="&#xc8;" horiz-adv-x="1169" d="M1198 1106h-641l-47 -281h537l-41 -247h-537l-55 -318h653l-43 -260h-973l230 1366h960zM475 1651l88 157l363 -215l-56 -112z" />
<glyph unicode="&#xc9;" horiz-adv-x="1169" d="M1198 1106h-641l-47 -281h537l-41 -247h-537l-55 -318h653l-43 -260h-973l230 1366h960zM571 1593l416 215l76 -163l-445 -164z" />
<glyph unicode="&#xca;" horiz-adv-x="1169" d="M1198 1106h-641l-47 -281h537l-41 -247h-537l-55 -318h653l-43 -260h-973l230 1366h960zM922 1489l-134 108l-178 -108l-209 20l414 287l315 -287z" />
<glyph unicode="&#xcb;" horiz-adv-x="1169" d="M1198 1106h-641l-47 -281h537l-41 -247h-537l-55 -318h653l-43 -260h-973l230 1366h960zM702 1532q-37 -31 -90 -31q-59 0 -94 39q-35 37 -35 86t33 86q37 41 96 41q49 0 88 -29q43 -37 43 -98q0 -59 -41 -94zM1071 1532q-37 -31 -90 -31q-59 0 -94 39q-35 37 -35 86 t33 86q37 41 96 41q49 0 88 -29q43 -37 43 -98q0 -59 -41 -94z" />
<glyph unicode="&#xcc;" horiz-adv-x="587" d="M367 0h-316l230 1366h313zM209 1651l88 157l362 -215l-55 -112z" />
<glyph unicode="&#xcd;" horiz-adv-x="587" d="M367 0h-316l230 1366h313zM295 1593l416 215l75 -163l-444 -164z" />
<glyph unicode="&#xce;" horiz-adv-x="587" d="M367 0h-316l230 1366h313zM614 1489l-133 108l-178 -108l-209 20l414 287l315 -287z" />
<glyph unicode="&#xcf;" horiz-adv-x="587" d="M367 0h-316l230 1366h313zM375 1532q-37 -31 -90 -31q-59 0 -95 39q-35 37 -34 86q0 49 32 86q37 41 97 41q49 0 88 -29q43 -37 43 -98q0 -59 -41 -94zM743 1532q-37 -31 -90 -31q-59 0 -94 39q-35 37 -35 86t33 86q37 41 96 41q49 0 88 -29q43 -37 43 -98q0 -59 -41 -94 z" />
<glyph unicode="&#xd0;" horiz-adv-x="1337" d="M68 825h122l91 541h401q324 0 467 -186q137 -174 137 -437q0 -406 -264 -614q-160 -129 -492 -129h-479l96 578h-122zM449 578l-56 -336h164q199 0 289 110q121 150 121 412q0 362 -287 362h-139l-49 -301h258l-41 -247h-260z" />
<glyph unicode="&#xd1;" horiz-adv-x="1335" d="M1114 0h-256l-397 989q-8 -113 -66 -467l-86 -522h-258l230 1366h346l327 -834q6 53 62 402l71 432h254zM473 1647q127 104 240 104q68 0 155 -43q61 -31 93 -31q80 0 163 82l68 -119q-131 -123 -256 -122q-61 0 -115 26q-102 47 -133 47q-63 0 -147 -61z" />
<glyph unicode="&#xd2;" horiz-adv-x="1316" d="M1231 465q-164 -485 -598 -485q-244 0 -391 163q-145 162 -146 428q0 315 158 549q180 266 483 266q248 0 393 -161q147 -164 148 -443q0 -184 -47 -317zM739 1135q-197 0 -280 -277q-49 -158 -49 -332q0 -295 235 -295q188 0 273 279q49 170 49 317q-1 308 -228 308z M475 1651l88 157l363 -215l-56 -112z" />
<glyph unicode="&#xd3;" horiz-adv-x="1316" d="M1231 465q-164 -485 -598 -485q-244 0 -391 163q-145 162 -146 428q0 315 158 549q180 266 483 266q248 0 393 -161q147 -164 148 -443q0 -184 -47 -317zM739 1135q-197 0 -280 -277q-49 -158 -49 -332q0 -295 235 -295q188 0 273 279q49 170 49 317q-1 308 -228 308z M571 1593l416 215l76 -163l-445 -164z" />
<glyph unicode="&#xd4;" horiz-adv-x="1316" d="M1231 465q-164 -485 -598 -485q-244 0 -391 163q-145 162 -146 428q0 315 158 549q180 266 483 266q248 0 393 -161q147 -164 148 -443q0 -184 -47 -317zM739 1135q-197 0 -280 -277q-49 -158 -49 -332q0 -295 235 -295q188 0 273 279q49 170 49 317q-1 308 -228 308z M922 1489l-134 108l-178 -108l-209 20l414 287l315 -287z" />
<glyph unicode="&#xd5;" horiz-adv-x="1316" d="M1231 465q-164 -485 -598 -485q-244 0 -391 163q-145 162 -146 428q0 315 158 549q180 266 483 266q248 0 393 -161q147 -164 148 -443q0 -184 -47 -317zM739 1135q-197 0 -280 -277q-49 -158 -49 -332q0 -295 235 -295q188 0 273 279q49 170 49 317q-1 308 -228 308z M442 1647q127 104 240 104q68 0 156 -43q61 -31 92 -31q80 0 164 82l67 -119q-131 -123 -256 -122q-61 0 -114 26q-102 47 -134 47q-63 0 -147 -61z" />
<glyph unicode="&#xd6;" horiz-adv-x="1316" d="M1231 465q-164 -485 -598 -485q-244 0 -391 163q-145 162 -146 428q0 315 158 549q180 266 483 266q248 0 393 -161q147 -164 148 -443q0 -184 -47 -317zM739 1135q-197 0 -280 -277q-49 -158 -49 -332q0 -295 235 -295q188 0 273 279q49 170 49 317q-1 308 -228 308z M702 1532q-37 -31 -90 -31q-59 0 -94 39q-35 37 -35 86t33 86q37 41 96 41q49 0 88 -29q43 -37 43 -98q0 -59 -41 -94zM1071 1532q-37 -31 -90 -31q-59 0 -94 39q-35 37 -35 86t33 86q37 41 96 41q49 0 88 -29q43 -37 43 -98q0 -59 -41 -94z" />
<glyph unicode="&#xd8;" horiz-adv-x="1316" d="M1139 1212q139 -164 139 -438t-141 -504q-178 -289 -500 -288q-137 0 -277 63l-98 -151h-192l163 249q-141 190 -141 432q0 317 160 551q180 262 477 263q176 0 287 -76l108 164h191zM506 268q55 -35 121 -35q172 0 247 166q90 197 91 428q0 51 -11 117zM864 1098 q-49 37 -125 37q-170 0 -252 -191q-82 -188 -81 -403q0 -51 14 -119z" />
<glyph unicode="&#xd9;" horiz-adv-x="1316" d="M1214 602q-45 -270 -86 -356q-125 -260 -507 -260q-229 0 -361 94q-147 102 -147 301q0 59 12 135l141 850h336l-133 -799q-14 -100 -14 -149q0 -88 59 -129q68 -43 158 -43q195 0 233 149q12 43 45 242l121 729h270zM475 1651l88 157l363 -215l-56 -112z" />
<glyph unicode="&#xda;" horiz-adv-x="1316" d="M1214 602q-45 -270 -86 -356q-125 -260 -507 -260q-229 0 -361 94q-147 102 -147 301q0 59 12 135l141 850h336l-133 -799q-14 -100 -14 -149q0 -88 59 -129q68 -43 158 -43q195 0 233 149q12 43 45 242l121 729h270zM735 1593l416 215l76 -163l-445 -164z" />
<glyph unicode="&#xdb;" horiz-adv-x="1316" d="M1214 602q-45 -270 -86 -356q-125 -260 -507 -260q-229 0 -361 94q-147 102 -147 301q0 59 12 135l141 850h336l-133 -799q-14 -100 -14 -149q0 -88 59 -129q68 -43 158 -43q195 0 233 149q12 43 45 242l121 729h270zM983 1489l-133 108l-178 -108l-209 20l414 287 l315 -287z" />
<glyph unicode="&#xdc;" horiz-adv-x="1316" d="M1214 602q-45 -270 -86 -356q-125 -260 -507 -260q-229 0 -361 94q-147 102 -147 301q0 59 12 135l141 850h336l-133 -799q-14 -100 -14 -149q0 -88 59 -129q68 -43 158 -43q195 0 233 149q12 43 45 242l121 729h270zM743 1532q-37 -31 -90 -31q-59 0 -94 39 q-35 37 -35 86t33 86q37 41 96 41q49 0 88 -29q43 -37 43 -98q0 -59 -41 -94zM1112 1532q-37 -31 -90 -31q-59 0 -94 39q-35 37 -35 86t33 86q37 41 96 41q49 0 88 -29q43 -37 43 -98q0 -59 -41 -94z" />
<glyph unicode="&#xdd;" horiz-adv-x="1085" d="M729 573l-96 -573h-314l97 573l-340 793h340l209 -541l354 541h299zM571 1593l416 215l76 -163l-445 -164z" />
<glyph unicode="&#xde;" horiz-adv-x="1243" d="M51 0l230 1366h313l-31 -184h174q231 0 334 -70q162 -106 162 -324q0 -219 -131 -335q-135 -125 -391 -125h-291l-55 -328h-314zM522 938l-61 -371h235q231 0 232 199q0 172 -242 172h-164z" />
<glyph unicode="&#xdf;" horiz-adv-x="1277" d="M166 729h-100l38 227h101q57 317 301 449q139 74 309 74q178 0 287 -90q100 -84 100 -209q0 -111 -92 -195q-100 -92 -285 -125q-49 -8 -49 -26q0 -12 72 -39q367 -139 366 -379q0 -166 -127 -293q-137 -139 -342 -139q-141 0 -278 69l102 178q78 -45 168 -45 q190 0 191 150q0 61 -62 108q-41 31 -194 103q-137 61 -137 184q0 121 145 254q123 6 182 68q39 41 39 94q0 117 -149 117q-115 0 -170 -80q-41 -59 -84 -344l-158 -944h-313z" />
<glyph unicode="&#xe0;" horiz-adv-x="1107" d="M125 723q45 143 164 223q129 88 329 88q223 0 326 -108q72 -76 72 -183q0 -41 -29 -223l-45 -260q-20 -127 -20 -192q0 -31 6 -68h-285q-2 63 0 92l8 84q-43 -106 -147 -160q-80 -43 -178 -43q-135 0 -220 80q-84 78 -83 197q0 225 260 319q143 49 428 66q18 51 18 92 q0 121 -133 121q-143 0 -205 -156zM459 453q-129 -51 -129 -168q0 -123 114 -123q193 0 246 330q-147 -6 -231 -39zM393 1358l92 155l359 -241l-62 -111z" />
<glyph unicode="&#xe1;" horiz-adv-x="1107" d="M125 723q45 143 164 223q129 88 329 88q223 0 326 -108q72 -76 72 -183q0 -41 -29 -223l-45 -260q-20 -127 -20 -192q0 -31 6 -68h-285q-2 63 0 92l8 84q-43 -106 -147 -160q-80 -43 -178 -43q-135 0 -220 80q-84 78 -83 197q0 225 260 319q143 49 428 66q18 51 18 92 q0 121 -133 121q-143 0 -205 -156zM459 453q-129 -51 -129 -168q0 -123 114 -123q193 0 246 330q-147 -6 -231 -39zM471 1272l410 241l75 -161l-436 -191z" />
<glyph unicode="&#xe2;" horiz-adv-x="1107" d="M125 723q45 143 164 223q129 88 329 88q223 0 326 -108q72 -76 72 -183q0 -41 -29 -223l-45 -260q-20 -127 -20 -192q0 -31 6 -68h-285q-2 63 0 92l8 84q-43 -106 -147 -160q-80 -43 -178 -43q-135 0 -220 80q-84 78 -83 197q0 225 260 319q143 49 428 66q18 51 18 92 q0 121 -133 121q-143 0 -205 -156zM459 453q-129 -51 -129 -168q0 -123 114 -123q193 0 246 330q-147 -6 -231 -39zM821 1167l-135 138l-192 -138l-199 21l418 313l307 -313z" />
<glyph unicode="&#xe3;" horiz-adv-x="1107" d="M125 723q45 143 164 223q129 88 329 88q223 0 326 -108q72 -76 72 -183q0 -41 -29 -223l-45 -260q-20 -127 -20 -192q0 -31 6 -68h-285q-2 63 0 92l8 84q-43 -106 -147 -160q-80 -43 -178 -43q-135 0 -220 80q-84 78 -83 197q0 225 260 319q143 49 428 66q18 51 18 92 q0 121 -133 121q-143 0 -205 -156zM459 453q-129 -51 -129 -168q0 -123 114 -123q193 0 246 330q-147 -6 -231 -39zM309 1313q121 104 228 104q66 0 145 -43q51 -31 88 -31q68 0 154 80l63 -110q-117 -125 -244 -125q-49 0 -108 26q-96 47 -123 48q-61 0 -139 -62z" />
<glyph unicode="&#xe4;" horiz-adv-x="1107" d="M125 723q45 143 164 223q129 88 329 88q223 0 326 -108q72 -76 72 -183q0 -41 -29 -223l-45 -260q-20 -127 -20 -192q0 -31 6 -68h-285q-2 63 0 92l8 84q-43 -106 -147 -160q-80 -43 -178 -43q-135 0 -220 80q-84 78 -83 197q0 225 260 319q143 49 428 66q18 51 18 92 q0 121 -133 121q-143 0 -205 -156zM459 453q-129 -51 -129 -168q0 -123 114 -123q193 0 246 330q-147 -6 -231 -39zM600 1221q-33 -29 -82 -29q-53 0 -88 37q-31 33 -31 78q0 43 31 77q35 39 88 39q45 0 80 -26q41 -35 41 -90q0 -53 -39 -86zM934 1221q-33 -29 -82 -29 q-53 0 -88 37q-31 33 -31 78q0 43 31 77q35 39 88 39q45 0 80 -26q41 -35 41 -90q0 -53 -39 -86z" />
<glyph unicode="&#xe5;" horiz-adv-x="1107" d="M125 723q45 143 164 223q129 88 329 88q223 0 326 -108q72 -76 72 -183q0 -41 -29 -223l-45 -260q-20 -127 -20 -192q0 -31 6 -68h-285q-2 63 0 92l8 84q-43 -106 -147 -160q-80 -43 -178 -43q-135 0 -220 80q-84 78 -83 197q0 225 260 319q143 49 428 66q18 51 18 92 q0 121 -133 121q-143 0 -205 -156zM459 453q-129 -51 -129 -168q0 -123 114 -123q193 0 246 330q-147 -6 -231 -39zM829 1196q-57 -59 -141 -59t-139 61q-51 55 -51 127t49 127q55 61 141 61t141 -57q55 -53 56 -129q-1 -76 -56 -131zM692 1401q-35 0 -59 -25 q-23 -23 -23 -51q0 -76 80 -76q82 0 82 76t-80 76z" />
<glyph unicode="&#xe6;" horiz-adv-x="1720" d="M979 457q-8 -49 -8 -78q0 -90 49 -143t133 -54q135 0 209 164l256 -43q-145 -330 -479 -330q-274 0 -404 228q-135 -219 -389 -219q-158 0 -246 86q-80 76 -80 192q0 197 205 295q115 53 508 84q16 61 17 90q0 123 -138 123q-154 0 -209 -152l-274 37q137 301 500 301 q172 0 299 -92q133 92 289 92q199 0 321 -120q127 -127 127 -345q0 -51 -8 -116h-678zM473 461q-139 -51 -139 -176q0 -119 123 -119q186 0 250 330q-156 -8 -234 -35zM1378 625q4 37 4 61q0 164 -157 164q-176 0 -224 -225h377z" />
<glyph unicode="&#xe7;" horiz-adv-x="1038" d="M465 -100q78 10 127 -23q51 -37 51 -104q0 -82 -68 -135q-66 -49 -161 -50q-90 0 -199 58l49 86q74 -45 127 -45q84 0 84 73q0 63 -96 64l-53 -4l86 168q-207 41 -295 217q-53 106 -54 237q0 217 121 385q147 209 420 209q221 0 332 -147q82 -113 76 -248l-264 -16 q2 102 -54 151q-41 37 -96 37q-135 0 -188 -201q-27 -102 -27 -213q0 -186 154 -186q135 0 190 178l248 -33q-123 -358 -467 -378z" />
<glyph unicode="&#xe8;" horiz-adv-x="1079" d="M358 457q-6 -43 -6 -76q0 -109 62 -160q45 -37 110 -37q147 0 201 162l250 -43q-123 -330 -469 -330q-217 0 -340 146q-111 131 -111 323q0 221 131 396q154 201 408 200q197 0 313 -129q117 -125 117 -331q0 -39 -10 -121h-656zM745 625q4 33 5 59q0 88 -52 133 q-43 35 -102 35q-158 0 -217 -227h366zM379 1358l92 155l358 -241l-61 -111z" />
<glyph unicode="&#xe9;" horiz-adv-x="1079" d="M358 457q-6 -43 -6 -76q0 -109 62 -160q45 -37 110 -37q147 0 201 162l250 -43q-123 -330 -469 -330q-217 0 -340 146q-111 131 -111 323q0 221 131 396q154 201 408 200q197 0 313 -129q117 -125 117 -331q0 -39 -10 -121h-656zM745 625q4 33 5 59q0 88 -52 133 q-43 35 -102 35q-158 0 -217 -227h366zM457 1272l409 241l76 -161l-436 -191z" />
<glyph unicode="&#xea;" horiz-adv-x="1079" d="M358 457q-6 -43 -6 -76q0 -109 62 -160q45 -37 110 -37q147 0 201 162l250 -43q-123 -330 -469 -330q-217 0 -340 146q-111 131 -111 323q0 221 131 396q154 201 408 200q197 0 313 -129q117 -125 117 -331q0 -39 -10 -121h-656zM745 625q4 33 5 59q0 88 -52 133 q-43 35 -102 35q-158 0 -217 -227h366zM743 1167l-135 138l-192 -138l-199 21l418 313l307 -313z" />
<glyph unicode="&#xeb;" horiz-adv-x="1079" d="M358 457q-6 -43 -6 -76q0 -109 62 -160q45 -37 110 -37q147 0 201 162l250 -43q-123 -330 -469 -330q-217 0 -340 146q-111 131 -111 323q0 221 131 396q154 201 408 200q197 0 313 -129q117 -125 117 -331q0 -39 -10 -121h-656zM745 625q4 33 5 59q0 88 -52 133 q-43 35 -102 35q-158 0 -217 -227h366zM586 1221q-33 -29 -82 -29q-53 0 -88 37q-31 33 -31 78q0 43 31 77q35 39 88 39q45 0 80 -26q41 -35 41 -90q0 -53 -39 -86zM920 1221q-33 -29 -82 -29q-53 0 -88 37q-31 33 -31 78q0 43 31 77q35 39 88 39q45 0 80 -26q41 -35 40 -90 q1 -53 -38 -86z" />
<glyph unicode="&#xec;" horiz-adv-x="550" d="M344 0h-305l170 1018h305zM115 1358l92 155l358 -241l-61 -111z" />
<glyph unicode="&#xed;" horiz-adv-x="550" d="M344 0h-305l170 1018h305zM193 1272l409 241l76 -161l-436 -191z" />
<glyph unicode="&#xee;" horiz-adv-x="550" d="M344 0h-305l170 1018h305zM543 1167l-135 138l-193 -138l-199 21l418 313l307 -313z" />
<glyph unicode="&#xef;" horiz-adv-x="550" d="M344 0h-305l170 1018h305zM322 1221q-33 -29 -82 -29q-53 0 -88 37q-31 33 -31 78q0 43 31 77q35 39 88 39q45 0 79 -26q41 -35 41 -90q1 -53 -38 -86zM655 1221q-33 -29 -82 -29q-53 0 -88 37q-31 33 -30 78q0 43 30 77q35 39 88 39q45 0 80 -26q41 -35 41 -90 q0 -53 -39 -86z" />
<glyph unicode="&#xf0;" horiz-adv-x="1083" d="M508 176q113 0 160 117q63 168 63 346q0 82 -43 133q-43 49 -106 49q-96 0 -156 -104q-63 -115 -64 -344q1 -197 146 -197zM870 1249q164 -311 164 -618q0 -305 -153 -481q-145 -170 -377 -170q-197 0 -320 131q-123 133 -123 346q0 260 172 424q147 139 324 139 q102 0 164 -66q-31 111 -72 201l-274 -119l-74 146l270 118q-12 23 -41 64l209 92q20 -23 45 -63l283 123l72 -150z" />
<glyph unicode="&#xf1;" horiz-adv-x="1116" d="M451 825q113 211 305 211q125 0 200 -82q72 -78 72 -194q0 -45 -24 -189l-95 -571h-295l101 594q14 94 14 113q0 106 -104 106q-106 0 -156 -104q-29 -59 -53 -205l-84 -504h-295l170 1018h276zM313 1313q121 104 228 104q66 0 145 -43q51 -31 88 -31q68 0 154 80 l63 -110q-117 -125 -243 -125q-49 0 -109 26q-96 47 -123 48q-61 0 -139 -62z" />
<glyph unicode="&#xf2;" horiz-adv-x="1093" d="M586 1042q199 0 321 -131q123 -131 123 -346q0 -242 -145 -411q-150 -174 -375 -174q-195 0 -320 126q-127 129 -127 338q0 100 31 213q125 385 492 385zM365 371q0 -197 151 -197q104 0 152 117q66 158 65 360q0 195 -147 195t-197 -242q-24 -120 -24 -233zM385 1358 l92 155l359 -241l-62 -111z" />
<glyph unicode="&#xf3;" horiz-adv-x="1093" d="M586 1042q199 0 321 -131q123 -131 123 -346q0 -242 -145 -411q-150 -174 -375 -174q-195 0 -320 126q-127 129 -127 338q0 100 31 213q125 385 492 385zM365 371q0 -197 151 -197q104 0 152 117q66 158 65 360q0 195 -147 195t-197 -242q-24 -120 -24 -233zM463 1272 l409 241l76 -161l-436 -191z" />
<glyph unicode="&#xf4;" horiz-adv-x="1093" d="M586 1042q199 0 321 -131q123 -131 123 -346q0 -242 -145 -411q-150 -174 -375 -174q-195 0 -320 126q-127 129 -127 338q0 100 31 213q125 385 492 385zM365 371q0 -197 151 -197q104 0 152 117q66 158 65 360q0 195 -147 195t-197 -242q-24 -120 -24 -233zM752 1167 l-136 138l-192 -138l-199 21l418 313l307 -313z" />
<glyph unicode="&#xf5;" horiz-adv-x="1093" d="M586 1042q199 0 321 -131q123 -131 123 -346q0 -242 -145 -411q-150 -174 -375 -174q-195 0 -320 126q-127 129 -127 338q0 100 31 213q125 385 492 385zM365 371q0 -197 151 -197q104 0 152 117q66 158 65 360q0 195 -147 195t-197 -242q-24 -120 -24 -233zM301 1313 q121 104 227 104q66 0 146 -43q51 -31 88 -31q68 0 153 80l64 -110q-117 -125 -244 -125q-49 0 -108 26q-96 47 -123 48q-61 0 -139 -62z" />
<glyph unicode="&#xf6;" horiz-adv-x="1093" d="M586 1042q199 0 321 -131q123 -131 123 -346q0 -242 -145 -411q-150 -174 -375 -174q-195 0 -320 126q-127 129 -127 338q0 100 31 213q125 385 492 385zM365 371q0 -197 151 -197q104 0 152 117q66 158 65 360q0 195 -147 195t-197 -242q-24 -120 -24 -233zM592 1221 q-33 -29 -82 -29q-53 0 -88 37q-31 33 -31 78q0 43 31 77q35 39 88 39q45 0 80 -26q41 -35 41 -90q0 -53 -39 -86zM926 1221q-33 -29 -82 -29q-53 0 -88 37q-31 33 -31 78q0 43 31 77q35 39 88 39q45 0 80 -26q41 -35 41 -90q0 -53 -39 -86z" />
<glyph unicode="&#xf7;" d="M725 430q41 -41 41 -96q0 -57 -39 -96q-41 -41 -96 -41q-57 0 -96 41q-41 39 -41 96q0 55 38 96q41 39 99 39q55 0 94 -39zM725 1143q41 -41 41 -96q0 -57 -41 -99q-39 -39 -96 -39t-97 41q-39 39 -38 97q0 55 41 96q39 39 94 39t96 -39zM1137 580h-1012v219h1012v-219z " />
<glyph unicode="&#xf8;" horiz-adv-x="1093" d="M915 901q115 -139 115 -350q0 -209 -129 -377q-150 -195 -395 -194q-109 0 -217 49l-84 -117h-154l142 192q-129 129 -130 340q0 242 136 414q145 184 379 184q147 0 239 -61l94 127h156zM414 205q47 -31 96 -31q109 0 152 96q68 147 67 375zM688 805q-37 41 -106 41 q-139 0 -191 -238q-35 -156 -24 -256z" />
<glyph unicode="&#xf9;" horiz-adv-x="1097" d="M891 0h-270l30 182q-125 -207 -309 -207q-102 0 -170 56q-86 70 -86 205q0 53 20 172l103 610h293l-107 -629l-4 -39q-6 -39 -6 -51q0 -88 84 -88q82 0 137 74q49 76 78 243l82 490h295zM285 1358l92 155l358 -241l-61 -111z" />
<glyph unicode="&#xfa;" horiz-adv-x="1097" d="M891 0h-270l30 182q-125 -207 -309 -207q-102 0 -170 56q-86 70 -86 205q0 53 20 172l103 610h293l-107 -629l-4 -39q-6 -39 -6 -51q0 -88 84 -88q82 0 137 74q49 76 78 243l82 490h295zM465 1272l409 241l76 -161l-436 -191z" />
<glyph unicode="&#xfb;" horiz-adv-x="1097" d="M891 0h-270l30 182q-125 -207 -309 -207q-102 0 -170 56q-86 70 -86 205q0 53 20 172l103 610h293l-107 -629l-4 -39q-6 -39 -6 -51q0 -88 84 -88q82 0 137 74q49 76 78 243l82 490h295zM815 1167l-135 138l-193 -138l-198 21l418 313l307 -313z" />
<glyph unicode="&#xfc;" horiz-adv-x="1097" d="M891 0h-270l30 182q-125 -207 -309 -207q-102 0 -170 56q-86 70 -86 205q0 53 20 172l103 610h293l-107 -629l-4 -39q-6 -39 -6 -51q0 -88 84 -88q82 0 137 74q49 76 78 243l82 490h295zM594 1221q-33 -29 -82 -29q-53 0 -88 37q-31 33 -31 78q0 43 31 77q35 39 88 39 q45 0 80 -26q41 -35 41 -90q0 -53 -39 -86zM928 1221q-33 -29 -82 -29q-53 0 -88 37q-31 33 -31 78q0 43 31 77q35 39 88 39q45 0 80 -26q41 -35 41 -90q0 -53 -39 -86z" />
<glyph unicode="&#xfd;" horiz-adv-x="921" d="M545 55q-119 -246 -185 -313q-100 -98 -294 -98q-74 0 -109 6l16 225q88 -10 123 -10q92 0 140 39q35 29 63 106l-233 1008h307l121 -619l276 619h229zM377 1272l409 241l76 -161l-436 -191z" />
<glyph unicode="&#xfe;" horiz-adv-x="1105" d="M-20 -356l286 1722h295l-82 -492q102 156 256 156q135 0 219 -106q90 -115 90 -312q0 -244 -108 -426q-123 -207 -320 -206q-201 0 -260 167l-84 -503h-292zM743 662q0 164 -129 163q-115 0 -165 -145q-53 -154 -54 -322q0 -92 49 -141q39 -37 91 -37q135 0 192 309 q16 124 16 173z" />
<glyph unicode="&#xff;" horiz-adv-x="921" d="M545 55q-119 -246 -185 -313q-100 -98 -294 -98q-74 0 -109 6l16 225q88 -10 123 -10q92 0 140 39q35 29 63 106l-233 1008h307l121 -619l276 619h229zM506 1221q-33 -29 -82 -29q-53 0 -88 37q-31 33 -31 78q0 43 31 77q35 39 88 39q45 0 80 -26q41 -35 41 -90 q0 -53 -39 -86zM840 1221q-33 -29 -82 -29q-53 0 -88 37q-31 33 -31 78q0 43 31 77q35 39 88 39q45 0 80 -26q41 -35 41 -90q0 -53 -39 -86z" />
<glyph unicode="&#x131;" horiz-adv-x="550" d="M344 0h-305l170 1018h305z" />
<glyph unicode="&#x141;" horiz-adv-x="995" d="M518 911l291 244l-43 -260l-291 -244l-65 -391h536l-45 -260h-850l78 459l-143 -121l43 260l143 121l109 647h313z" />
<glyph unicode="&#x142;" horiz-adv-x="567" d="M465 717l-119 -717h-295l94 565l-139 -108l31 192l141 107l103 610h292l-75 -457l139 105l-31 -191z" />
<glyph unicode="&#x152;" horiz-adv-x="1861" d="M827 0l11 57q-102 -74 -244 -73q-197 0 -334 133q-162 160 -162 452q0 326 156 559q180 268 487 269q139 0 285 -70l6 39h912l-43 -260h-625l-47 -279h514l-41 -247h-514l-53 -320h624l-45 -260h-887zM961 1020q-59 125 -195 125q-172 0 -264 -199q-82 -174 -82 -403 q0 -121 47 -203q59 -104 178 -104q115 0 203 100z" />
<glyph unicode="&#x153;" horiz-adv-x="1697" d="M979 459q-4 -41 -4 -78q0 -80 37 -133q45 -68 133 -68q152 0 207 166l254 -37q-129 -340 -476 -340q-172 0 -313 123q-129 -123 -321 -123q-197 0 -318 140q-115 133 -115 335q0 248 140 416q145 178 383 178q178 0 307 -125q131 125 319 125q168 0 285 -98 q145 -127 145 -377q0 -37 -6 -104h-657zM1366 625q6 70 -2 104q-23 123 -156 123q-172 0 -207 -227h365zM516 170q104 0 152 117q66 158 65 360q0 195 -147 195t-197 -242q-25 -121 -24 -233q-1 -197 151 -197z" />
<glyph unicode="&#x178;" horiz-adv-x="1085" d="M729 573l-96 -573h-314l97 573l-340 793h340l209 -541l354 541h299zM651 1532q-37 -31 -90 -31q-59 0 -94 39q-35 37 -35 86t33 86q37 41 96 41q49 0 88 -29q43 -37 43 -98q0 -59 -41 -94zM1020 1532q-37 -31 -90 -31q-59 0 -94 39q-35 37 -35 86t33 86q37 41 96 41 q49 0 88 -29q43 -37 43 -98q0 -59 -41 -94z" />
<glyph unicode="&#x192;" d="M1008 864h-185l-235 -719q-92 -279 -211 -354q-102 -66 -262 -65q-43 0 -162 12l80 235q45 -4 59 -4q135 0 176 103q-10 -27 58 176l202 616h-114l80 232h108q66 221 168 313q109 96 303 96q66 0 164 -16l-76 -225q-39 6 -69 6q-90 0 -134 -51q-29 -33 -55 -123h178z" />
<glyph unicode="&#x2c6;" horiz-adv-x="1024" d="M778 1167l-135 138l-192 -138l-199 21l418 313l307 -313z" />
<glyph unicode="&#x2c7;" horiz-adv-x="1024" d="M502 1489l133 -137l194 137l199 -21l-418 -315l-307 315z" />
<glyph unicode="&#x2d8;" horiz-adv-x="1024" d="M506 1466q-8 -133 137 -133q141 0 186 133h156q-90 -287 -369 -286q-162 0 -231 104q-47 72 -37 182h158z" />
<glyph unicode="&#x2d9;" horiz-adv-x="1024" d="M725 1221q-33 -29 -82 -29q-53 0 -88 37q-31 33 -31 78q0 43 31 77q35 39 88 39q45 0 80 -26q41 -35 41 -90q0 -53 -39 -86z" />
<glyph unicode="&#x2da;" horiz-adv-x="1024" d="M786 1196q-57 -59 -141 -59t-139 61q-51 55 -51 127t49 127q55 61 141 61t141 -57q55 -53 56 -129q-1 -76 -56 -131zM649 1401q-35 0 -59 -25q-23 -23 -23 -51q0 -76 80 -76q82 0 82 76t-80 76z" />
<glyph unicode="&#x2db;" horiz-adv-x="1024" d="M899 -315q-76 -37 -174 -37q-201 0 -201 141q0 129 197 209h137q-154 -82 -153 -170q0 -82 102 -82q25 0 80 18z" />
<glyph unicode="&#x2dc;" horiz-adv-x="1024" d="M266 1313q121 104 228 104q66 0 145 -43q51 -31 88 -31q68 0 154 80l63 -110q-117 -125 -244 -125q-49 0 -108 26q-96 47 -123 48q-61 0 -139 -62z" />
<glyph unicode="&#x2dd;" horiz-adv-x="1024" d="M317 1257l330 259l90 -136l-362 -217zM664 1257l331 259l90 -136l-364 -217z" />
<glyph unicode="&#x3a9;" horiz-adv-x="1533" d="M328 215q-229 213 -174 545q43 264 258 444q219 186 508 187q295 0 446 -197q139 -182 98 -426q-57 -340 -362 -553l-2 -6h299l-35 -209h-576l27 156q301 164 369 559q31 193 -45 323q-80 141 -254 142q-172 0 -303 -136q-129 -131 -164 -337q-33 -197 24 -351 q51 -139 158 -200l-27 -156h-573l33 209h295v6z" />
<glyph unicode="&#x3c0;" horiz-adv-x="1280" d="M1130 811l-83 -504q-33 -201 -23 -307h-262q-29 53 12 291l86 520h-293q-113 -530 -270 -811h-262q188 395 266 811q-145 0 -215 -20l-2 170q98 68 358 67h897l-57 -217h-152z" />
<glyph unicode="&#x2000;" horiz-adv-x="913" />
<glyph unicode="&#x2001;" horiz-adv-x="1827" />
<glyph unicode="&#x2002;" horiz-adv-x="913" />
<glyph unicode="&#x2003;" horiz-adv-x="1827" />
<glyph unicode="&#x2004;" horiz-adv-x="609" />
<glyph unicode="&#x2005;" horiz-adv-x="456" />
<glyph unicode="&#x2006;" horiz-adv-x="304" />
<glyph unicode="&#x2007;" horiz-adv-x="304" />
<glyph unicode="&#x2008;" horiz-adv-x="228" />
<glyph unicode="&#x2009;" horiz-adv-x="365" />
<glyph unicode="&#x200a;" horiz-adv-x="101" />
<glyph unicode="&#x2010;" horiz-adv-x="473" d="M-18 393l36 223h474l-37 -223h-473z" />
<glyph unicode="&#x2011;" horiz-adv-x="473" d="M-18 393l36 223h474l-37 -223h-473z" />
<glyph unicode="&#x2012;" horiz-adv-x="473" d="M-18 393l36 223h474l-37 -223h-473z" />
<glyph unicode="&#x2013;" horiz-adv-x="1024" d="M57 393l37 223h873l-37 -223h-873z" />
<glyph unicode="&#x2014;" horiz-adv-x="2048" d="M-18 393l36 223h2048l-36 -223h-2048z" />
<glyph unicode="&#x2018;" horiz-adv-x="505" d="M209 1055l235 311h113l-195 -287h125l-49 -293h-274z" />
<glyph unicode="&#x2019;" horiz-adv-x="505" d="M489 1098l-235 -310h-113l195 285h-125l49 293h275z" />
<glyph unicode="&#x201a;" horiz-adv-x="505" d="M309 25l-235 -310h-113l195 285h-125l49 293h274z" />
<glyph unicode="&#x201c;" horiz-adv-x="903" d="M606 1055l236 311h112l-194 -287h125l-49 -293h-275zM209 1055l235 311h113l-195 -287h125l-49 -293h-274z" />
<glyph unicode="&#x201d;" horiz-adv-x="903" d="M489 1098l-235 -310h-113l195 285h-125l49 293h275zM887 1098l-236 -310h-112l194 285h-125l49 293h275z" />
<glyph unicode="&#x201e;" horiz-adv-x="903" d="M309 25l-235 -310h-113l195 285h-125l49 293h274zM707 25l-236 -310h-113l195 285h-125l49 293h275z" />
<glyph unicode="&#x2020;" horiz-adv-x="1193" d="M883 1366l-60 -358h353l-39 -236h-355l-188 -1128h-283l189 1128h-353l39 236h353l61 358h283z" />
<glyph unicode="&#x2021;" horiz-adv-x="1193" d="M883 1366l-60 -358h353l-39 -236h-355l-82 -493h355l-41 -238h-352l-68 -397h-283l66 397h-352l38 238h355l82 493h-353l39 236h353l59 358h285z" />
<glyph unicode="&#x2022;" horiz-adv-x="1366" d="M928 492q-88 -86 -213 -86t-211 86t-86 210q-2 125 84 213q88 86 213 86t213 -86q88 -88 88 -213q0 -124 -88 -210z" />
<glyph unicode="&#x2026;" horiz-adv-x="2048" d="M100 0l52 309h311l-51 -309h-312zM782 0l52 309h311l-51 -309h-312zM1464 0l52 309h311l-51 -309h-312z" />
<glyph unicode="&#x202f;" horiz-adv-x="365" />
<glyph unicode="&#x2030;" horiz-adv-x="2492" d="M1554 121q-106 -139 -266 -139q-137 0 -225 98q-86 98 -86 244q0 178 104 301t256 123q119 0 205 -78q106 -96 107 -279q-1 -147 -95 -270zM1294 160q61 0 86 73q31 78 31 183q2 78 -6 102q-20 51 -70 51q-63 0 -86 -63q-37 -100 -37 -225q0 -121 82 -121zM719 750 q-106 -139 -266 -140q-137 0 -226 99q-86 98 -86 243q0 178 105 301q104 123 256 123q119 0 205 -78q106 -96 106 -278q0 -147 -94 -270zM459 788q61 0 86 74q31 78 30 182q2 78 -6 103q-20 51 -69 51q-63 0 -86 -63q-37 -100 -37 -226q0 -121 82 -121zM2316 121 q-106 -139 -266 -139q-137 0 -225 98q-86 98 -86 244q0 178 104 301t256 123q119 0 205 -78q106 -96 106 -279q0 -147 -94 -270zM2058 160q61 0 86 73q31 78 31 183q2 78 -6 102q-20 51 -70 51q-63 0 -86 -63q-37 -100 -37 -225q0 -121 82 -121zM471 0h-188l1034 1370h190z " />
<glyph unicode="&#x2039;" horiz-adv-x="434" d="M205 213l-137 291l213 293h100l-148 -299l68 -285h-96z" />
<glyph unicode="&#x203a;" horiz-adv-x="434" d="M227 797l138 -291l-213 -293h-101l148 299l-68 285h96z" />
<glyph unicode="&#x2044;" horiz-adv-x="299" d="M-410 0l988 1370h190l-989 -1370h-189z" />
<glyph unicode="&#x205f;" horiz-adv-x="456" />
<glyph unicode="&#x20ac;" d="M791 494h-308v-19q0 -266 172 -266q141 0 230 184l282 -18q-150 -399 -551 -400q-211 0 -329 146q-111 135 -119 373h-168l51 163h127q2 4 2 15l2 12q8 49 15 72h-156l51 164h156q86 219 239 344q164 133 371 133q203 0 309 -117q94 -106 97 -291l-303 -22q0 74 -31 129 q-39 68 -105 67q-170 0 -262 -243h363l-52 -164h-358l-18 -99h344z" />
<glyph unicode="&#x2122;" horiz-adv-x="1689" d="M530 1206l-104 -618h-213l102 618h-209l27 160h633l-27 -160h-209zM1630 588h-217l98 581l-297 -581h-129l-110 590l-98 -590h-181l131 778h312l78 -442l223 442h321z" />
<glyph unicode="&#x2202;" horiz-adv-x="1216" d="M313 1425q180 119 414 119q250 0 381 -194q141 -209 84 -559q-61 -360 -258 -582q-203 -225 -479 -225q-213 0 -312 157q-86 135 -55 312q37 225 193 368q154 141 350 142q119 0 207 -66q61 -47 88 -106h2q8 33 12 65q33 197 -43 334q-80 141 -240 141q-154 0 -299 -92z M520 195q111 0 213 127q90 111 133 260q-8 59 -59 112q-63 63 -154 64q-106 0 -194 -94q-86 -90 -107 -218q-18 -106 27 -178q47 -74 139 -73h2z" />
<glyph unicode="&#x2206;" horiz-adv-x="1402" d="M-4 150l698 1251h322l270 -1249l-24 -152h-1291zM1001 209l-137 590l-33 178q-23 117 -28 166h-6q-14 -35 -72 -144q-66 -121 -88 -170l-352 -620h716z" />
<glyph unicode="&#x220f;" horiz-adv-x="1667" d="M1401 1137v-1325h-262v1325h-465v-1325h-262v1325h-219v231h1427v-231h-219z" />
<glyph unicode="&#x2211;" horiz-adv-x="1331" d="M190 -188v159l512 617l-491 602v178h1049v-221h-685v-6l429 -516l-472 -572v-6h764v-235h-1106z" />
<glyph unicode="&#x221a;" horiz-adv-x="1400" d="M946 -281h-213l-321 861l-154 -62l-45 139l356 146l228 -643l43 -162h2l35 172l362 1468h188z" />
<glyph unicode="&#x221e;" horiz-adv-x="1656" d="M1561 565q0 -160 -101 -258q-94 -94 -227 -94q-190 0 -369 231q-186 -231 -377 -231q-131 0 -225 94q-98 100 -98 248q0 152 98 252q96 96 242 96q190 0 370 -225q203 227 369 225q137 0 227 -92q90 -94 91 -244v-2zM508 354q115 0 278 195q-88 117 -124 149 q-76 68 -164 68q-84 0 -136 -59q-51 -59 -51 -154q0 -82 56 -139q55 -59 139 -60h2zM1227 766q-98 0 -281 -205q168 -207 291 -207q80 0 133 66q45 59 45 135q0 92 -51 152q-53 59 -135 59h-2z" />
<glyph unicode="&#x222b;" horiz-adv-x="954" d="M893 1495q-33 16 -76 16q-72 0 -106 -49q-57 -74 -58 -327q0 -156 17 -457q16 -303 16 -481q0 -258 -76 -392q-80 -145 -266 -145q-98 0 -164 33l33 180q51 -20 94 -20q61 0 92 38q61 78 62 304q0 180 -17 491q-16 309 -16 473q0 319 125 445q84 90 240 90q70 0 129 -25z " />
<glyph unicode="&#x2248;" horiz-adv-x="1224" d="M1143 809q-119 -205 -285 -205q-98 0 -237 82q-113 66 -181 66q-96 0 -202 -144l-95 88q111 205 308 205q88 0 221 -74q127 -74 184 -73q100 0 193 145zM1143 428q-119 -205 -287 -205q-92 0 -235 82q-113 68 -181 68q-94 0 -202 -148l-95 90q111 205 308 205 q92 0 221 -71q131 -76 184 -76q94 0 193 145z" />
<glyph unicode="&#x2260;" horiz-adv-x="1253" d="M864 844h289v-152h-348l-123 -272h471v-152h-532l-105 -235l-121 51l84 184h-284v152h346l121 272h-467v152h528l102 229l121 -51z" />
<glyph unicode="&#x2264;" horiz-adv-x="1284" d="M236 649v162l944 449v-173l-789 -354v-4l789 -356v-172zM227 -27v152h959v-152h-959z" />
<glyph unicode="&#x2265;" horiz-adv-x="1286" d="M1184 811v-162l-944 -448v172l788 356v4l-788 354v173zM229 -27v152h953v-152h-953z" />
<glyph unicode="&#x25ca;" horiz-adv-x="1396" d="M874 -98h-208l-414 780l422 784h209l413 -784zM815 1155q-25 55 -39 107h-6q-12 -51 -39 -107l-248 -467l252 -485q23 -53 35 -101h8q29 84 37 99l250 477z" />
<glyph unicode="&#x25fc;" horiz-adv-x="1013" d="M0 1014h1014v-1014h-1014v1014z" />
<glyph unicode="&#xfb01;" horiz-adv-x="1120" d="M913 0h-307l170 1018h307zM1096 1094h-308l50 292h307zM659 786h-184l-131 -786h-291l133 786h-125l39 232h125q27 186 94 276q94 129 295 129q80 0 134 -10l-19 -231q-41 10 -78 10q-109 0 -137 -174h184z" />
<glyph unicode="&#xfb02;" horiz-adv-x="1120" d="M911 0h-307l230 1366h307zM342 0h-287l133 786h-129l39 232h129q47 406 387 405q63 0 136 -10l-19 -227q-47 8 -74 8q-74 0 -102 -45q-18 -29 -41 -131h178l-39 -232h-178z" />
</font>
</defs>
</svg>
