<?xml version="1.0" standalone="no"?>
<!DOCTYPE svg PUBLIC "-//W3C//DTD SVG 1.1//EN" "http://www.w3.org/Graphics/SVG/1.1/DTD/svg11.dtd" >
<svg xmlns="http://www.w3.org/2000/svg">
<metadata></metadata>
<defs>
<font id="itc_franklin_gothic_stdMdIt" horiz-adv-x="1202" >
<font-face units-per-em="2048" ascent="1638" descent="-410" />
<missing-glyph horiz-adv-x="593" />
<glyph horiz-adv-x="0" />
<glyph horiz-adv-x="682" />
<glyph unicode=" "  horiz-adv-x="593" />
<glyph unicode="&#x09;" horiz-adv-x="593" />
<glyph unicode="&#xa0;" horiz-adv-x="593" />
<glyph unicode="!" horiz-adv-x="505" d="M45 0l43 252h246l-43 -252h-246zM172 379l35 987h289l-220 -987h-104z" />
<glyph unicode="&#x22;" horiz-adv-x="755" d="M334 823h-152l58 543h217zM670 823h-150l58 543h217z" />
<glyph unicode="#" d="M1143 801h-199l-47 -209h201l-43 -193h-201l-88 -399h-186l90 399h-199l-88 -399h-188l90 401h-205l41 191h209l47 209h-209l43 192h209l82 373h186l-84 -373h195l84 373h184l-82 -373h201zM756 801h-195l-45 -209h195z" />
<glyph unicode="$" d="M782 1331q244 -45 328 -266l-184 -68q-55 139 -172 162l-60 -352q162 -51 213 -90q150 -111 150 -289t-135 -295q-129 -113 -310 -113q-33 0 -49 3l-31 -177h-133l33 193q-127 18 -225 102q-115 98 -154 236l189 67q47 -195 219 -231l67 403q-336 102 -335 357 q0 172 129 280q131 111 329 97l25 145h133zM592 195q115 -10 188 51q70 57 70 145q0 143 -195 189zM623 1174q-115 2 -177 -58q-49 -47 -49 -115q0 -129 168 -165z" />
<glyph unicode="%" horiz-adv-x="1531" d="M911 68q-78 90 -77 239q0 176 98 305q100 129 239 129q125 0 203 -102q74 -96 74 -236q0 -160 -90 -286q-98 -139 -248 -140q-123 1 -199 91zM1249 256q27 90 27 180q0 164 -115 164q-68 0 -104 -68q-53 -104 -53 -247q0 -166 116 -166q86 0 129 137zM223 729 q-78 94 -78 238q0 150 80 274q96 152 258 152q131 0 207 -101q70 -92 70 -227q0 -154 -84 -281q-96 -152 -256 -151q-119 0 -197 96zM549 870q39 102 39 222q0 160 -111 159q-86 0 -129 -123q-31 -90 -31 -204q0 -152 107 -152q86 0 125 98zM221 0l998 1366h149l-995 -1366 h-152z" />
<glyph unicode="&#x26;" horiz-adv-x="1419" d="M989 399q186 221 248 432l188 -51q-109 -328 -325 -524q43 -63 90 -82q37 -14 131 -12l-33 -197q-45 -4 -65 -4q-102 0 -160 33q-49 27 -123 115q-170 -156 -414 -156q-219 0 -352 127q-127 119 -127 297q0 195 148 311q82 66 249 123q-84 129 -84 256t84 225 q96 113 261 113q172 0 272 -96q92 -90 92 -222q0 -233 -321 -346zM545 662q-258 -92 -258 -279q0 -92 69 -160q74 -72 185 -71q139 0 288 104zM719 909q47 23 57 29q90 59 90 141q0 59 -43 97q-41 35 -102 34q-74 0 -115 -53q-31 -41 -31 -92q0 -84 87 -182z" />
<glyph unicode="'" horiz-adv-x="477" d="M371 823h-152l57 543h218z" />
<glyph unicode="(" horiz-adv-x="622" d="M283 -356q-211 369 -211 731q0 328 188 641q125 205 283 350h153q-168 -193 -266 -387q-174 -350 -174 -684q0 -330 154 -651h-127z" />
<glyph unicode=")" horiz-adv-x="624" d="M340 1366q211 -379 211 -733q0 -326 -189 -639q-127 -211 -284 -350h-154q166 188 266 387q176 346 177 680q0 326 -154 655h127z" />
<glyph unicode="*" horiz-adv-x="1120" d="M782 1348l-71 -344l342 67l22 -160l-346 -37l168 -305l-143 -71l-142 317l-239 -254l-113 115l260 233l-317 148l76 145l301 -176l43 348z" />
<glyph unicode="+" d="M1137 594h-410v-424h-190v424h-412l2 190h410v426h190v-426h412z" />
<glyph unicode="," horiz-adv-x="497" d="M-12 -295l170 295h-113l41 248h240l-39 -228l-213 -315h-86z" />
<glyph unicode="-" horiz-adv-x="489" d="M-14 414l28 182h492l-31 -182h-489z" />
<glyph unicode="." horiz-adv-x="497" d="M45 0l41 250h240l-41 -250h-240z" />
<glyph unicode="/" horiz-adv-x="890" d="M-244 -356l1063 1722h154l-1067 -1722h-150z" />
<glyph unicode="0" d="M1026 258q-172 -297 -461 -297q-272 0 -393 244q-78 156 -78 354q0 274 129 518q172 324 488 324q193 0 323 -150q133 -156 133 -456q0 -291 -141 -537zM688 1214q-143 0 -233 -165q-125 -219 -125 -570q0 -156 61 -241q61 -90 174 -91q145 0 232 154q135 240 135 584 q0 329 -244 329z" />
<glyph unicode="1" d="M80 0l35 211h397l145 870q-156 -141 -417 -129l34 209q205 23 326 88q123 70 184 166h158l-201 -1204h402l-35 -211h-1028z" />
<glyph unicode="2" d="M12 0l31 250q459 254 672 438q176 152 176 303q0 92 -64 152q-61 59 -151 59q-231 0 -305 -289l-211 93q66 182 190 286q143 121 336 121q182 0 311 -108q143 -119 144 -314q0 -285 -369 -516q-258 -158 -491 -256h778l-37 -219h-1010z" />
<glyph unicode="3" d="M471 797q166 -8 277 28q143 47 143 193q0 88 -70 137q-63 45 -149 45q-207 0 -301 -201l-207 95q188 305 512 305q205 0 334 -107q125 -102 125 -254q0 -96 -54 -176q-78 -119 -252 -153q117 -31 179 -115q61 -86 61 -201q0 -154 -111 -272q-143 -154 -415 -154 q-406 0 -506 373l219 55q23 -113 111 -174q78 -55 182 -55q121 0 199 67q78 68 77 170q0 168 -161 195q-33 4 -226 4z" />
<glyph unicode="4" d="M598 0l53 307h-596l37 221l727 881h250l-149 -895h210l-34 -207h-211l-51 -307h-236zM692 514l101 578q0 29 12 53l-100 -137l-414 -500q55 6 94 6h307z" />
<glyph unicode="5" d="M291 360q25 -100 108 -155q70 -45 152 -45q121 0 207 84q88 88 88 219q0 113 -74 182q-68 66 -166 66q-145 0 -250 -150l-192 84l192 725h803l-55 -211h-606l-107 -391q119 150 293 150q184 0 303 -136q113 -125 113 -297q0 -223 -160 -374q-156 -147 -377 -148 q-176 0 -309 92q-135 92 -178 248z" />
<glyph unicode="6" d="M969 1006q-16 86 -64 139q-63 70 -174 69q-195 0 -303 -253q-61 -145 -72 -275q113 199 349 199q162 0 280 -121q127 -127 127 -320q0 -197 -137 -335q-141 -143 -354 -144q-219 0 -357 148q-154 162 -153 452q0 262 129 506q176 330 501 330q203 0 324 -117 q98 -94 125 -242zM793 623q-74 66 -172 65q-115 0 -193 -84q-72 -80 -72 -188q0 -104 68 -183q72 -84 186 -83q106 0 185 75q82 82 82 205q0 119 -84 193z" />
<glyph unicode="7" d="M283 0l30 127q23 104 29 125q102 330 344 625q123 145 268 272h-761l65 217h938l-31 -192q-242 -178 -446 -607q-123 -254 -158 -567h-278z" />
<glyph unicode="8" d="M188 989q0 152 119 268q143 141 398 142q205 0 331 -94q125 -94 125 -242q0 -231 -287 -332q233 -104 234 -321q0 -184 -145 -310q-154 -133 -396 -133q-287 0 -417 127q-94 90 -95 223q0 190 148 289q80 53 188 78q-203 121 -203 305zM285 344q0 -84 69 -137 q74 -57 209 -57q168 0 248 83q51 55 51 121q0 88 -92 152q-57 37 -209 94q-276 -80 -276 -256zM852 879q94 76 94 163q0 76 -61 125q-70 55 -197 56q-119 0 -186 -56q-61 -51 -62 -129q0 -141 285 -231q64 23 127 72z" />
<glyph unicode="9" d="M281 313q74 -160 233 -159q311 0 391 553q-115 -221 -348 -222q-180 0 -293 125q-111 119 -110 295q0 211 137 352q139 145 360 146q195 0 330 -127q164 -158 164 -455q0 -303 -148 -551q-182 -303 -493 -303q-164 0 -283 84q-102 76 -145 193zM823 1143q-72 72 -174 71 q-115 0 -192 -86q-74 -84 -74 -196q0 -106 72 -180q70 -72 174 -72q113 0 190 86q76 84 76 199q0 104 -72 178z" />
<glyph unicode=":" horiz-adv-x="497" d="M45 0l41 250h240l-41 -250h-240zM152 637l41 250h239l-41 -250h-239z" />
<glyph unicode=";" horiz-adv-x="497" d="M-12 -295l170 295h-113l41 248h240l-39 -228l-213 -315h-86zM152 637l43 250h237l-41 -250h-239z" />
<glyph unicode="&#x3c;" d="M1047 991l-641 -309l641 -311v-230l-887 443v196l887 441v-230z" />
<glyph unicode="=" d="M1135 733h-1012l2 191h1010v-191zM1135 434h-1012l2 191h1010v-191z" />
<glyph unicode="&#x3e;" d="M170 373l641 309l-641 311v228l887 -443v-194l-887 -443v232z" />
<glyph unicode="?" horiz-adv-x="991" d="M281 0l43 254h245l-43 -254h-245zM365 381q20 174 67 248q39 59 164 141q174 115 174 244q0 78 -51 129q-53 51 -137 51q-193 0 -258 -252l-203 80q139 375 477 375q190 0 307 -117q106 -106 107 -260q0 -244 -287 -395q-127 -63 -152 -140q-18 -55 -20 -104h-188z" />
<glyph unicode="@" horiz-adv-x="1501" d="M1090 575q-10 -59 -11 -100q0 -61 62 -61q80 0 147 104q72 111 72 254q0 231 -172 369q-154 123 -367 123q-248 0 -415 -172q-166 -168 -166 -412q0 -223 137 -381q162 -186 454 -186q201 0 435 116l53 -135q-244 -125 -492 -125q-362 0 -571 228q-180 199 -180 477 q0 309 221 518q217 205 528 205q283 0 478 -170q199 -176 198 -445q0 -193 -108 -344q-115 -164 -283 -164q-131 0 -176 105q-88 -109 -213 -109q-123 0 -205 101q-86 106 -86 272q0 168 88 285q96 131 260 131q137 0 205 -88l12 69h172zM795 893q-102 0 -150 -88 q-37 -68 -37 -166q0 -102 45 -158q39 -47 99 -47q84 0 147 86q61 86 62 193q0 180 -166 180z" />
<glyph unicode="A" horiz-adv-x="1234" d="M877 0l-58 330h-493l-152 -330h-231l653 1366h303l250 -1366h-272zM797 520l-107 606l-280 -606h387z" />
<glyph unicode="B" horiz-adv-x="1251" d="M295 1366h477q176 0 270 -55q156 -94 156 -285q0 -244 -256 -324q61 -27 96 -55q117 -98 117 -254q0 -102 -51 -196q-53 -98 -137 -142q-109 -55 -293 -55h-608zM344 201h279q150 0 215 47q72 55 71 168q0 92 -69 151q-57 45 -181 45h-245zM444 801h242q137 0 205 55 q61 47 61 141q0 178 -229 179h-215z" />
<glyph unicode="C" horiz-adv-x="1210" d="M1014 881q-37 315 -277 315q-180 0 -274 -205q-100 -217 -101 -481q0 -195 103 -281q68 -53 158 -53q215 0 323 281l199 -84q-174 -408 -541 -408q-233 0 -371 170q-131 164 -131 430q0 328 166 570q180 266 473 266q227 0 357 -135q119 -125 137 -344z" />
<glyph unicode="D" horiz-adv-x="1310" d="M293 1366h401q301 0 436 -174q129 -168 130 -432q0 -358 -234 -604q-152 -156 -489 -156h-471zM350 207h217q193 0 301 127q133 154 133 463q0 162 -71 262q-76 104 -273 104h-147z" />
<glyph unicode="E" horiz-adv-x="1099" d="M66 0l229 1366h862l-37 -215h-618l-60 -354h512l-32 -203h-512l-64 -379h643l-37 -215h-886z" />
<glyph unicode="F" horiz-adv-x="1017" d="M66 0l229 1366h838l-35 -215h-590l-62 -369h490l-33 -202h-491l-97 -580h-249z" />
<glyph unicode="G" horiz-adv-x="1325" d="M1006 0l-41 184q-111 -209 -373 -209q-209 0 -338 131q-152 156 -152 457q0 346 177 586q186 254 483 254q397 0 504 -404l-217 -55q-70 248 -287 248q-190 0 -301 -217q-94 -184 -94 -420q0 -375 284 -375q154 0 248 154q49 88 66 166h-297l34 207h527l-119 -707h-104z " />
<glyph unicode="H" horiz-adv-x="1323" d="M1087 0h-243l98 590h-532l-101 -590h-243l229 1366h244l-95 -561h535l92 561h246z" />
<glyph unicode="I" horiz-adv-x="552" d="M66 0l227 1366h254l-230 -1366h-251z" />
<glyph unicode="J" horiz-adv-x="768" d="M-47 201q70 -8 137 -8q152 0 209 63q49 53 74 207l151 903h250l-145 -864q-41 -252 -111 -355q-117 -172 -395 -172q-51 0 -209 21z" />
<glyph unicode="K" horiz-adv-x="1263" d="M887 0l-203 684l-317 -346l-58 -338h-243l229 1366h244l-101 -596l-30 -143q20 31 75 100l578 639h260l-447 -487l271 -879h-258z" />
<glyph unicode="L" horiz-adv-x="999" d="M66 0l227 1366h260l-193 -1151h560l-35 -215h-819z" />
<glyph unicode="M" horiz-adv-x="1632" d="M1153 0l209 1243l-582 -1243h-133l-184 1233l-207 -1233h-190l229 1366h373l143 -917l416 917h399l-227 -1366h-246z" />
<glyph unicode="N" horiz-adv-x="1329" d="M899 0l-465 1026l-172 -1026h-196l229 1366h252l424 -938l157 938h195l-227 -1366h-197z" />
<glyph unicode="O" horiz-adv-x="1325" d="M262 125q-158 174 -158 457q0 299 154 536q182 285 492 285q262 0 403 -184q127 -166 127 -433q0 -307 -158 -544q-186 -279 -497 -279q-218 0 -363 162zM924 375q96 213 96 467q0 356 -283 356q-156 0 -248 -162q-125 -209 -124 -497q0 -176 63 -269q70 -102 207 -102 q191 0 289 207z" />
<glyph unicode="P" horiz-adv-x="1222" d="M66 0l227 1366h366q313 0 416 -57q178 -106 178 -332q0 -211 -155 -336q-111 -94 -357 -94h-329l-93 -547h-253zM516 1167l-72 -419h244q172 0 236 51q72 59 71 172q0 92 -53 143q-53 53 -235 53h-191z" />
<glyph unicode="Q" horiz-adv-x="1312" d="M1098 -279q-66 -10 -144 -10q-252 0 -292 150q-12 39 -13 110q-37 -4 -47 -4q-258 0 -391 201q-109 164 -109 405q0 293 148 531q180 295 500 295q258 0 393 -180q123 -162 123 -433q0 -260 -111 -467q-115 -215 -317 -301q4 -102 170 -102q51 0 112 12zM891 340 q119 205 119 475q0 385 -269 385q-197 0 -301 -262q-78 -195 -78 -418q0 -174 74 -266q66 -82 174 -82q183 0 281 168z" />
<glyph unicode="R" horiz-adv-x="1308" d="M868 0l-145 559h-320l-94 -559h-243l227 1366h514q242 0 342 -86q135 -115 135 -291q0 -199 -137 -313q-74 -61 -186 -88l167 -588h-260zM436 758h340q125 0 189 53q66 55 65 164q0 63 -33 110q-53 82 -225 82h-268z" />
<glyph unicode="S" horiz-adv-x="1132" d="M891 1024q-41 100 -133 141q-63 29 -129 29q-113 0 -178 -57q-61 -51 -62 -129q0 -115 184 -166q289 -82 371 -150q117 -94 117 -262q0 -143 -86 -262q-139 -197 -461 -197q-401 0 -530 340l223 80q86 -215 325 -215q147 0 220 74q57 57 57 137q0 113 -152 158l-221 65 q-299 90 -299 363q0 184 129 303q137 123 369 123q350 0 479 -293z" />
<glyph unicode="T" horiz-adv-x="944" d="M707 1151l-193 -1151h-252l193 1151h-346l34 215h947l-37 -215h-346z" />
<glyph unicode="U" horiz-adv-x="1239" d="M1098 483q-53 -326 -234 -436q-123 -78 -286 -78q-188 0 -308 94q-141 109 -141 318q0 29 18 194l134 791h249l-133 -803q-23 -123 -22 -176q0 -131 108 -180q55 -27 125 -27q162 0 232 115q43 70 71 248l140 823h194z" />
<glyph unicode="V" horiz-adv-x="1112" d="M360 0l-229 1366h258l172 -1079l473 1079h217l-616 -1366h-275z" />
<glyph unicode="W" horiz-adv-x="1781" d="M1085 -10l-118 1028l-422 -1028h-236l-162 1376h265l92 -1032l418 1032h243l109 -1032l416 1032h215l-574 -1376h-246z" />
<glyph unicode="X" horiz-adv-x="1130" d="M778 0l-219 522l-393 -522h-250l547 711l-285 655h273l190 -457l342 457h244l-496 -637l316 -729h-269z" />
<glyph unicode="Y" horiz-adv-x="1060" d="M336 0l96 575l-346 791h279l243 -590l387 590h238l-547 -803l-94 -563h-256z" />
<glyph unicode="Z" horiz-adv-x="1077" d="M-43 0l33 201l823 950h-643l35 215h958l-26 -172l-852 -979h708l-35 -215h-1001z" />
<glyph unicode="[" horiz-adv-x="624" d="M391 -356h-385l289 1722h383l-19 -113h-217l-249 -1497h217z" />
<glyph unicode="\" horiz-adv-x="890" d="M205 1366h139l485 -1722h-135z" />
<glyph unicode="]" horiz-adv-x="624" d="M233 1366h383l-286 -1722h-385l18 112h219l250 1497h-219z" />
<glyph unicode="^" d="M1104 633h-197l-297 569l-295 -569h-196l387 733h211z" />
<glyph unicode="_" horiz-adv-x="1024" d="M1024 -154v-102h-1024v102h1024z" />
<glyph unicode="`" horiz-adv-x="1024" d="M782 1268l-49 -107l-373 197l80 129z" />
<glyph unicode="a" horiz-adv-x="1095" d="M674 0q-4 100 16 219q-113 -246 -348 -246q-141 0 -227 90q-82 82 -82 203q0 205 205 301q152 72 417 72q53 0 107 -4q6 41 6 72q0 166 -197 165q-154 0 -235 -139l-199 62q123 248 445 247q186 0 297 -84q113 -86 112 -231q0 -53 -49 -319q-51 -281 -51 -349 q0 -27 4 -59h-221zM276 289q0 -137 154 -137q113 0 201 104q68 84 108 262q-463 -18 -463 -229z" />
<glyph unicode="b" horiz-adv-x="1085" d="M51 0l230 1366h223l-86 -524q133 213 309 213q145 0 227 -127q72 -113 72 -285q0 -211 -100 -405q-133 -256 -375 -256q-209 0 -299 190l-96 -172h-105zM799 641q0 225 -160 225q-131 0 -217 -172q-72 -147 -72 -313q0 -104 66 -164q53 -47 123 -47q158 0 229 252 q31 113 31 219z" />
<glyph unicode="c" horiz-adv-x="978" d="M768 655q-39 199 -199 199q-125 0 -200 -149q-66 -129 -66 -293q0 -123 49 -183q51 -61 140 -61q145 0 229 201l186 -68q-145 -324 -432 -324q-197 0 -305 136q-98 125 -98 323q0 246 133 424q141 186 354 187q336 0 399 -357z" />
<glyph unicode="d" horiz-adv-x="1095" d="M655 0l35 211q-129 -233 -321 -234q-139 0 -219 109q-84 111 -84 307q0 260 116 451q129 207 332 207q115 0 195 -70q55 -49 82 -133l86 518h225l-230 -1366h-217zM743 625q0 104 -51 172q-51 66 -137 65q-156 0 -223 -217q-39 -129 -39 -268q0 -217 166 -217 q178 0 250 250q34 113 34 215z" />
<glyph unicode="e" horiz-adv-x="1067" d="M295 481q-6 -37 -6 -75q0 -86 33 -150q55 -104 182 -104q152 0 239 188l199 -53q-141 -311 -444 -312q-205 0 -320 129q-109 121 -108 320q0 260 139 436q145 182 377 182q172 0 280 -98q133 -129 133 -383q0 -35 -4 -80h-700zM786 627q0 258 -200 258q-205 0 -267 -258 h467z" />
<glyph unicode="f" horiz-adv-x="645" d="M307 0h-223l137 831h-139l33 187h139q45 207 131 293q102 102 287 102q86 0 141 -12l-18 -189q-49 12 -105 13q-184 0 -211 -207h219l-30 -187h-222z" />
<glyph unicode="g" horiz-adv-x="1038" d="M1077 1102l-76 4q-92 0 -137 -35q-25 -23 -51 -82q156 -78 156 -241q0 -133 -97 -222q-115 -106 -335 -106q-76 0 -199 29q-90 -47 -90 -125q0 -92 164 -93h120q201 0 293 -43q141 -70 142 -217q0 -160 -152 -254q-131 -82 -405 -82q-240 0 -344 72q-94 66 -95 168 q0 127 162 221q-86 59 -86 156q0 147 199 250q-115 86 -115 207q0 178 154 264q117 68 301 67q49 0 127 -14q41 123 90 176q72 78 207 78q39 0 69 -6zM700 14q-33 10 -141 13q-270 4 -326 18q-66 -57 -65 -106q0 -156 295 -156q287 0 287 156q-1 59 -50 75zM535 553 q102 0 157 57q49 51 49 135q0 152 -166 152q-102 0 -157 -57q-51 -51 -51 -133q0 -154 168 -154z" />
<glyph unicode="h" horiz-adv-x="1101" d="M655 0l101 600q18 94 18 131q0 133 -129 133q-113 0 -192 -100q-61 -78 -95 -262l-84 -502h-223l230 1366h223l-88 -526q133 207 311 207q98 0 168 -46q106 -70 106 -229q0 -43 -22 -172l-100 -600h-224z" />
<glyph unicode="i" horiz-adv-x="507" d="M51 0l170 1018h236l-170 -1018h-236zM242 1137l41 243h235l-41 -243h-235z" />
<glyph unicode="j" horiz-adv-x="507" d="M301 90q-39 -238 -96 -326q-98 -147 -332 -147q-68 0 -145 12l12 191q80 -12 110 -13q115 0 158 66q29 41 53 180l160 965h236zM242 1141l41 239h235l-41 -239h-235z" />
<glyph unicode="k" horiz-adv-x="1110" d="M770 0l-178 543l-266 -248l-50 -295h-225l230 1366h223l-137 -823l512 475h239l-344 -322l238 -696h-242z" />
<glyph unicode="l" horiz-adv-x="507" d="M51 0l230 1366h233l-227 -1366h-236z" />
<glyph unicode="m" horiz-adv-x="1746" d="M1290 0l103 614q12 76 12 105q0 135 -141 135q-225 0 -293 -410l-78 -444h-223l100 590q16 106 16 141q0 125 -127 125q-129 0 -210 -137q-63 -96 -111 -367l-57 -352h-230l172 1018h223l-38 -230q106 258 329 259q227 0 267 -240q154 240 360 240q119 0 197 -72 q84 -78 84 -201q0 -57 -23 -199l-96 -575h-236z" />
<glyph unicode="n" horiz-adv-x="1099" d="M655 0l103 610q12 63 12 117q0 133 -127 133q-223 0 -291 -401l-76 -459h-225l170 1018h209l-41 -240q104 186 191 230q68 35 145 34q106 0 184 -67q88 -80 88 -215q0 -51 -20 -170l-98 -590h-224z" />
<glyph unicode="o" horiz-adv-x="1075" d="M887 184q-141 -211 -381 -211q-152 0 -262 76q-174 117 -174 391q0 238 133 410q147 188 385 188q186 0 299 -120q119 -127 119 -349q0 -211 -119 -385zM567 856q-143 0 -213 -168q-53 -133 -53 -287q0 -246 207 -245q158 0 225 202q39 121 39 234q0 264 -205 264z" />
<glyph unicode="p" horiz-adv-x="1081" d="M387 807q125 244 318 244q141 0 229 -113q90 -119 90 -315q0 -236 -106 -428q-125 -223 -328 -224q-209 0 -285 207l-90 -534h-223l229 1374h201zM631 868q-129 0 -211 -163q-72 -139 -72 -297q0 -147 80 -213q51 -41 119 -41q129 0 196 184q47 131 48 266 q0 264 -160 264z" />
<glyph unicode="q" horiz-adv-x="1085" d="M580 -356l90 532q-119 -205 -295 -205q-158 0 -238 123q-72 111 -71 293q0 279 139 469q137 188 332 188q182 0 301 -184l86 158h114l-39 -203l-196 -1171h-223zM694 793q-51 63 -139 63q-141 0 -211 -192q-51 -137 -51 -291q0 -219 158 -219q139 0 221 186 q63 145 63 295q0 103 -41 158z" />
<glyph unicode="r" horiz-adv-x="710" d="M51 0l170 1018h207l-47 -279q72 154 141 219q94 90 238 84l-29 -249q-164 12 -268 -91q-82 -82 -123 -313l-64 -389h-225z" />
<glyph unicode="s" horiz-adv-x="937" d="M713 741q-72 133 -221 133q-70 0 -115 -28q-51 -33 -51 -88q0 -47 36 -70q37 -27 168 -65q147 -45 211 -91q113 -80 113 -217q0 -121 -78 -209q-113 -129 -360 -129q-348 0 -453 269l213 53q37 -90 115 -125q63 -27 127 -27q96 0 149 41q47 37 47 93q0 49 -43 71 q-35 18 -196 68q-276 84 -277 295q0 121 82 211q104 119 307 118q291 0 418 -239z" />
<glyph unicode="t" horiz-adv-x="657" d="M354 381q-14 -92 -14 -109q0 -96 143 -96q31 0 74 6l-31 -184q-63 -14 -143 -14q-127 0 -195 53q-76 59 -75 164q0 49 22 184l78 451h-152l31 182h154l59 274l203 13l-47 -287h219l-31 -182h-219z" />
<glyph unicode="u" horiz-adv-x="1083" d="M852 0h-209l37 221q-57 -109 -135 -170q-90 -70 -209 -69q-115 0 -184 79q-63 70 -64 168q0 49 27 201l98 588h223l-106 -631q-14 -86 -15 -108q0 -106 113 -107q125 0 219 145q47 76 78 271l72 430h225z" />
<glyph unicode="v" horiz-adv-x="915" d="M295 0l-217 1018h246l135 -713l329 713h199l-483 -1018h-209z" />
<glyph unicode="w" horiz-adv-x="1431" d="M821 0l-78 725l-292 -725h-207l-152 1018h232l92 -705l293 705h202l74 -703l313 703h199l-465 -1018h-211z" />
<glyph unicode="x" horiz-adv-x="935" d="M614 0l-180 391l-307 -391h-223l444 539l-239 479h258l141 -313l246 313h219l-377 -459l274 -559h-256z" />
<glyph unicode="y" horiz-adv-x="931" d="M-47 -170q57 -8 133 -8q137 0 203 141l39 80l-250 975h239l156 -703l336 703h195l-523 -1055q-92 -188 -151 -246q-92 -88 -264 -88q-66 0 -123 9z" />
<glyph unicode="z" horiz-adv-x="862" d="M-35 0l29 182l571 660h-432l29 176h723l-27 -158l-584 -678h488l-31 -182h-766z" />
<glyph unicode="{" horiz-adv-x="667" d="M274 -76q-8 -57 -8 -80q0 -88 178 -88l-18 -112q-170 0 -231 20q-111 39 -111 168q0 51 8 100l58 342q6 18 6 68q0 92 -90 115l16 104q121 27 143 170l60 361q31 188 157 243q72 31 271 31l-19 -113q-129 0 -172 -34q-37 -31 -53 -127l-59 -353q-27 -166 -164 -237 q92 -55 92 -160q0 -31 -6 -78z" />
<glyph unicode="|" horiz-adv-x="1024" d="M657 -512h-231v2048h231v-2048z" />
<glyph unicode="}" horiz-adv-x="667" d="M391 1085q8 59 8 78q0 90 -178 90l19 113q168 0 231 -23q111 -39 111 -165q0 -51 -9 -103l-57 -342q-6 -37 -6 -65q0 -92 90 -115l-16 -107q-121 -27 -144 -167l-59 -361q-29 -180 -152 -237q-78 -37 -276 -37l18 112q129 2 172 37q37 29 54 125l59 350q27 170 162 238 q-90 55 -90 160q0 31 6 79z" />
<glyph unicode="~" d="M123 590q63 139 108 188q76 82 195 82q70 0 217 -57q135 -53 182 -53q90 0 158 114l133 -78q-123 -260 -319 -260q-78 0 -195 54q-154 57 -194 57q-86 0 -156 -131z" />
<glyph unicode="&#xa1;" horiz-adv-x="505" d="M459 1010l-41 -252h-246l41 252h246zM332 631l-33 -987h-291l221 987h103z" />
<glyph unicode="&#xa2;" d="M565 -104h-112l55 337q-268 72 -268 392q0 207 102 352q115 164 322 180l43 260h112l-43 -268q229 -53 277 -297l-176 -35q-16 143 -127 172l-105 -616q127 2 209 172l137 -66q-125 -256 -370 -260zM641 993q-80 -16 -127 -88q-74 -111 -74 -297q0 -162 101 -215z" />
<glyph unicode="&#xa3;" d="M-90 0l39 229q129 6 186 27q90 31 144 125q41 72 47 264h-162l29 178h139q-4 238 76 369q137 227 413 227q258 0 350 -252l-208 -90q-35 154 -168 154q-70 0 -127 -49q-53 -47 -68 -115q-20 -84 -16 -244h258l-31 -178h-240q-31 -299 -217 -418h269q172 0 254 52 q70 43 106 145l197 -111q-143 -313 -547 -313h-723z" />
<glyph unicode="&#xa5;" d="M406 866l-205 500h254l231 -592l381 592h215l-328 -500h244l-20 -123h-304l-118 -180l-4 -20h391l-21 -123h-391l-69 -420h-234l70 420h-387l20 123h387l6 32l-69 168h-289l20 123h220z" />
<glyph unicode="&#xa7;" horiz-adv-x="1200" d="M244 -33q37 -90 114 -129q72 -37 166 -37q104 0 164 54q51 45 51 106q0 102 -200 182q-266 104 -316 189q-41 68 -41 151q0 197 217 336q-92 66 -92 197q0 164 133 268q125 96 305 96q174 0 302 -98q63 -49 112 -145l-188 -58q-76 143 -240 144q-82 0 -141 -37 q-66 -41 -66 -105q0 -49 39 -77q31 -20 191 -91q168 -70 223 -118q88 -76 88 -207q0 -186 -186 -328q104 -74 104 -225q0 -164 -117 -277q-131 -127 -356 -127q-358 0 -496 297zM393 578q0 -90 146 -158l200 -90q119 92 119 178q0 90 -135 151q-193 82 -203 89 q-127 -96 -127 -170z" />
<glyph unicode="&#xa8;" horiz-adv-x="1024" d="M553 1214q-33 -27 -78 -26q-49 0 -82 35q-29 31 -28 73q0 43 28 74q31 37 82 37q45 0 76 -27q39 -31 39 -84q0 -51 -37 -82zM887 1214q-33 -27 -78 -26q-49 0 -82 35q-29 31 -29 73q0 43 29 74q31 37 82 37q45 0 76 -27q39 -31 39 -84q0 -51 -37 -82z" />
<glyph unicode="&#xa9;" horiz-adv-x="1501" d="M983 793q-20 186 -164 186q-86 0 -135 -76q-82 -125 -82 -319q0 -106 55 -156q41 -37 99 -37q125 0 190 170l144 -57q-100 -252 -347 -252q-147 0 -235 100q-88 98 -88 266q0 197 104 340q115 156 299 156q293 0 320 -295zM1284 1184q205 -209 205 -500q0 -297 -207 -504 q-207 -209 -500 -209t-501 209q-209 209 -209 504q0 291 204 500q209 211 508 211q293 0 500 -211zM367 1102q-168 -174 -168 -418q0 -250 172 -424q170 -174 411 -174q240 0 410 174t170 424q0 244 -166 418q-170 178 -412 178q-245 0 -417 -178z" />
<glyph unicode="&#xaa;" horiz-adv-x="720" d="M178 1225q29 57 84 98q84 57 205 57q119 0 192 -49q74 -53 74 -143q0 -33 -28 -199q-29 -166 -29 -194q0 -25 2 -43h-158v84q-72 -100 -198 -101q-92 0 -150 56q-53 51 -53 124q0 152 180 201q117 31 272 25l2 33q0 94 -114 94q-90 0 -137 -86zM377 854q66 0 117 59 q37 45 61 144q-133 -10 -186 -29q-78 -31 -78 -98q0 -76 86 -76z" />
<glyph unicode="&#xab;" horiz-adv-x="673" d="M449 223l-123 293l202 281h107l-156 -287l60 -287h-90zM201 223l-125 289l203 285h104l-154 -291l58 -283h-86z" />
<glyph unicode="&#xac;" d="M944 733h-819v191h1010v-547h-191v356z" />
<glyph unicode="&#xad;" horiz-adv-x="489" d="M-14 414l28 182h492l-31 -182h-489z" />
<glyph unicode="&#xae;" horiz-adv-x="1007" d="M481 731h-112l82 453h184q86 0 121 -29q49 -41 49 -98q0 -100 -111 -135l60 -191h-119l-51 172h-70zM528 987h78q84 0 84 66q0 47 -84 47h-57zM283 1257q123 123 297 123t297 -123q125 -125 124 -301q0 -174 -124 -299q-123 -123 -297 -122q-174 0 -299 122 q-123 125 -123 299q0 178 125 301zM336 713q104 -104 244 -105q139 0 243 105q104 104 105 243q0 141 -105 246q-104 104 -243 105q-139 0 -244 -105q-104 -102 -105 -246q1 -139 105 -243z" />
<glyph unicode="&#xaf;" horiz-adv-x="1024" d="M336 1223l22 129h586l-22 -129h-586z" />
<glyph unicode="&#xb0;" d="M506 1309q80 84 196 84q115 0 197 -82q78 -80 78 -193q0 -111 -80 -190q-80 -82 -195 -82q-117 0 -196 84q-76 80 -76 188q0 109 76 191zM604 1024q41 -41 98 -41t97 41q41 39 41 96q0 55 -39 94q-39 41 -96 41q-59 0 -99 -43q-39 -39 -39 -92q0 -55 37 -96z" />
<glyph unicode="&#xb1;" d="M1096 594h-410v-424h-190v424h-412l2 190h410v426h190v-426h412zM1096 -88h-1012l2 190h1012z" />
<glyph unicode="&#xb4;" horiz-adv-x="1024" d="M920 1350l-416 -189l-43 107l393 219z" />
<glyph unicode="&#xb5;" horiz-adv-x="1024" d="M150 1018h231l-94 -565q-12 -82 -13 -117q0 -74 52 -123q49 -51 129 -51q96 0 166 69q78 76 100 232l92 555h229l-170 -1018h-229l23 133q-102 -156 -246 -156q-133 0 -191 134l-77 -463h-230z" />
<glyph unicode="&#xb6;" d="M1235 1251h-137l-267 -1587h-114l266 1587h-113l-264 -1587h-119l175 1038h-76q-195 0 -275 33q-135 57 -135 236q0 180 123 291q117 104 403 104h551zM682 817l72 434h-60q-201 0 -256 -63q-66 -76 -65 -187q0 -123 76 -161q43 -23 151 -23h82z" />
<glyph unicode="&#xb7;" horiz-adv-x="497" d="M109 379l43 252h237l-41 -252h-239z" />
<glyph unicode="&#xb8;" horiz-adv-x="1024" d="M473 -92q61 0 111 -29q63 -37 63 -106q0 -63 -59 -119q-63 -57 -156 -57q-59 0 -186 59l45 80q74 -47 141 -47q84 0 84 67q0 74 -166 74l82 170h82z" />
<glyph unicode="&#xba;" horiz-adv-x="720" d="M227 1270q92 111 244 110q133 0 209 -88q63 -76 63 -184q0 -164 -94 -268q-90 -100 -225 -101q-98 0 -170 47q-113 72 -113 240q0 144 86 244zM426 862q104 0 139 160q10 51 10 94q0 143 -116 144q-78 0 -119 -91q-33 -72 -33 -165q0 -142 119 -142z" />
<glyph unicode="&#xbb;" horiz-adv-x="673" d="M227 797l123 -291l-203 -283h-106l156 289l-60 285h90zM475 797l125 -287l-203 -287h-104l153 293l-57 281h86z" />
<glyph unicode="&#xbf;" horiz-adv-x="991" d="M465 1016h246l-43 -254h-246zM627 635q-20 -174 -68 -248q-39 -59 -164 -141q-174 -115 -174 -244q0 -78 51 -129q53 -51 138 -51q193 0 258 252l202 -80q-139 -375 -477 -375q-190 0 -307 117q-106 106 -106 260q0 246 286 395q127 63 152 139q18 55 20 105h189z" />
<glyph unicode="&#xc0;" horiz-adv-x="1234" d="M877 0l-58 330h-493l-152 -330h-231l653 1366h303l250 -1366h-272zM797 520l-107 606l-280 -606h387zM526 1786l394 -191l-41 -106l-418 156z" />
<glyph unicode="&#xc1;" horiz-adv-x="1234" d="M877 0l-58 330h-493l-152 -330h-231l653 1366h303l250 -1366h-272zM797 520l-107 606l-280 -606h387zM612 1489l-34 106l440 191l59 -141z" />
<glyph unicode="&#xc2;" horiz-adv-x="1234" d="M877 0l-58 330h-493l-152 -330h-231l653 1366h303l250 -1366h-272zM797 520l-107 606l-280 -606h387zM1110 1516l-192 -21l-127 111l-205 -111l-187 21l412 260z" />
<glyph unicode="&#xc3;" horiz-adv-x="1234" d="M877 0l-58 330h-493l-152 -330h-231l653 1366h303l250 -1366h-272zM797 520l-107 606l-280 -606h387zM1110 1638q-109 -123 -233 -122q-55 0 -144 43q-82 41 -112 40q-51 0 -146 -77l-59 96q121 121 233 121q51 0 131 -39q86 -43 133 -43q61 0 131 78z" />
<glyph unicode="&#xc4;" horiz-adv-x="1234" d="M877 0l-58 330h-493l-152 -330h-231l653 1366h303l250 -1366h-272zM797 520l-107 606l-280 -606h387zM662 1538q-33 -27 -78 -27q-49 0 -82 35q-29 31 -29 74t29 74q31 37 82 37q45 0 75 -27q39 -31 39 -84q1 -51 -36 -82zM1010 1538q-33 -27 -78 -27q-49 0 -82 35 q-29 31 -29 74t29 74q31 37 82 37q45 0 76 -27q39 -31 39 -84q0 -51 -37 -82z" />
<glyph unicode="&#xc5;" horiz-adv-x="1234" d="M877 0l-58 330h-493l-152 -330h-231l653 1366h303l250 -1366h-272zM797 520l-107 606l-280 -606h387zM897 1511q-55 -57 -135 -57q-76 0 -131 55q-53 53 -53 129q0 78 53 131q55 55 131 56q61 0 115 -39q72 -51 71 -150q0 -72 -51 -125zM768 1720q-86 0 -86 -80 q0 -82 82 -81q78 0 80 75q0 86 -76 86z" />
<glyph unicode="&#xc6;" horiz-adv-x="1716" d="M666 0l59 350h-391l-223 -350h-230l895 1366h998l-35 -215h-637l-60 -354h531l-33 -201h-530l-64 -381h660l-35 -215h-905zM756 537l104 626l-405 -626h301z" />
<glyph unicode="&#xc7;" horiz-adv-x="1210" d="M555 -98q205 4 205 -138q0 -74 -60 -131q-68 -66 -176 -65q-88 0 -217 61l47 82q109 -51 158 -51q106 0 106 84q0 86 -194 76l76 153q-215 51 -318 242q-80 147 -80 350q0 328 166 570q180 266 473 266q227 0 357 -135q119 -125 137 -344l-221 -41q-37 315 -277 315 q-176 0 -274 -205q-100 -217 -101 -481q0 -195 105 -281q66 -53 156 -53q215 0 323 281l199 -84q-176 -416 -559 -408z" />
<glyph unicode="&#xc8;" horiz-adv-x="1099" d="M66 0l229 1366h862l-37 -215h-618l-60 -354h512l-32 -203h-512l-64 -379h643l-37 -215h-886zM444 1786l394 -191l-41 -106l-418 156z" />
<glyph unicode="&#xc9;" horiz-adv-x="1099" d="M66 0l229 1366h862l-37 -215h-618l-60 -354h512l-32 -203h-512l-64 -379h643l-37 -215h-886zM612 1489l-34 106l440 191l59 -141z" />
<glyph unicode="&#xca;" horiz-adv-x="1099" d="M66 0l229 1366h862l-37 -215h-618l-60 -354h512l-32 -203h-512l-64 -379h643l-37 -215h-886zM1090 1516l-193 -21l-127 111l-205 -111l-186 21l412 260z" />
<glyph unicode="&#xcb;" horiz-adv-x="1099" d="M66 0l229 1366h862l-37 -215h-618l-60 -354h512l-32 -203h-512l-64 -379h643l-37 -215h-886zM662 1538q-33 -27 -78 -27q-49 0 -82 35q-29 31 -29 74t29 74q31 37 82 37q45 0 75 -27q39 -31 39 -84q1 -51 -36 -82zM1010 1538q-33 -27 -78 -27q-49 0 -82 35q-29 31 -29 74 t29 74q31 37 82 37q45 0 76 -27q39 -31 39 -84q0 -51 -37 -82z" />
<glyph unicode="&#xcc;" horiz-adv-x="552" d="M66 0l227 1366h254l-230 -1366h-251zM199 1786l393 -191l-41 -106l-418 156z" />
<glyph unicode="&#xcd;" horiz-adv-x="552" d="M66 0l227 1366h254l-230 -1366h-251zM326 1489l-35 106l440 191l60 -141z" />
<glyph unicode="&#xce;" horiz-adv-x="552" d="M66 0l227 1366h254l-230 -1366h-251zM782 1516l-192 -21l-127 111l-205 -111l-186 21l411 260z" />
<glyph unicode="&#xcf;" horiz-adv-x="552" d="M66 0l227 1366h254l-230 -1366h-251zM354 1538q-33 -27 -78 -27q-49 0 -81 35q-29 31 -29 74t29 74q31 37 81 37q45 0 76 -27q39 -31 39 -84q0 -51 -37 -82zM702 1538q-33 -27 -77 -27q-49 0 -82 35q-29 31 -29 74t29 74q31 37 82 37q45 0 75 -27q39 -31 39 -84 q0 -51 -37 -82z" />
<glyph unicode="&#xd0;" horiz-adv-x="1310" d="M168 594h-137l32 203h136l96 569h399q301 0 436 -174q129 -170 130 -434q0 -358 -234 -602q-152 -156 -487 -156h-471zM449 797h321l-33 -203h-319l-68 -387h217q193 0 301 125q133 154 133 463q0 164 -71 262q-76 106 -271 106h-147z" />
<glyph unicode="&#xd1;" horiz-adv-x="1329" d="M899 0l-465 1026l-172 -1026h-196l229 1366h252l424 -938l157 938h195l-227 -1366h-197zM1171 1638q-109 -123 -233 -122q-55 0 -143 43q-82 41 -113 40q-51 0 -145 -77l-60 96q121 121 234 121q51 0 131 -39q86 -43 133 -43q61 0 131 78z" />
<glyph unicode="&#xd2;" horiz-adv-x="1325" d="M262 125q-158 174 -158 457q0 299 154 536q182 285 492 285q262 0 403 -184q127 -166 127 -433q0 -307 -158 -544q-186 -279 -497 -279q-218 0 -363 162zM924 375q96 213 96 467q0 356 -283 356q-156 0 -248 -162q-125 -209 -124 -497q0 -176 63 -269q70 -102 207 -102 q191 0 289 207zM485 1786l394 -191l-41 -106l-418 156z" />
<glyph unicode="&#xd3;" horiz-adv-x="1325" d="M262 125q-158 174 -158 457q0 299 154 536q182 285 492 285q262 0 403 -184q127 -166 127 -433q0 -307 -158 -544q-186 -279 -497 -279q-218 0 -363 162zM924 375q96 213 96 467q0 356 -283 356q-156 0 -248 -162q-125 -209 -124 -497q0 -176 63 -269q70 -102 207 -102 q191 0 289 207zM684 1489l-35 106l441 191l59 -141z" />
<glyph unicode="&#xd4;" horiz-adv-x="1325" d="M262 125q-158 174 -158 457q0 299 154 536q182 285 492 285q262 0 403 -184q127 -166 127 -433q0 -307 -158 -544q-186 -279 -497 -279q-218 0 -363 162zM924 375q96 213 96 467q0 356 -283 356q-156 0 -248 -162q-125 -209 -124 -497q0 -176 63 -269q70 -102 207 -102 q191 0 289 207zM1100 1516l-193 -21l-127 111l-205 -111l-186 21l412 260z" />
<glyph unicode="&#xd5;" horiz-adv-x="1325" d="M262 125q-158 174 -158 457q0 299 154 536q182 285 492 285q262 0 403 -184q127 -166 127 -433q0 -307 -158 -544q-186 -279 -497 -279q-218 0 -363 162zM924 375q96 213 96 467q0 356 -283 356q-156 0 -248 -162q-125 -209 -124 -497q0 -176 63 -269q70 -102 207 -102 q191 0 289 207zM1120 1638q-109 -123 -233 -122q-55 0 -144 43q-82 41 -112 40q-51 0 -146 -77l-59 96q121 121 233 121q51 0 132 -39q86 -43 133 -43q61 0 131 78z" />
<glyph unicode="&#xd6;" horiz-adv-x="1325" d="M262 125q-158 174 -158 457q0 299 154 536q182 285 492 285q262 0 403 -184q127 -166 127 -433q0 -307 -158 -544q-186 -279 -497 -279q-218 0 -363 162zM924 375q96 213 96 467q0 356 -283 356q-156 0 -248 -162q-125 -209 -124 -497q0 -176 63 -269q70 -102 207 -102 q191 0 289 207zM702 1538q-33 -27 -77 -27q-49 0 -82 35q-29 31 -29 74t29 74q31 37 82 37q45 0 75 -27q39 -31 39 -84q0 -51 -37 -82zM1051 1538q-33 -27 -78 -27q-49 0 -82 35q-29 31 -29 74t29 74q31 37 82 37q45 0 76 -27q39 -31 38 -84q1 -51 -36 -82z" />
<glyph unicode="&#xd8;" horiz-adv-x="1325" d="M176 -31h-196l208 252q-84 162 -84 359q0 299 158 540q184 283 486 283q190 0 348 -121l100 111h197l-197 -234q84 -166 84 -366q0 -334 -172 -572q-186 -258 -479 -258q-176 0 -338 131zM440 258q74 -90 201 -90q227 0 326 315q53 178 53 367q0 47 -10 108zM942 1116 q-90 82 -205 82q-221 0 -317 -330q-55 -186 -55 -362q0 -31 8 -88z" />
<glyph unicode="&#xd9;" horiz-adv-x="1239" d="M1098 483q-53 -326 -234 -436q-123 -78 -286 -78q-188 0 -308 94q-141 109 -141 318q0 29 18 194l134 791h249l-133 -803q-23 -123 -22 -176q0 -131 108 -180q55 -27 125 -27q162 0 232 115q43 70 71 248l140 823h194zM496 1786l393 -191l-41 -106l-418 156z" />
<glyph unicode="&#xda;" horiz-adv-x="1239" d="M1098 483q-53 -326 -234 -436q-123 -78 -286 -78q-188 0 -308 94q-141 109 -141 318q0 29 18 194l134 791h249l-133 -803q-23 -123 -22 -176q0 -131 108 -180q55 -27 125 -27q162 0 232 115q43 70 71 248l140 823h194zM735 1489l-35 106l441 191l59 -141z" />
<glyph unicode="&#xdb;" horiz-adv-x="1239" d="M1098 483q-53 -326 -234 -436q-123 -78 -286 -78q-188 0 -308 94q-141 109 -141 318q0 29 18 194l134 791h249l-133 -803q-23 -123 -22 -176q0 -131 108 -180q55 -27 125 -27q162 0 232 115q43 70 71 248l140 823h194zM1130 1516l-192 -21l-127 111l-205 -111l-186 21 l411 260z" />
<glyph unicode="&#xdc;" horiz-adv-x="1239" d="M1098 483q-53 -326 -234 -436q-123 -78 -286 -78q-188 0 -308 94q-141 109 -141 318q0 29 18 194l134 791h249l-133 -803q-23 -123 -22 -176q0 -131 108 -180q55 -27 125 -27q162 0 232 115q43 70 71 248l140 823h194zM702 1538q-33 -27 -77 -27q-49 0 -82 35 q-29 31 -29 74t29 74q31 37 82 37q45 0 75 -27q39 -31 39 -84q0 -51 -37 -82zM1051 1538q-33 -27 -78 -27q-49 0 -82 35q-29 31 -29 74t29 74q31 37 82 37q45 0 76 -27q39 -31 38 -84q1 -51 -36 -82z" />
<glyph unicode="&#xdd;" horiz-adv-x="1060" d="M336 0l96 575l-346 791h279l243 -590l387 590h238l-547 -803l-94 -563h-256zM633 1489l-35 106l440 191l60 -141z" />
<glyph unicode="&#xde;" horiz-adv-x="1236" d="M66 0l229 1366h254l-31 -192h111q313 0 415 -58q178 -104 179 -330q0 -209 -156 -335q-111 -94 -356 -95h-330l-59 -356h-256zM485 975l-71 -418h243q172 0 236 51q72 57 72 172q0 90 -54 142q-53 53 -235 53h-191z" />
<glyph unicode="&#xdf;" horiz-adv-x="1148" d="M197 834h-115l31 184h114q31 238 148 368q145 158 370 158q180 0 285 -96q92 -84 92 -203q0 -225 -266 -291q-12 -4 -78 -14l-69 -14q-25 -8 -25 -29q0 -29 82 -66q193 -84 258 -172q68 -88 68 -206q0 -160 -109 -283q-129 -145 -344 -145q-117 0 -238 49l62 166 q90 -33 172 -33q109 0 174 53q59 49 59 121q0 102 -176 201q-186 106 -186 223q0 92 51 162q47 61 113 82q117 35 159 65q61 43 62 117q0 59 -39 100q-45 49 -125 49q-94 0 -149 -57q-78 -82 -115 -305l-170 -1018h-236z" />
<glyph unicode="&#xe0;" horiz-adv-x="1095" d="M674 0q-4 100 16 219q-113 -246 -348 -246q-141 0 -227 90q-82 82 -82 203q0 205 205 301q152 72 417 72q53 0 107 -4q6 41 6 72q0 166 -197 165q-154 0 -235 -139l-199 62q123 248 445 247q186 0 297 -84q113 -86 112 -231q0 -53 -49 -319q-51 -281 -51 -349 q0 -27 4 -59h-221zM276 289q0 -137 154 -137q113 0 201 104q68 84 108 262q-463 -18 -463 -229zM819 1268l-49 -107l-373 197l80 129z" />
<glyph unicode="&#xe1;" horiz-adv-x="1095" d="M674 0q-4 100 16 219q-113 -246 -348 -246q-141 0 -227 90q-82 82 -82 203q0 205 205 301q152 72 417 72q53 0 107 -4q6 41 6 72q0 166 -197 165q-154 0 -235 -139l-199 62q123 248 445 247q186 0 297 -84q113 -86 112 -231q0 -53 -49 -319q-51 -281 -51 -349 q0 -27 4 -59h-221zM276 289q0 -137 154 -137q113 0 201 104q68 84 108 262q-463 -18 -463 -229zM956 1350l-415 -189l-43 107l393 219z" />
<glyph unicode="&#xe2;" horiz-adv-x="1095" d="M674 0q-4 100 16 219q-113 -246 -348 -246q-141 0 -227 90q-82 82 -82 203q0 205 205 301q152 72 417 72q53 0 107 -4q6 41 6 72q0 166 -197 165q-154 0 -235 -139l-199 62q123 248 445 247q186 0 297 -84q113 -86 112 -231q0 -53 -49 -319q-51 -281 -51 -349 q0 -27 4 -59h-221zM276 289q0 -137 154 -137q113 0 201 104q68 84 108 262q-463 -18 -463 -229zM999 1188l-178 -21l-131 131l-203 -131l-178 21l404 289z" />
<glyph unicode="&#xe3;" horiz-adv-x="1095" d="M674 0q-4 100 16 219q-113 -246 -348 -246q-141 0 -227 90q-82 82 -82 203q0 205 205 301q152 72 417 72q53 0 107 -4q6 41 6 72q0 166 -197 165q-154 0 -235 -139l-199 62q123 248 445 247q186 0 297 -84q113 -86 112 -231q0 -53 -49 -319q-51 -281 -51 -349 q0 -27 4 -59h-221zM276 289q0 -137 154 -137q113 0 201 104q68 84 108 262q-463 -18 -463 -229zM961 1317q-90 -117 -213 -117q-57 0 -148 47q-68 37 -100 37q-47 0 -140 -80l-53 96q115 123 217 123q59 0 131 -39q84 -43 123 -43q55 0 129 74z" />
<glyph unicode="&#xe4;" horiz-adv-x="1095" d="M674 0q-4 100 16 219q-113 -246 -348 -246q-141 0 -227 90q-82 82 -82 203q0 205 205 301q152 72 417 72q53 0 107 -4q6 41 6 72q0 166 -197 165q-154 0 -235 -139l-199 62q123 248 445 247q186 0 297 -84q113 -86 112 -231q0 -53 -49 -319q-51 -281 -51 -349 q0 -27 4 -59h-221zM276 289q0 -137 154 -137q113 0 201 104q68 84 108 262q-463 -18 -463 -229zM590 1214q-33 -27 -78 -26q-49 0 -82 35q-29 31 -29 73q0 43 29 74q31 37 82 37q45 0 76 -27q39 -31 39 -84q0 -51 -37 -82zM924 1214q-33 -27 -78 -26q-49 0 -82 35 q-29 31 -29 73q0 43 29 74q31 37 82 37q45 0 76 -27q39 -31 39 -84q0 -51 -37 -82z" />
<glyph unicode="&#xe5;" horiz-adv-x="1095" d="M674 0q-4 100 16 219q-113 -246 -348 -246q-141 0 -227 90q-82 82 -82 203q0 205 205 301q152 72 417 72q53 0 107 -4q6 41 6 72q0 166 -197 165q-154 0 -235 -139l-199 62q123 248 445 247q186 0 297 -84q113 -86 112 -231q0 -53 -49 -319q-51 -281 -51 -349 q0 -27 4 -59h-221zM276 289q0 -137 154 -137q113 0 201 104q68 84 108 262q-463 -18 -463 -229zM823 1190q-55 -57 -135 -57q-78 0 -133 55q-53 53 -53 129q0 78 53 133q55 55 133 55q61 0 115 -39q72 -53 71 -151q0 -72 -51 -125zM692 1401q-86 0 -86 -82t82 -82t82 78 q0 86 -78 86z" />
<glyph unicode="&#xe6;" horiz-adv-x="1697" d="M137 799q133 242 443 241q221 0 323 -125q123 125 316 125q184 0 297 -120q117 -123 116 -330q0 -41 -8 -111h-700l-6 -76q0 -109 51 -176q57 -76 164 -75q154 0 237 184l201 -57q-160 -303 -449 -304q-276 0 -374 240q-170 -242 -396 -242q-147 0 -235 88 q-84 82 -84 205q0 233 237 318q193 66 488 51q6 31 6 61q0 88 -53 133q-53 43 -146 43q-147 0 -229 -137zM475 485q-205 -39 -205 -196q0 -137 156 -137q133 0 225 137q51 74 86 227q-115 -2 -262 -31zM1419 625q10 254 -209 254q-100 0 -172 -78q-63 -72 -86 -176h467z" />
<glyph unicode="&#xe7;" horiz-adv-x="978" d="M434 -92q61 0 111 -29q63 -37 63 -106q0 -63 -59 -119q-63 -57 -156 -57q-59 0 -186 59l45 80q74 -47 139 -47q86 0 86 67q0 74 -168 74l78 156q-315 68 -315 450q0 246 133 424q141 186 354 187q336 0 399 -357l-190 -35q-39 199 -199 199q-125 0 -200 -149 q-66 -129 -66 -293q0 -123 49 -183q55 -61 142 -61q143 0 227 201l188 -68q-147 -324 -442 -324z" />
<glyph unicode="&#xe8;" horiz-adv-x="1067" d="M295 481q-6 -37 -6 -75q0 -86 33 -150q55 -104 182 -104q152 0 239 188l199 -53q-141 -311 -444 -312q-205 0 -320 129q-109 121 -108 320q0 260 139 436q145 182 377 182q172 0 280 -98q133 -129 133 -383q0 -35 -4 -80h-700zM786 627q0 258 -200 258q-205 0 -267 -258 h467zM700 1268l-49 -107l-372 197l79 129z" />
<glyph unicode="&#xe9;" horiz-adv-x="1067" d="M295 481q-6 -37 -6 -75q0 -86 33 -150q55 -104 182 -104q152 0 239 188l199 -53q-141 -311 -444 -312q-205 0 -320 129q-109 121 -108 320q0 260 139 436q145 182 377 182q172 0 280 -98q133 -129 133 -383q0 -35 -4 -80h-700zM786 627q0 258 -200 258q-205 0 -267 -258 h467zM942 1350l-416 -189l-43 107l394 219z" />
<glyph unicode="&#xea;" horiz-adv-x="1067" d="M295 481q-6 -37 -6 -75q0 -86 33 -150q55 -104 182 -104q152 0 239 188l199 -53q-141 -311 -444 -312q-205 0 -320 129q-109 121 -108 320q0 260 139 436q145 182 377 182q172 0 280 -98q133 -129 133 -383q0 -35 -4 -80h-700zM786 627q0 258 -200 258q-205 0 -267 -258 h467zM985 1188l-178 -21l-131 131l-203 -131l-178 21l403 289z" />
<glyph unicode="&#xeb;" horiz-adv-x="1067" d="M295 481q-6 -37 -6 -75q0 -86 33 -150q55 -104 182 -104q152 0 239 188l199 -53q-141 -311 -444 -312q-205 0 -320 129q-109 121 -108 320q0 260 139 436q145 182 377 182q172 0 280 -98q133 -129 133 -383q0 -35 -4 -80h-700zM786 627q0 258 -200 258q-205 0 -267 -258 h467zM575 1214q-33 -27 -77 -26q-49 0 -82 35q-29 31 -29 73q0 43 29 74q31 37 82 37q45 0 75 -27q39 -31 39 -84q0 -51 -37 -82zM909 1214q-33 -27 -78 -26q-49 0 -81 35q-29 31 -29 73q0 43 29 74q31 37 81 37q45 0 76 -27q39 -31 39 -84q0 -51 -37 -82z" />
<glyph unicode="&#xec;" horiz-adv-x="507" d="M51 0l170 1018h236l-170 -1018h-236zM524 1268l-49 -107l-373 197l80 129z" />
<glyph unicode="&#xed;" horiz-adv-x="507" d="M51 0l170 1018h236l-170 -1018h-236zM662 1350l-416 -189l-43 107l393 219z" />
<glyph unicode="&#xee;" horiz-adv-x="507" d="M51 0l170 1018h236l-170 -1018h-236zM705 1188l-179 -21l-131 131l-202 -131l-179 21l404 289z" />
<glyph unicode="&#xef;" horiz-adv-x="507" d="M51 0l170 1018h236l-170 -1018h-236zM295 1214q-33 -27 -78 -26q-49 0 -82 35q-29 31 -29 73q0 43 29 74q31 37 82 37q45 0 76 -27q39 -31 39 -84q0 -51 -37 -82zM629 1214q-33 -27 -78 -26q-49 0 -82 35q-29 31 -29 73q0 43 29 74q31 37 82 37q45 0 76 -27 q39 -31 39 -84q0 -51 -37 -82z" />
<glyph unicode="&#xf0;" horiz-adv-x="1075" d="M500 158q123 0 182 102q84 135 84 328q0 88 -37 151q-51 90 -162 90q-143 0 -211 -145q-61 -135 -61 -268q0 -258 205 -258zM866 1227q145 -262 146 -565q0 -262 -109 -449q-139 -238 -411 -238q-160 0 -275 91q-150 119 -149 360q0 285 143 432q147 154 364 154 q96 0 183 -54q-27 109 -76 197l-317 -121l-60 133l301 117q-23 33 -67 90l172 68q47 -49 73 -90l297 114l60 -133z" />
<glyph unicode="&#xf1;" horiz-adv-x="1099" d="M655 0l103 610q12 63 12 117q0 133 -127 133q-223 0 -291 -401l-76 -459h-225l170 1018h209l-41 -240q104 186 191 230q68 35 145 34q106 0 184 -67q88 -80 88 -215q0 -51 -20 -170l-98 -590h-224zM963 1317q-90 -117 -213 -117q-57 0 -148 47q-68 37 -100 37 q-47 0 -140 -80l-53 96q115 123 217 123q59 0 131 -39q84 -43 123 -43q55 0 129 74z" />
<glyph unicode="&#xf2;" horiz-adv-x="1075" d="M887 184q-141 -211 -381 -211q-152 0 -262 76q-174 117 -174 391q0 238 133 410q147 188 385 188q186 0 299 -120q119 -127 119 -349q0 -211 -119 -385zM567 856q-143 0 -213 -168q-53 -133 -53 -287q0 -246 207 -245q158 0 225 202q39 121 39 234q0 264 -205 264z M705 1268l-50 -107l-372 197l79 129z" />
<glyph unicode="&#xf3;" horiz-adv-x="1075" d="M887 184q-141 -211 -381 -211q-152 0 -262 76q-174 117 -174 391q0 238 133 410q147 188 385 188q186 0 299 -120q119 -127 119 -349q0 -211 -119 -385zM567 856q-143 0 -213 -168q-53 -133 -53 -287q0 -246 207 -245q158 0 225 202q39 121 39 234q0 264 -205 264z M946 1350l-416 -189l-43 107l394 219z" />
<glyph unicode="&#xf4;" horiz-adv-x="1075" d="M887 184q-141 -211 -381 -211q-152 0 -262 76q-174 117 -174 391q0 238 133 410q147 188 385 188q186 0 299 -120q119 -127 119 -349q0 -211 -119 -385zM567 856q-143 0 -213 -168q-53 -133 -53 -287q0 -246 207 -245q158 0 225 202q39 121 39 234q0 264 -205 264z M989 1188l-178 -21l-131 131l-203 -131l-178 21l403 289z" />
<glyph unicode="&#xf5;" horiz-adv-x="1075" d="M887 184q-141 -211 -381 -211q-152 0 -262 76q-174 117 -174 391q0 238 133 410q147 188 385 188q186 0 299 -120q119 -127 119 -349q0 -211 -119 -385zM567 856q-143 0 -213 -168q-53 -133 -53 -287q0 -246 207 -245q158 0 225 202q39 121 39 234q0 264 -205 264z M950 1317q-90 -117 -213 -117q-57 0 -147 47q-68 37 -101 37q-47 0 -139 -80l-53 96q115 123 217 123q59 0 131 -39q84 -43 123 -43q55 0 129 74z" />
<glyph unicode="&#xf6;" horiz-adv-x="1075" d="M887 184q-141 -211 -381 -211q-152 0 -262 76q-174 117 -174 391q0 238 133 410q147 188 385 188q186 0 299 -120q119 -127 119 -349q0 -211 -119 -385zM567 856q-143 0 -213 -168q-53 -133 -53 -287q0 -246 207 -245q158 0 225 202q39 121 39 234q0 264 -205 264z M580 1214q-33 -27 -78 -26q-49 0 -82 35q-29 31 -29 73q0 43 29 74q31 37 82 37q45 0 76 -27q39 -31 38 -84q1 -51 -36 -82zM913 1214q-33 -27 -77 -26q-49 0 -82 35q-29 31 -29 73q0 43 29 74q31 37 82 37q45 0 75 -27q39 -31 39 -84q0 -51 -37 -82z" />
<glyph unicode="&#xf7;" d="M715 430q37 -37 37 -88t-37 -86q-35 -37 -86 -37t-86 37q-37 35 -37 86t37 86q35 37 86 37t86 -35zM715 1122q37 -35 37 -86t-37 -86q-35 -37 -86 -37t-86 37q-37 35 -37 86t37 86q35 37 86 37t86 -37zM1137 594h-1012v190h1012v-190z" />
<glyph unicode="&#xf8;" horiz-adv-x="1075" d="M152 -29h-150l143 174q-74 119 -73 293q0 242 129 412q143 188 381 188q160 0 262 -86l78 88h145l-143 -168q82 -127 82 -292q0 -248 -140 -424q-145 -182 -366 -183q-156 0 -273 86zM360 213q61 -57 144 -57q152 0 221 176q47 119 47 272q0 49 -12 98zM705 807 q-55 49 -138 49q-143 0 -213 -168q-53 -133 -53 -287q0 -41 8 -84z" />
<glyph unicode="&#xf9;" horiz-adv-x="1083" d="M852 0h-209l37 221q-57 -109 -135 -170q-90 -70 -209 -69q-115 0 -184 79q-63 70 -64 168q0 49 27 201l98 588h223l-106 -631q-14 -86 -15 -108q0 -106 113 -107q125 0 219 145q47 76 78 271l72 430h225zM688 1268l-49 -107l-373 197l80 129z" />
<glyph unicode="&#xfa;" horiz-adv-x="1083" d="M852 0h-209l37 221q-57 -109 -135 -170q-90 -70 -209 -69q-115 0 -184 79q-63 70 -64 168q0 49 27 201l98 588h223l-106 -631q-14 -86 -15 -108q0 -106 113 -107q125 0 219 145q47 76 78 271l72 430h225zM950 1350l-415 -189l-43 107l393 219z" />
<glyph unicode="&#xfb;" horiz-adv-x="1083" d="M852 0h-209l37 221q-57 -109 -135 -170q-90 -70 -209 -69q-115 0 -184 79q-63 70 -64 168q0 49 27 201l98 588h223l-106 -631q-14 -86 -15 -108q0 -106 113 -107q125 0 219 145q47 76 78 271l72 430h225zM993 1188l-178 -21l-131 131l-203 -131l-178 21l404 289z" />
<glyph unicode="&#xfc;" horiz-adv-x="1083" d="M852 0h-209l37 221q-57 -109 -135 -170q-90 -70 -209 -69q-115 0 -184 79q-63 70 -64 168q0 49 27 201l98 588h223l-106 -631q-14 -86 -15 -108q0 -106 113 -107q125 0 219 145q47 76 78 271l72 430h225zM584 1214q-33 -27 -78 -26q-49 0 -82 35q-29 31 -29 73 q0 43 29 74q31 37 82 37q45 0 76 -27q39 -31 39 -84q0 -51 -37 -82zM918 1214q-33 -27 -78 -26q-49 0 -82 35q-29 31 -29 73q0 43 29 74q31 37 82 37q45 0 75 -27q39 -31 39 -84q1 -51 -36 -82z" />
<glyph unicode="&#xfd;" horiz-adv-x="931" d="M-47 -170q57 -8 133 -8q137 0 203 141l39 80l-250 975h239l156 -703l336 703h195l-523 -1055q-92 -188 -151 -246q-92 -88 -264 -88q-66 0 -123 9zM874 1350l-415 -189l-43 107l393 219z" />
<glyph unicode="&#xfe;" horiz-adv-x="1081" d="M-8 -356l289 1722h223l-88 -524q127 209 286 209q143 0 232 -115q90 -117 90 -313q0 -236 -106 -428q-125 -223 -328 -224q-209 0 -285 207l-88 -534h-225zM631 868q-131 0 -213 -163q-70 -139 -70 -297q0 -145 80 -211q51 -43 119 -43q129 0 196 184q47 131 48 266 q0 264 -160 264z" />
<glyph unicode="&#xff;" horiz-adv-x="931" d="M-47 -170q57 -8 133 -8q137 0 203 141l39 80l-250 975h239l156 -703l336 703h195l-523 -1055q-92 -188 -151 -246q-92 -88 -264 -88q-66 0 -123 9zM508 1214q-33 -27 -78 -26q-49 0 -82 35q-29 31 -29 73q0 43 29 74q31 37 82 37q45 0 76 -27q39 -31 39 -84 q0 -51 -37 -82zM842 1214q-33 -27 -78 -26q-49 0 -82 35q-29 31 -29 73q0 43 29 74q31 37 82 37q45 0 76 -27q39 -31 39 -84q0 -51 -37 -82z" />
<glyph unicode="&#x131;" horiz-adv-x="507" d="M51 0l170 1018h236l-170 -1018h-236z" />
<glyph unicode="&#x141;" horiz-adv-x="1013" d="M80 0l90 530l-152 -90l35 217l152 91l104 618h258l-86 -516l299 172l-37 -215l-299 -174l-69 -418h559l-35 -215h-819z" />
<glyph unicode="&#x142;" horiz-adv-x="522" d="M59 0l103 618l-139 -100l24 150l139 100l101 598h235l-84 -506l137 94l-24 -151l-139 -92l-119 -711h-234z" />
<glyph unicode="&#x152;" horiz-adv-x="1765" d="M821 0q-76 -20 -100 -25q-61 -8 -107 -8q-219 0 -358 162q-147 172 -147 461q0 340 180 571q182 238 456 238q92 0 213 -29h863l-35 -215h-600l-60 -367h498l-35 -200h-497l-62 -373h627l-37 -215h-799zM940 1139q-88 63 -190 63q-199 0 -304 -260q-78 -190 -77 -403 q0 -367 268 -367q80 0 149 45z" />
<glyph unicode="&#x153;" horiz-adv-x="1705" d="M946 481q-6 -45 -6 -80q0 -250 211 -249q154 0 235 188l199 -53q-143 -313 -446 -314q-197 0 -318 144q-131 -152 -329 -152q-195 0 -310 129q-113 127 -112 338q0 231 133 406q145 195 377 194q180 0 311 -137q152 145 346 145q145 0 252 -84q150 -121 149 -374 q0 -51 -4 -101h-688zM1432 625q-14 254 -205 254q-193 0 -256 -254h461zM768 600q0 123 -57 191q-53 59 -142 59q-143 0 -213 -168q-53 -123 -53 -281q0 -254 199 -254q190 0 248 287q18 92 18 166z" />
<glyph unicode="&#x178;" horiz-adv-x="1060" d="M336 0l96 575l-346 791h279l243 -590l387 590h238l-547 -803l-94 -563h-256zM600 1538q-33 -27 -78 -27q-49 0 -82 35q-29 31 -28 74q0 43 28 74q31 37 82 37q45 0 76 -27q39 -31 39 -84q0 -51 -37 -82zM948 1538q-33 -27 -78 -27q-49 0 -82 35q-29 31 -28 74q0 43 28 74 q31 37 82 37q45 0 76 -27q39 -31 39 -84q0 -51 -37 -82z" />
<glyph unicode="&#x192;" d="M4 -78q106 -2 135 2q68 14 105 66q25 37 65 157l281 805h-146l56 183h153q55 180 125 260q119 135 350 135q39 0 115 -10l-67 -191l-64 2q-115 0 -164 -47q-39 -37 -74 -149h216l-66 -183h-211l-281 -805q-61 -180 -133 -268q-129 -154 -352 -153q-43 0 -110 12z" />
<glyph unicode="&#x2c6;" horiz-adv-x="1024" d="M963 1188l-179 -21l-131 131l-202 -131l-179 21l404 289z" />
<glyph unicode="&#x2c7;" horiz-adv-x="1024" d="M326 1442l176 20l133 -131l201 131l178 -20l-404 -289z" />
<glyph unicode="&#x2d8;" horiz-adv-x="1024" d="M514 1456q-6 -133 152 -133q141 0 192 133h131q-33 -141 -143 -215q-92 -59 -207 -59q-133 0 -203 73q-57 61 -57 150q0 27 4 51h131z" />
<glyph unicode="&#x2d9;" horiz-adv-x="1024" d="M721 1214q-33 -27 -78 -26q-49 0 -82 35q-29 31 -29 73q0 43 29 74q31 37 82 37q45 0 76 -27q39 -31 39 -84q0 -51 -37 -82z" />
<glyph unicode="&#x2da;" horiz-adv-x="1024" d="M786 1190q-55 -57 -135 -57q-78 0 -133 55q-53 53 -53 129q0 78 53 133q55 55 133 55q61 0 115 -39q72 -53 72 -151q-1 -72 -52 -125zM655 1401q-86 0 -86 -82t82 -82t82 78q0 86 -78 86z" />
<glyph unicode="&#x2db;" horiz-adv-x="1024" d="M864 -311q-80 -35 -164 -35q-86 0 -135 39q-47 37 -47 96q0 125 199 209h110q-164 -80 -163 -174q0 -80 98 -80q35 0 90 18z" />
<glyph unicode="&#x2dc;" horiz-adv-x="1024" d="M977 1317q-90 -117 -213 -117q-57 0 -148 47q-68 37 -100 37q-47 0 -139 -80l-53 96q115 123 217 123q59 0 131 -39q84 -43 123 -43q55 0 129 74z" />
<glyph unicode="&#x2dd;" horiz-adv-x="1024" d="M737 1372l-350 -211l-53 86l323 242zM1079 1366l-352 -211l-53 84l325 242z" />
<glyph unicode="&#x3a9;" horiz-adv-x="1550" d="M350 170q-242 225 -182 584q47 279 262 467q219 188 502 188q289 0 438 -201q139 -188 96 -446q-63 -377 -385 -592v-6h314l-27 -164h-545l21 123q334 174 405 602q35 205 -51 354q-96 164 -295 164q-197 0 -346 -151q-147 -150 -184 -375q-35 -207 30 -375 q57 -150 175 -219l-21 -123h-545l27 164h311v6z" />
<glyph unicode="&#x3c0;" horiz-adv-x="1249" d="M1096 866l-95 -561q-35 -195 -22 -305h-203q-27 57 12 289l99 577h-350q-119 -565 -291 -866h-205q197 381 289 866q-158 0 -232 -24l-6 133q98 61 336 61h877l-45 -170h-164z" />
<glyph unicode="&#x2000;" horiz-adv-x="912" />
<glyph unicode="&#x2001;" horiz-adv-x="1825" />
<glyph unicode="&#x2002;" horiz-adv-x="912" />
<glyph unicode="&#x2003;" horiz-adv-x="1825" />
<glyph unicode="&#x2004;" horiz-adv-x="608" />
<glyph unicode="&#x2005;" horiz-adv-x="456" />
<glyph unicode="&#x2006;" horiz-adv-x="304" />
<glyph unicode="&#x2007;" horiz-adv-x="304" />
<glyph unicode="&#x2008;" horiz-adv-x="228" />
<glyph unicode="&#x2009;" horiz-adv-x="365" />
<glyph unicode="&#x200a;" horiz-adv-x="101" />
<glyph unicode="&#x2010;" horiz-adv-x="489" d="M-14 414l28 182h492l-31 -182h-489z" />
<glyph unicode="&#x2011;" horiz-adv-x="489" d="M-14 414l28 182h492l-31 -182h-489z" />
<glyph unicode="&#x2012;" horiz-adv-x="489" d="M-14 414l28 182h492l-31 -182h-489z" />
<glyph unicode="&#x2013;" horiz-adv-x="1024" d="M84 414l31 182h825l-31 -182h-825z" />
<glyph unicode="&#x2014;" horiz-adv-x="2048" d="M-14 414l28 182h2048l-30 -182h-2046z" />
<glyph unicode="&#x2018;" horiz-adv-x="477" d="M489 1366l-151 -258h108l-36 -223h-217l34 209l183 272h79z" />
<glyph unicode="&#x2019;" horiz-adv-x="477" d="M193 885l153 260h-110l36 221h217l-32 -207l-185 -274h-79z" />
<glyph unicode="&#x201a;" horiz-adv-x="477" d="M2 -258l152 258h-109l37 223h217l-35 -209l-182 -272h-80z" />
<glyph unicode="&#x201c;" horiz-adv-x="755" d="M496 1366l-152 -270h96l-37 -226h-213l35 209l191 287h80zM784 1366l-153 -270h94l-37 -226h-207l35 209l189 287h79z" />
<glyph unicode="&#x201d;" horiz-adv-x="755" d="M467 872l149 269h-94l37 225h211l-35 -209l-190 -285h-78zM178 872l154 269h-96l38 225h207l-35 -209l-188 -285h-80z" />
<glyph unicode="&#x201e;" horiz-adv-x="755" d="M276 -270l150 270h-96l39 225h211l-35 -209l-191 -286h-78zM-14 -270l153 270h-94l37 225h209l-35 -209l-188 -286h-82z" />
<glyph unicode="&#x2020;" horiz-adv-x="1200" d="M852 1366l-61 -377h364l-31 -188h-366l-193 -1157h-219l195 1157h-367l31 188h366l64 377h217z" />
<glyph unicode="&#x2021;" horiz-adv-x="1200" d="M852 1366l-61 -377h364l-31 -188h-366l-92 -557h366l-33 -189h-366l-68 -411h-219l70 411h-367l33 189h364l95 557h-367l31 188h366l64 377h217z" />
<glyph unicode="&#x2022;" horiz-adv-x="1200" d="M471 844q66 68 162 67q96 0 162 -67q63 -66 63 -160t-65 -162q-66 -68 -160 -67q-94 0 -160 67q-66 68 -65 162q0 94 63 160z" />
<glyph unicode="&#x2026;" horiz-adv-x="2048" d="M137 0l41 250h240l-41 -250h-240zM819 0l41 250h240l-41 -250h-240zM1501 0l41 250h240l-41 -250h-240z" />
<glyph unicode="&#x202f;" horiz-adv-x="365" />
<glyph unicode="&#x2030;" horiz-adv-x="2228" d="M911 68q-78 90 -77 239q0 176 98 305q100 129 239 129q125 0 203 -102q74 -96 74 -236q0 -160 -90 -286q-98 -139 -248 -140q-123 1 -199 91zM1249 256q27 90 27 180q0 164 -115 164q-68 0 -104 -68q-53 -104 -53 -247q0 -166 116 -166q86 0 129 137zM223 729 q-78 94 -78 238q0 150 80 274q96 152 258 152q131 0 207 -101q70 -92 70 -227q0 -154 -84 -281q-96 -152 -256 -151q-119 0 -197 96zM549 870q39 102 39 222q0 160 -111 159q-86 0 -129 -123q-31 -90 -31 -204q0 -152 107 -152q86 0 125 98zM1608 68q-78 90 -78 239 q0 176 98 305q100 129 240 129q125 0 203 -102q74 -96 73 -236q0 -160 -88 -286q-100 -139 -250 -140q-122 1 -198 91zM1946 256q27 90 26 180q0 164 -114 164q-68 0 -105 -68q-53 -104 -53 -247q0 -166 117 -166q86 0 129 137zM221 0l998 1366h149l-993 -1366h-154z" />
<glyph unicode="&#x2039;" horiz-adv-x="425" d="M201 223l-125 293l203 281h106l-154 -287l58 -287h-88z" />
<glyph unicode="&#x203a;" horiz-adv-x="425" d="M227 797l123 -291l-203 -283h-106l156 289l-60 285h90z" />
<glyph unicode="&#x2044;" horiz-adv-x="299" d="M-430 0l1067 1366h151l-1067 -1366h-151z" />
<glyph unicode="&#x205f;" horiz-adv-x="456" />
<glyph unicode="&#x20ac;" d="M805 510h-361q-2 -18 -2 -49q0 -309 220 -309q100 0 186 67q82 63 115 156l188 -51q-156 -362 -535 -363q-184 0 -297 129q-115 133 -114 361l2 59h-180l47 143h145q12 74 21 111h-174l47 143h168q84 231 239 363q156 131 352 131q182 0 285 -111q94 -102 107 -278 l-213 -25q-33 227 -226 227t-305 -307h412l-47 -143h-406l-20 -111h393z" />
<glyph unicode="&#x2122;" horiz-adv-x="1572" d="M498 1233l-109 -645h-174l107 645h-211l22 133h598l-22 -133h-211zM1335 588l105 637l-314 -637h-100l-111 633l-106 -633h-139l131 778h248l90 -485l233 485h264l-131 -778h-170z" />
<glyph unicode="&#x2202;" horiz-adv-x="1191" d="M326 1427q174 117 395 117q238 0 362 -192q135 -209 74 -566q-59 -358 -246 -581q-199 -236 -469 -236q-203 0 -297 154q-82 135 -53 313q39 227 197 371q154 139 344 139q127 0 221 -74q66 -51 92 -116h2l15 80q41 233 -45 389q-84 154 -250 153q-154 0 -301 -94z M492 135q131 0 247 139q104 125 156 306q-10 72 -70 131q-74 74 -180 73q-121 0 -221 -102q-102 -102 -127 -248q-20 -129 33 -213q53 -86 159 -86h3z" />
<glyph unicode="&#x2206;" horiz-adv-x="1398" d="M0 125l735 1296h246l293 -1294l-21 -127h-1276zM1053 164l-164 688l-39 186q-27 125 -33 176h-8q-16 -37 -78 -151l-96 -178l-416 -721h834z" />
<glyph unicode="&#x220f;" horiz-adv-x="1658" d="M1378 1204v-1394h-204v1394h-541v-1394h-203v1394h-231v182h1409v-182h-230z" />
<glyph unicode="&#x2211;" horiz-adv-x="1335" d="M195 -190v127l548 659l-524 651v139h1041v-174h-756v-6l475 -583l-516 -623v-4h829v-186h-1097z" />
<glyph unicode="&#x221a;" horiz-adv-x="1380" d="M920 -291h-175l-331 897l-158 -59l-37 112l318 129l256 -708q6 -29 20 -78l18 -72h3l30 156l383 1567h150z" />
<glyph unicode="&#x221e;" horiz-adv-x="1681" d="M1579 573q0 -152 -100 -249q-94 -92 -226 -93q-172 0 -376 242q-207 -242 -390 -242q-129 0 -221 95q-96 98 -96 239q0 147 96 244q94 94 240 94q184 0 379 -239q215 242 383 239q137 0 223 -90q88 -92 88 -238v-2zM506 348q113 0 305 211q-180 231 -317 232 q-92 0 -148 -68q-53 -63 -53 -160q2 -90 59 -151q59 -63 152 -64h2zM1253 791q-100 0 -307 -220q193 -223 316 -223q88 0 143 70q51 63 51 147q0 102 -57 164q-55 61 -144 62h-2z" />
<glyph unicode="&#x222b;" horiz-adv-x="925" d="M866 1540q-37 20 -78 21q-70 0 -106 -50q-66 -80 -66 -346q0 -156 17 -479q14 -324 14 -496q0 -264 -84 -397q-74 -125 -233 -125q-90 0 -152 35l31 143q45 -25 94 -24q63 0 96 43q68 82 68 325q0 174 -14 504q-16 332 -17 492q0 317 119 434q82 84 217 84q72 0 121 -27z " />
<glyph unicode="&#x2248;" horiz-adv-x="1247" d="M1155 815q-109 -201 -278 -201q-90 0 -244 86q-123 68 -193 68q-102 0 -209 -150l-77 72q106 199 301 199q80 0 229 -80q129 -74 195 -74q106 0 200 152zM1155 446q-111 -201 -278 -200q-88 0 -244 86q-123 70 -193 69q-100 0 -209 -151l-77 72q106 201 299 200 q82 0 231 -80q135 -74 195 -73q104 0 200 149z" />
<glyph unicode="&#x2260;" horiz-adv-x="1277" d="M858 834h316v-123h-365l-135 -293h500v-123h-551l-111 -246l-98 45l92 201h-305v123h356l133 293h-489v123h538l111 237l98 -43z" />
<glyph unicode="&#x2264;" horiz-adv-x="1306" d="M240 651v131l956 459v-143l-825 -379v-4l827 -381v-144zM229 -14v125h973v-125h-973z" />
<glyph unicode="&#x2265;" horiz-adv-x="1306" d="M1198 780v-131l-956 -459v144l827 381v4l-827 379v143zM231 -14v125h969v-125h-969z" />
<glyph unicode="&#x25ca;" horiz-adv-x="1378" d="M844 -98h-162l-422 790l428 791h162l422 -791zM807 1217q-27 59 -39 104h-6q-10 -43 -39 -104l-281 -521l285 -534q27 -63 37 -101h6q25 74 37 99l283 528z" />
<glyph unicode="&#x25fc;" horiz-adv-x="1013" d="M0 1014h1014v-1014h-1014v1014z" />
<glyph unicode="&#xfb01;" horiz-adv-x="1103" d="M883 0h-234l170 1018h234zM1071 1128h-233l41 244h233zM326 0h-242l139 836h-127l29 182h137q49 166 74 213q100 184 348 184q74 0 121 -8l-31 -188q-33 6 -78 6q-102 0 -151 -70q-14 -18 -45 -137h215l-33 -182h-221z" />
<glyph unicode="&#xfb02;" horiz-adv-x="1103" d="M883 0h-236l230 1372h235zM326 0h-242l139 836h-127l29 182h137q49 166 74 213q100 184 348 184q74 0 121 -8l-31 -188q-33 6 -78 6q-102 0 -151 -70q-14 -18 -45 -137h215l-33 -182h-221z" />
</font>
</defs>
</svg>
